SplineFontDB: 3.0
FontName: MODBoss
FullName: MOD Boss
FamilyName: MOD Boss
Weight: Book
Copyright: (c) Copyright 1997-2008, Terrence Curran http://www.grilledcheese.com
Version: Fontographer 4.7 8/11/08 FG4M0000002045
ItalicAngle: 0
UnderlinePosition: -123
UnderlineWidth: 20
Ascent: 800
Descent: 200
InvalidEm: 0
sfntRevision: 0x00010000
LayerCount: 2
Layer: 0 1 "Back" 1
Layer: 1 1 "Fore" 0
XUID: [1021 270 -1463357204 1117925]
FSType: 0
OS2Version: 3
OS2_WeightWidthSlopeOnly: 0
OS2_UseTypoMetrics: 1
CreationTime: 1218423600
ModificationTime: 1432236553
PfmFamily: 17
TTFWeight: 400
TTFWidth: 5
LineGap: 18
VLineGap: 0
Panose: 2 0 4 0 0 0 0 0 0 0
OS2TypoAscent: 633
OS2TypoAOffset: 0
OS2TypoDescent: -271
OS2TypoDOffset: 0
OS2TypoLinegap: 35
OS2WinAscent: 786
OS2WinAOffset: 0
OS2WinDescent: 318
OS2WinDOffset: 0
HheadAscent: 786
HheadAOffset: 0
HheadDescent: -318
HheadDOffset: 0
OS2SubXSize: 700
OS2SubYSize: 650
OS2SubXOff: 0
OS2SubYOff: 143
OS2SupXSize: 700
OS2SupYSize: 650
OS2SupXOff: 0
OS2SupYOff: 453
OS2StrikeYSize: 50
OS2StrikeYPos: 250
OS2CapHeight: 0
OS2XHeight: 0
OS2Vendor: 'GRIL'
OS2CodePages: 20000111.40000000
OS2UnicodeRanges: 800000af.48002048.14000000.00000000
Lookup: 258 0 0 "'kern' Horizontal Kerning in Latin lookup 0" { "'kern' Horizontal Kerning in Latin lookup 0 subtable"  } ['kern' ('latn' <'dflt' > ) ]
MarkAttachClasses: 1
DEI: 91125
TtTable: prep
NPUSHB
 39
 22
 22
 21
 21
 20
 20
 19
 19
 18
 18
 17
 17
 16
 16
 15
 15
 14
 14
 13
 13
 12
 12
 11
 11
 10
 10
 9
 9
 8
 8
 3
 3
 2
 2
 1
 1
 0
 0
 1
SCANTYPE
PUSHW_1
 511
SCANCTRL
RCVT
ROUND[Grey]
WCVTP
RCVT
ROUND[Grey]
WCVTP
RCVT
ROUND[Grey]
WCVTP
RCVT
ROUND[Grey]
WCVTP
RCVT
ROUND[Grey]
WCVTP
RCVT
ROUND[Grey]
WCVTP
RCVT
ROUND[Grey]
WCVTP
RCVT
ROUND[Grey]
WCVTP
RCVT
ROUND[Grey]
WCVTP
RCVT
ROUND[Grey]
WCVTP
RCVT
ROUND[Grey]
WCVTP
RCVT
ROUND[Grey]
WCVTP
RCVT
ROUND[Grey]
WCVTP
RCVT
ROUND[Grey]
WCVTP
RCVT
ROUND[Grey]
WCVTP
RCVT
ROUND[Grey]
WCVTP
RCVT
ROUND[Grey]
WCVTP
RCVT
ROUND[Grey]
WCVTP
RCVT
ROUND[Grey]

StartChar: .notdef
Encoding: 65536 -1 0
Width: 500
Flags: W
LayerCount: 2
Back
Fore
SplineSet
63 0 m 1,0,-1
 63 800 l 1,1,-1
 438 800 l 1,2,-1
 438 0 l 1,3,-1
 63 0 l 1,0,-1
125 63 m 1,4,-1
 375 63 l 1,5,-1
 375 738 l 1,6,-1
 125 738 l 1,7,-1
 125 63 l 1,4,-1
EndSplineSet
EndChar

StartChar: exclam
Encoding: 33 33 4
Width: 221
Flags: W
LayerCount: 2
Back
Fore
SplineSet
75 584 m 1,0,-1
 26 583 l 1,1,-1
 26 633 l 1,2,-1
 176 633 l 1,3,-1
 176 583 l 1,4,-1
 127 583 l 1,5,-1
 127 177 l 1,6,-1
 75 177 l 1,7,-1
 75 584 l 1,0,-1
41 79 m 0,8,9
 41 104 41 104 59.5 121.5 c 128,-1,10
 78 139 78 139 104 139 c 0,11,12
 131 139 131 139 149 121.5 c 128,-1,13
 167 104 167 104 167 79 c 0,14,15
 167 53 167 53 148.5 35.5 c 128,-1,16
 130 18 130 18 104 18 c 256,17,18
 78 18 78 18 59.5 35.5 c 128,-1,19
 41 53 41 53 41 79 c 0,8,9
EndSplineSet
EndChar

StartChar: quotedbl
Encoding: 34 34 5
Width: 327
Flags: W
LayerCount: 2
Back
Fore
SplineSet
75 583 m 1,0,-1
 26 583 l 1,1,-1
 26 633 l 1,2,-1
 126 633 l 1,3,-1
 126 502 l 1,4,-1
 75 502 l 1,5,-1
 75 583 l 1,0,-1
169 633 m 1,6,-1
 269 633 l 1,7,-1
 269 583 l 1,8,-1
 219 583 l 1,9,-1
 219 502 l 1,10,-1
 170 502 l 1,11,-1
 169 633 l 1,6,-1
EndSplineSet
EndChar

StartChar: numbersign
Encoding: 35 35 6
Width: 469
Flags: W
LayerCount: 2
Back
Fore
SplineSet
43 437 m 1,0,-1
 43 387 l 1,1,-1
 152 387 l 5,2,-1
 152 277 l 1,3,-1
 202 277 l 1,4,-1
 202 387 l 1,5,-1
 259 387 l 1,6,-1
 259 277 l 1,7,-1
 309 277 l 1,8,-1
 309 387 l 1,9,-1
 417 387 l 1,10,-1
 417 437 l 1,11,-1
 309 437 l 1,12,-1
 309 485 l 1,13,-1
 417 485 l 1,14,-1
 417 535 l 1,15,-1
 309 535 l 1,16,-1
 309 644 l 1,17,-1
 259 644 l 1,18,-1
 259 535 l 1,19,-1
 202 535 l 1,20,-1
 202 644 l 1,21,-1
 152 644 l 1,22,-1
 152 535 l 1,23,-1
 43 535 l 1,24,-1
 43 485 l 1,25,-1
 152 485 l 1,26,-1
 152 437 l 1,27,-1
 43 437 l 1,0,-1
259 437 m 1,28,-1
 202 437 l 1,29,-1
 202 485 l 1,30,-1
 259 485 l 1,31,-1
 259 437 l 1,28,-1
EndSplineSet
EndChar

StartChar: dollar
Encoding: 36 36 7
Width: 432
Flags: W
LayerCount: 2
Back
Fore
SplineSet
71 162 m 0,0,1
 71 174 71 174 73 186 c 1,2,-1
 174 130 l 1,3,-1
 174 33 l 1,4,5
 130 44 130 44 100.5 80 c 128,-1,6
 71 116 71 116 71 162 c 0,0,1
225 296 m 1,7,8
 272 290 272 290 305 251 c 128,-1,9
 338 212 338 212 338 162 c 256,10,11
 338 112 338 112 305.5 75 c 128,-1,12
 273 38 273 38 225 30 c 1,13,-1
 225 296 l 1,7,8
174 -92 m 1,14,-1
 274 -92 l 1,15,-1
 274 -41 l 1,16,-1
 224 -41 l 1,17,-1
 225 -20 l 1,18,19
 294 -12 294 -12 341 40 c 128,-1,20
 388 92 388 92 388 162 c 256,21,22
 388 232 388 232 341 282.5 c 128,-1,23
 294 333 294 333 225 338 c 1,24,-1
 225 442 l 1,25,-1
 353 372 l 1,26,27
 382 417 382 417 382 471 c 0,28,29
 382 539 382 539 337 590.5 c 128,-1,30
 292 642 292 642 225 652 c 1,31,-1
 225 728 l 1,32,-1
 124 728 l 1,33,-1
 124 678 l 1,34,-1
 174 678 l 1,35,-1
 174 654 l 1,36,37
 106 646 106 646 60.5 593.5 c 128,-1,38
 15 541 15 541 15 471 c 0,39,40
 15 402 15 402 60.5 352 c 128,-1,41
 106 302 106 302 174 297 c 1,42,-1
 174 187 l 1,43,-1
 47 257 l 1,44,45
 21 217 21 217 21 162 c 0,46,47
 21 94 21 94 64.5 43 c 128,-1,48
 108 -8 108 -8 174 -19 c 1,49,-1
 174 -92 l 1,14,-1
65 471 m 0,50,51
 65 519 65 519 96.5 556.5 c 128,-1,52
 128 594 128 594 174 603 c 1,53,-1
 174 338 l 1,54,55
 128 345 128 345 96.5 383.5 c 128,-1,56
 65 422 65 422 65 471 c 0,50,51
225 603 m 1,57,58
 271 594 271 594 301.5 556.5 c 128,-1,59
 332 519 332 519 332 471 c 0,60,61
 332 457 332 457 329 442 c 1,62,-1
 225 498 l 1,63,-1
 225 603 l 1,57,58
EndSplineSet
EndChar

StartChar: percent
Encoding: 37 37 8
Width: 514
Flags: W
LayerCount: 2
Back
Fore
SplineSet
348 641 m 1,0,-1
 65 1 l 1,1,-1
 111 1 l 1,2,-1
 393 641 l 1,3,-1
 348 641 l 1,0,-1
157 709 m 256,4,5
 211 709 211 709 247 659 c 0,6,7
 280 612 280 612 280 548 c 256,8,9
 280 484 280 484 247 438 c 0,10,11
 211 388 211 388 157 388 c 256,12,13
 103 388 103 388 68 438 c 0,14,15
 34 484 34 484 34 548 c 256,16,17
 34 612 34 612 68.5 660.5 c 128,-1,18
 103 709 103 709 157 709 c 256,4,5
157 684 m 256,19,20
 122 684 122 684 95 647 c 0,21,22
 65 607 65 607 65 548 c 0,23,24
 65 490 65 490 95 450 c 0,25,26
 122 413 122 413 157 413 c 256,27,28
 192 413 192 413 220.5 451.5 c 128,-1,29
 249 490 249 490 249 548 c 0,30,31
 249 607 249 607 220 647 c 0,32,33
 192 684 192 684 157 684 c 256,19,20
350 320 m 256,34,35
 404 320 404 320 440 270 c 0,36,37
 473 224 473 224 473 160 c 256,38,39
 473 96 473 96 440 49 c 0,40,41
 404 -1 404 -1 350 -1 c 256,42,43
 296 -1 296 -1 260 49 c 0,44,45
 227 96 227 96 227 160 c 256,46,47
 227 224 227 224 260 270 c 0,48,49
 296 320 296 320 350 320 c 256,34,35
350 295 m 256,50,51
 315 295 315 295 287 258 c 0,52,53
 258 218 258 218 258 160 c 0,54,55
 258 101 258 101 286.5 62.5 c 128,-1,56
 315 24 315 24 350 24 c 256,57,58
 385 24 385 24 413.5 62.5 c 128,-1,59
 442 101 442 101 442 160 c 0,60,61
 442 218 442 218 412 258 c 0,62,63
 385 295 385 295 350 295 c 256,50,51
EndSplineSet
EndChar

StartChar: ampersand
Encoding: 38 38 9
Width: 465
Flags: W
LayerCount: 2
Back
Fore
SplineSet
168 734 m 1,0,-1
 218 734 l 1,1,-1
 218 650 l 1,2,3
 320 640 320 640 363 553 c 1,4,-1
 299 553 l 1,5,6
 266 592 266 592 218 600 c 1,7,-1
 218 183 l 1,8,-1
 168 183 l 1,9,-1
 168 289 l 1,10,11
 125 277 125 277 97 241 c 128,-1,12
 69 205 69 205 69 159 c 0,13,14
 69 104 69 104 108 64.5 c 128,-1,15
 147 25 147 25 202 25 c 0,16,17
 250 25 250 25 286.5 55.5 c 128,-1,18
 323 86 323 86 333 132 c 1,19,-1
 251 215 l 1,20,-1
 286 251 l 1,21,-1
 447 88 l 1,22,-1
 412 53 l 1,23,-1
 373 92 l 1,24,25
 353 40 353 40 306.5 7.5 c 128,-1,26
 260 -25 260 -25 202 -25 c 0,27,28
 126 -25 126 -25 72.5 29 c 128,-1,29
 19 83 19 83 19 159 c 0,30,31
 19 257 19 257 101 312 c 1,32,33
 14 366 14 366 14 468 c 0,34,35
 14 536 14 536 58 587 c 128,-1,36
 102 638 102 638 168 649 c 1,37,-1
 168 734 l 1,0,-1
168 338 m 1,38,-1
 168 599 l 1,39,40
 123 588 123 588 93.5 551 c 128,-1,41
 64 514 64 514 64 468 c 0,42,43
 64 421 64 421 93.5 385 c 128,-1,44
 123 349 123 349 168 338 c 1,38,-1
EndSplineSet
EndChar

StartChar: quotesingle
Encoding: 39 39 10
Width: 158
Flags: W
LayerCount: 2
Back
Fore
SplineSet
99 502 m 1,0,-1
 50 502 l 1,1,-1
 50 629 l 1,2,-1
 99 629 l 1,3,-1
 99 502 l 1,0,-1
EndSplineSet
EndChar

StartChar: parenleft
Encoding: 40 40 11
Width: 278
Flags: W
LayerCount: 2
Back
Fore
SplineSet
229 574 m 1,0,-1
 229 714 l 1,1,-1
 194 698 l 2,2,3
 116 664 116 664 72 550 c 0,4,5
 33 447 33 447 33 312 c 0,6,7
 33 174 33 174 74 68 c 0,8,9
 119 -46 119 -46 195 -75 c 2,10,-1
 229 -87 l 1,11,-1
 229 44 l 1,12,-1
 179 44 l 1,13,-1
 179 -7 l 1,14,15
 133 33 133 33 107 124 c 0,16,17
 83 211 83 211 83 315 c 0,18,19
 83 416 83 416 106 498 c 0,20,21
 132 587 132 587 179 629 c 1,22,-1
 179 574 l 1,23,-1
 229 574 l 1,0,-1
EndSplineSet
EndChar

StartChar: parenright
Encoding: 41 41 12
Width: 273
Flags: W
LayerCount: 2
Back
Fore
SplineSet
33 574 m 1,0,-1
 33 714 l 1,1,-1
 68 698 l 2,2,3
 146 664 146 664 189 550 c 0,4,5
 229 447 229 447 229 312 c 0,6,7
 229 174 229 174 188 68 c 0,8,9
 143 -46 143 -46 66 -75 c 2,10,-1
 33 -87 l 1,11,-1
 33 44 l 1,12,-1
 83 44 l 1,13,-1
 83 -7 l 1,14,15
 128 33 128 33 154 124 c 0,16,17
 179 211 179 211 179 315 c 0,18,19
 179 416 179 416 155 498 c 0,20,21
 130 587 130 587 83 629 c 1,22,-1
 83 574 l 1,23,-1
 33 574 l 1,0,-1
EndSplineSet
EndChar

StartChar: asterisk
Encoding: 42 42 13
Width: 265
Flags: W
LayerCount: 2
Back
Fore
SplineSet
96 671 m 1,0,-1
 59 708 l 1,1,-1
 34 683 l 1,2,-1
 72 645 l 1,3,-1
 18 645 l 1,4,-1
 18 610 l 1,5,-1
 72 610 l 1,6,-1
 34 572 l 1,7,-1
 59 548 l 1,8,-1
 97 585 l 1,9,-1
 97 532 l 1,10,-1
 132 532 l 1,11,-1
 132 586 l 1,12,-1
 170 548 l 1,13,-1
 195 572 l 1,14,-1
 157 610 l 1,15,-1
 210 610 l 1,16,-1
 210 645 l 1,17,-1
 157 645 l 1,18,-1
 195 683 l 1,19,-1
 170 708 l 1,20,-1
 132 670 l 1,21,-1
 132 723 l 1,22,-1
 97 723 l 1,23,-1
 97 671 l 1,24,-1
 96 671 l 1,0,-1
EndSplineSet
EndChar

StartChar: plus
Encoding: 43 43 14
Width: 332
Flags: W
LayerCount: 2
Back
Fore
SplineSet
182 122 m 1,0,-1
 132 122 l 1,1,-1
 132 248 l 1,2,-1
 21 248 l 1,3,-1
 21 298 l 1,4,-1
 132 298 l 1,5,-1
 132 410 l 1,6,-1
 182 410 l 1,7,-1
 182 298 l 1,8,-1
 292 298 l 1,9,-1
 292 248 l 1,10,-1
 182 248 l 1,11,-1
 182 122 l 1,0,-1
EndSplineSet
EndChar

StartChar: comma
Encoding: 44 44 15
Width: 211
Flags: W
LayerCount: 2
Back
Fore
SplineSet
98 26 m 1,0,-1
 48 26 l 1,1,-1
 48 76 l 1,2,-1
 148 76 l 1,3,-1
 148 -54 l 1,4,-1
 97 -54 l 1,5,-1
 98 26 l 1,0,-1
EndSplineSet
EndChar

StartChar: hyphen
Encoding: 173 173 16
Width: 268
Flags: W
LayerCount: 2
Back
Fore
SplineSet
23 351 m 1,0,-1
 239 351 l 1,1,-1
 239 302 l 1,2,-1
 23 302 l 1,3,-1
 23 351 l 1,0,-1
EndSplineSet
EndChar

StartChar: period
Encoding: 46 46 17
Width: 195
Flags: W
LayerCount: 2
Back
Fore
SplineSet
18 55 m 0,0,1
 18 80 18 80 35.5 97.5 c 128,-1,2
 53 115 53 115 77 115 c 0,3,4
 102 115 102 115 119 97.5 c 128,-1,5
 136 80 136 80 136 55 c 0,6,7
 136 31 136 31 119 13.5 c 128,-1,8
 102 -4 102 -4 77 -4 c 0,9,10
 53 -4 53 -4 35.5 13.5 c 128,-1,11
 18 31 18 31 18 55 c 0,0,1
EndSplineSet
EndChar

StartChar: slash
Encoding: 47 47 18
Width: 388
Flags: W
LayerCount: 2
Back
Fore
SplineSet
298 641 m 1,0,-1
 16 1 l 1,1,-1
 61 1 l 1,2,-1
 344 641 l 1,3,-1
 298 641 l 1,0,-1
EndSplineSet
EndChar

StartChar: zero
Encoding: 48 48 19
Width: 559
Flags: W
LayerCount: 2
Back
Fore
SplineSet
280 627 m 256,0,1
 388 627 388 627 459 528 c 0,2,3
 526 434 526 434 526 306 c 256,4,5
 526 178 526 178 459 85 c 0,6,7
 388 -14 388 -14 280 -14 c 256,8,9
 172 -14 172 -14 100 85 c 0,10,11
 33 178 33 178 33 306 c 256,12,13
 33 434 33 434 100 528 c 0,14,15
 172 627 172 627 280 627 c 256,0,1
280 577 m 0,16,17
 209 577 209 577 155 503 c 0,18,19
 96 423 96 423 96 306 c 256,20,21
 96 189 96 189 155 110 c 0,22,23
 209 36 209 36 280 36 c 0,24,25
 350 36 350 36 404 110 c 0,26,27
 463 189 463 189 463 306 c 256,28,29
 463 423 463 423 404 503 c 0,30,31
 350 577 350 577 280 577 c 0,16,17
EndSplineSet
EndChar

StartChar: one
Encoding: 49 49 20
Width: 559
Flags: W
LayerCount: 2
Back
Fore
SplineSet
214 403 m 0,0,1
 258 418 258 418 283 456 c 128,-1,2
 308 494 308 494 304 539 c 1,3,-1
 304 633 l 1,4,-1
 404 633 l 1,5,-1
 404 583 l 1,6,-1
 354 583 l 1,7,-1
 354 50 l 1,8,-1
 404 50 l 1,9,-1
 404 0 l 1,10,-1
 255 0 l 1,11,-1
 255 50 l 1,12,-1
 304 50 l 1,13,-1
 304 401 l 1,14,15
 275 371 275 371 234.5 357 c 128,-1,16
 194 343 194 343 155 346 c 1,17,-1
 155 478 l 1,18,-1
 205 478 l 1,19,-1
 205 401 l 1,20,21
 209 401 209 401 214 403 c 0,0,1
EndSplineSet
EndChar

StartChar: two
Encoding: 50 50 21
Width: 559
Flags: W
LayerCount: 2
Back
Fore
SplineSet
422 50 m 1,0,-1
 422 114 l 1,1,-1
 472 114 l 1,2,-1
 472 0 l 1,3,-1
 88 0 l 1,4,-1
 88 50 l 1,5,-1
 143 50 l 1,6,7
 93 100 93 100 93 162 c 0,8,9
 93 239 93 239 148 291 c 128,-1,10
 203 343 203 343 281 338 c 0,11,12
 336 333 336 333 375.5 374 c 128,-1,13
 415 415 415 415 415 471 c 0,14,15
 415 526 415 526 376 565 c 128,-1,16
 337 604 337 604 282 604 c 256,17,18
 227 604 227 604 187.5 565 c 128,-1,19
 148 526 148 526 148 471 c 0,20,21
 148 457 148 457 152 442 c 1,22,-1
 246 493 l 1,23,-1
 270 449 l 1,24,-1
 127 372 l 1,25,26
 98 417 98 417 98 471 c 0,27,28
 98 547 98 547 152 600.5 c 128,-1,29
 206 654 206 654 282 654 c 256,30,31
 358 654 358 654 411.5 600.5 c 128,-1,32
 465 547 465 547 465 471 c 0,33,34
 465 394 465 394 410.5 342.5 c 128,-1,35
 356 291 356 291 277 296 c 0,36,37
 223 300 223 300 183 259 c 128,-1,38
 143 218 143 218 143 162 c 0,39,40
 143 50 143 50 273 50 c 2,41,-1
 422 50 l 1,0,-1
EndSplineSet
EndChar

StartChar: three
Encoding: 51 51 22
Width: 559
Flags: W
LayerCount: 2
Back
Fore
SplineSet
492 162 m 0,0,1
 492 86 492 86 438 32 c 128,-1,2
 384 -22 384 -22 308 -22 c 0,3,4
 250 -22 250 -22 203.5 10.5 c 128,-1,5
 157 43 157 43 137 95 c 1,6,-1
 98 56 l 1,7,-1
 63 91 l 1,8,-1
 155 183 l 1,9,-1
 190 148 l 1,10,-1
 178 135 l 1,11,12
 187 89 187 89 223.5 58.5 c 128,-1,13
 260 28 260 28 308 28 c 0,14,15
 363 28 363 28 402.5 67.5 c 128,-1,16
 442 107 442 107 442 162 c 0,17,18
 442 208 442 208 414 244 c 128,-1,19
 386 280 386 280 343 292 c 1,20,-1
 343 186 l 1,21,-1
 293 186 l 1,22,-1
 293 399 l 1,23,-1
 343 399 l 1,24,-1
 343 341 l 1,25,26
 387 352 387 352 416.5 388 c 128,-1,27
 446 424 446 424 446 471 c 0,28,29
 446 526 446 526 407 565 c 128,-1,30
 368 604 368 604 312 604 c 0,31,32
 251 604 251 604 211 558 c 1,33,-1
 279 491 l 1,34,-1
 244 456 l 1,35,-1
 148 552 l 1,36,37
 171 598 171 598 215 626 c 128,-1,38
 259 654 259 654 312 654 c 0,39,40
 388 654 388 654 442 600.5 c 128,-1,41
 496 547 496 547 496 471 c 0,42,43
 496 369 496 369 410 315 c 1,44,45
 492 260 492 260 492 162 c 0,0,1
EndSplineSet
EndChar

StartChar: four
Encoding: 52 52 23
Width: 559
Flags: W
LayerCount: 2
Back
Fore
SplineSet
237 275 m 1,0,1
 326 303 326 303 354 392 c 1,2,-1
 354 275 l 1,3,-1
 237 275 l 1,0,1
455 224 m 1,4,-1
 455 275 l 1,5,-1
 405 275 l 1,6,-1
 405 583 l 1,7,-1
 455 583 l 1,8,-1
 455 633 l 1,9,-1
 354 633 l 1,10,-1
 354 522 l 1,11,12
 333 599 333 599 242 632 c 1,13,-1
 213 591 l 1,14,15
 313 547 313 547 313 450 c 0,16,17
 313 394 313 394 274 355 c 128,-1,18
 235 316 235 316 179 316 c 0,19,20
 139 316 139 316 119 326 c 1,21,-1
 104 286 l 1,22,23
 117 271 117 271 148 267 c 1,24,-1
 148 224 l 1,25,-1
 354 224 l 1,26,-1
 354 0 l 1,27,-1
 455 0 l 1,28,-1
 455 50 l 1,29,-1
 405 50 l 1,30,-1
 405 224 l 1,31,-1
 455 224 l 1,4,-1
EndSplineSet
EndChar

StartChar: five
Encoding: 53 53 24
Width: 559
Flags: W
LayerCount: 2
Back
Fore
SplineSet
422 595 m 1,0,-1
 422 531 l 1,1,-1
 472 531 l 1,2,-1
 472 645 l 1,3,-1
 88 645 l 1,4,-1
 88 595 l 1,5,-1
 143 595 l 1,6,7
 93 546 93 546 93 483 c 0,8,9
 93 406 93 406 148 354 c 128,-1,10
 203 302 203 302 281 308 c 0,11,12
 336 312 336 312 375.5 271.5 c 128,-1,13
 415 231 415 231 415 174 c 0,14,15
 415 119 415 119 376 80 c 128,-1,16
 337 41 337 41 282 41 c 256,17,18
 227 41 227 41 187.5 80 c 128,-1,19
 148 119 148 119 148 174 c 0,20,21
 148 188 148 188 152 204 c 1,22,-1
 246 152 l 1,23,-1
 270 196 l 1,24,-1
 127 274 l 1,25,26
 98 228 98 228 98 174 c 0,27,28
 98 98 98 98 152 44.5 c 128,-1,29
 206 -9 206 -9 282 -9 c 256,30,31
 358 -9 358 -9 411.5 44.5 c 128,-1,32
 465 98 465 98 465 174 c 0,33,34
 465 251 465 251 410.5 303 c 128,-1,35
 356 355 356 355 277 349 c 0,36,37
 223 345 223 345 183 386 c 128,-1,38
 143 427 143 427 143 483 c 0,39,40
 143 595 143 595 273 595 c 2,41,-1
 422 595 l 1,0,-1
EndSplineSet
EndChar

StartChar: six
Encoding: 54 54 25
Width: 559
Flags: W
LayerCount: 2
Back
Fore
SplineSet
463 162 m 256,0,1
 463 86 463 86 409.5 32 c 128,-1,2
 356 -22 356 -22 280 -22 c 256,3,4
 204 -22 204 -22 150 32 c 128,-1,5
 96 86 96 86 96 162 c 0,6,7
 96 220 96 220 121 255 c 1,8,-1
 215 423 l 1,9,10
 259 432 259 432 286 461 c 0,11,12
 310 489 310 489 310 525 c 0,13,14
 310 585 310 585 247 623 c 1,15,-1
 272 666 l 1,16,17
 361 613 361 613 361 520 c 0,18,19
 361 473 361 473 332.5 436 c 128,-1,20
 304 399 304 399 251 384 c 1,21,-1
 226 337 l 1,22,23
 244 346 244 346 280 346 c 0,24,25
 356 346 356 346 409.5 292 c 128,-1,26
 463 238 463 238 463 162 c 256,0,1
413 162 m 256,27,28
 413 217 413 217 374 256.5 c 128,-1,29
 335 296 335 296 280 296 c 0,30,31
 224 296 224 296 185 256.5 c 128,-1,32
 146 217 146 217 146 162 c 256,33,34
 146 107 146 107 185 67.5 c 128,-1,35
 224 28 224 28 280 28 c 0,36,37
 335 28 335 28 374 67.5 c 128,-1,38
 413 107 413 107 413 162 c 256,27,28
EndSplineSet
EndChar

StartChar: seven
Encoding: 55 55 26
Width: 559
Flags: W
LayerCount: 2
Back
Fore
SplineSet
487 584 m 1,0,-1
 487 634 l 1,1,-1
 72 634 l 1,2,-1
 72 584 l 1,3,4
 83 584 83 584 91 570 c 128,-1,5
 99 556 99 556 99 541 c 0,6,7
 99 516 99 516 78 516 c 1,8,-1
 78 466 l 1,9,10
 113 466 113 466 131 488 c 128,-1,11
 149 510 149 510 149 542 c 0,12,13
 149 564 149 564 140 584 c 1,14,-1
 328 584 l 1,15,16
 286 553 286 553 263 470 c 0,17,18
 238 377 238 377 238 209 c 0,19,20
 238 127 238 127 245 50 c 1,21,-1
 175 50 l 1,22,-1
 175 0 l 1,23,-1
 366 0 l 1,24,-1
 366 50 l 1,25,-1
 296 50 l 1,26,27
 289 130 289 130 289 215 c 0,28,29
 289 373 289 373 312 457 c 0,30,31
 336 548 336 548 370 548 c 0,32,33
 397 548 397 548 437 497 c 1,34,-1
 476 527 l 1,35,36
 446 566 446 566 416 584 c 1,37,-1
 487 584 l 1,0,-1
EndSplineSet
EndChar

StartChar: eight
Encoding: 56 56 27
Width: 559
Flags: W
LayerCount: 2
Back
Fore
SplineSet
466 462 m 0,0,1
 466 366 466 366 388 312 c 1,2,3
 460 256 460 256 460 166 c 0,4,5
 460 90 460 90 406 36 c 128,-1,6
 352 -18 352 -18 276 -18 c 256,7,8
 200 -18 200 -18 146.5 36 c 128,-1,9
 93 90 93 90 93 166 c 0,10,11
 93 261 93 261 171 316 c 1,12,13
 99 371 99 371 99 462 c 0,14,15
 99 538 99 538 153 591.5 c 128,-1,16
 207 645 207 645 283 645 c 256,17,18
 359 645 359 645 412.5 591.5 c 128,-1,19
 466 538 466 538 466 462 c 0,0,1
416 462 m 0,20,21
 416 517 416 517 377 556 c 128,-1,22
 338 595 338 595 283 595 c 0,23,24
 227 595 227 595 188 556 c 128,-1,25
 149 517 149 517 149 462 c 0,26,27
 149 378 149 378 224 342 c 1,28,29
 251 349 251 349 276 349 c 0,30,31
 309 349 309 349 337 340 c 1,32,33
 372 356 372 356 394 389 c 128,-1,34
 416 422 416 422 416 462 c 0,20,21
410 166 m 256,35,36
 410 221 410 221 369.5 260 c 128,-1,37
 329 299 329 299 273 299 c 0,38,39
 218 299 218 299 178.5 260 c 128,-1,40
 139 221 139 221 139 166 c 0,41,42
 139 110 139 110 178.5 71 c 128,-1,43
 218 32 218 32 273 32 c 0,44,45
 329 32 329 32 369.5 71.5 c 128,-1,46
 410 111 410 111 410 166 c 256,35,36
EndSplineSet
EndChar

StartChar: nine
Encoding: 57 57 28
Width: 559
Flags: W
LayerCount: 2
Back
Fore
SplineSet
96 462 m 256,0,1
 96 538 96 538 150 592 c 128,-1,2
 204 646 204 646 280 646 c 256,3,4
 356 646 356 646 409.5 592 c 128,-1,5
 463 538 463 538 463 462 c 0,6,7
 463 404 463 404 438 369 c 1,8,-1
 344 201 l 1,9,10
 300 192 300 192 274.5 163.5 c 128,-1,11
 249 135 249 135 249 99 c 0,12,13
 249 39 249 39 313 1 c 1,14,-1
 287 -42 l 1,15,16
 198 11 198 11 198 104 c 0,17,18
 198 151 198 151 226.5 188 c 128,-1,19
 255 225 255 225 308 240 c 1,20,-1
 333 287 l 1,21,22
 316 278 316 278 280 278 c 0,23,24
 204 278 204 278 150 332 c 128,-1,25
 96 386 96 386 96 462 c 256,0,1
146 462 m 256,26,27
 146 407 146 407 185 367.5 c 128,-1,28
 224 328 224 328 280 328 c 0,29,30
 335 328 335 328 374 367.5 c 128,-1,31
 413 407 413 407 413 462 c 256,32,33
 413 517 413 517 374 556.5 c 128,-1,34
 335 596 335 596 280 596 c 0,35,36
 224 596 224 596 185 556.5 c 128,-1,37
 146 517 146 517 146 462 c 256,26,27
EndSplineSet
EndChar

StartChar: colon
Encoding: 58 58 29
Width: 199
Flags: W
LayerCount: 2
Back
Fore
SplineSet
17 203 m 0,0,1
 17 227 17 227 34.5 244.5 c 128,-1,2
 52 262 52 262 76 262 c 0,3,4
 101 262 101 262 118 244.5 c 128,-1,5
 135 227 135 227 135 203 c 0,6,7
 135 178 135 178 118 160.5 c 128,-1,8
 101 143 101 143 76 143 c 0,9,10
 52 143 52 143 34.5 160.5 c 128,-1,11
 17 178 17 178 17 203 c 0,0,1
21 63 m 0,12,13
 21 87 21 87 38.5 104.5 c 128,-1,14
 56 122 56 122 81 122 c 0,15,16
 105 122 105 122 122.5 104.5 c 128,-1,17
 140 87 140 87 140 63 c 0,18,19
 140 38 140 38 122.5 21 c 128,-1,20
 105 4 105 4 81 4 c 0,21,22
 56 4 56 4 38.5 21 c 128,-1,23
 21 38 21 38 21 63 c 0,12,13
EndSplineSet
EndChar

StartChar: semicolon
Encoding: 59 59 30
Width: 188
Flags: W
LayerCount: 2
Back
Fore
SplineSet
70 26 m 1,0,-1
 21 26 l 1,1,-1
 21 76 l 1,2,-1
 121 76 l 1,3,-1
 121 -54 l 1,4,-1
 70 -54 l 1,5,-1
 70 26 l 1,0,-1
18 203 m 0,6,7
 18 227 18 227 35.5 244.5 c 128,-1,8
 53 262 53 262 77 262 c 0,9,10
 102 262 102 262 119 244.5 c 128,-1,11
 136 227 136 227 136 203 c 0,12,13
 136 178 136 178 119 160.5 c 128,-1,14
 102 143 102 143 77 143 c 0,15,16
 53 143 53 143 35.5 160.5 c 128,-1,17
 18 178 18 178 18 203 c 0,6,7
EndSplineSet
EndChar

StartChar: less
Encoding: 60 60 31
Width: 288
Flags: W
LayerCount: 2
Back
Fore
SplineSet
256 462 m 1,0,-1
 83 289 l 1,1,-1
 256 116 l 1,2,-1
 220 81 l 1,3,-1
 12 289 l 1,4,-1
 220 497 l 1,5,-1
 256 462 l 1,0,-1
EndSplineSet
EndChar

StartChar: equal
Encoding: 61 61 32
Width: 436
Flags: W
LayerCount: 2
Back
Fore
SplineSet
23 339 m 1,0,-1
 392 339 l 1,1,-1
 392 289 l 1,2,-1
 23 289 l 1,3,-1
 23 339 l 1,0,-1
23 212 m 1,4,-1
 392 212 l 1,5,-1
 392 162 l 1,6,-1
 23 162 l 1,7,-1
 23 212 l 1,4,-1
EndSplineSet
EndChar

StartChar: greater
Encoding: 62 62 33
Width: 268
Flags: W
LayerCount: 2
Back
Fore
SplineSet
12 462 m 1,0,-1
 185 289 l 1,1,-1
 12 116 l 1,2,-1
 48 81 l 1,3,-1
 256 289 l 1,4,-1
 48 497 l 1,5,-1
 12 462 l 1,0,-1
EndSplineSet
EndChar

StartChar: question
Encoding: 63 63 34
Width: 403
Flags: W
LayerCount: 2
Back
Fore
SplineSet
385 471 m 0,0,1
 385 547 385 547 331.5 600.5 c 128,-1,2
 278 654 278 654 202 654 c 0,3,4
 125 654 125 654 71.5 600.5 c 128,-1,5
 18 547 18 547 18 471 c 0,6,7
 18 417 18 417 47 372 c 1,8,-1
 190 449 l 1,9,-1
 166 493 l 1,10,-1
 74 442 l 1,11,12
 68 471 68 471 68 471 c 1,13,14
 68 526 68 526 107 565 c 128,-1,15
 146 604 146 604 202 604 c 0,16,17
 257 604 257 604 296 565 c 128,-1,18
 335 526 335 526 335 471 c 0,19,20
 335 415 335 415 296 375.5 c 128,-1,21
 257 336 257 336 201 336 c 2,22,-1
 154 336 l 1,23,-1
 154 182 l 1,24,-1
 202 182 l 1,25,-1
 202 295 l 1,26,27
 276 295 276 295 330.5 345.5 c 128,-1,28
 385 396 385 396 385 471 c 0,0,1
115 79 m 256,29,30
 115 104 115 104 133.5 122 c 128,-1,31
 152 140 152 140 178 140 c 256,32,33
 204 140 204 140 222.5 122 c 128,-1,34
 241 104 241 104 241 79 c 256,35,36
 241 54 241 54 222.5 36 c 128,-1,37
 204 18 204 18 178 18 c 256,38,39
 152 18 152 18 133.5 36 c 128,-1,40
 115 54 115 54 115 79 c 256,29,30
EndSplineSet
EndChar

StartChar: at
Encoding: 64 64 35
Width: 712
Flags: W
LayerCount: 2
Back
Fore
SplineSet
674 355 m 256,0,1
 674 217 674 217 576.5 119.5 c 128,-1,2
 479 22 479 22 341 22 c 256,3,4
 203 22 203 22 105.5 119.5 c 128,-1,5
 8 217 8 217 8 355 c 256,6,7
 8 493 8 493 105.5 590.5 c 128,-1,8
 203 688 203 688 341 688 c 256,9,10
 479 688 479 688 576.5 590.5 c 128,-1,11
 674 493 674 493 674 355 c 256,0,1
624 355 m 256,12,13
 624 472 624 472 541 555 c 128,-1,14
 458 638 458 638 341 638 c 256,15,16
 224 638 224 638 141 555 c 128,-1,17
 58 472 58 472 58 355 c 256,18,19
 58 238 58 238 141 155 c 128,-1,20
 224 72 224 72 341 72 c 256,21,22
 458 72 458 72 541 155 c 128,-1,23
 624 238 624 238 624 355 c 256,12,13
532 172 m 1,24,-1
 432 172 l 1,25,-1
 432 207 l 1,26,27
 378 150 378 150 299 150 c 0,28,29
 223 150 223 150 169.5 204 c 128,-1,30
 116 258 116 258 116 334 c 256,31,32
 116 410 116 410 169.5 463.5 c 128,-1,33
 223 517 223 517 299 517 c 0,34,35
 378 517 378 517 432 461 c 1,36,-1
 432 533 l 1,37,-1
 532 533 l 1,38,-1
 532 483 l 1,39,-1
 482 483 l 1,40,-1
 482 222 l 1,41,-1
 532 222 l 1,42,-1
 532 172 l 1,24,-1
433 334 m 256,43,44
 433 389 433 389 394 428 c 128,-1,45
 355 467 355 467 299 467 c 0,46,47
 244 467 244 467 205 428 c 128,-1,48
 166 389 166 389 166 334 c 256,49,50
 166 279 166 279 205 239.5 c 128,-1,51
 244 200 244 200 299 200 c 0,52,53
 355 200 355 200 394 239.5 c 128,-1,54
 433 279 433 279 433 334 c 256,43,44
EndSplineSet
EndChar

StartChar: A
Encoding: 65 65 36
Width: 598
Flags: W
LayerCount: 2
Back
Fore
SplineSet
330 324 m 0,0,1
 302 384 302 384 302 451 c 0,2,3
 302 479 302 479 307 506 c 1,4,-1
 112 53 l 1,5,-1
 193 53 l 1,6,-1
 193 0 l 1,7,-1
 28 0 l 1,8,-1
 295 632 l 1,9,-1
 362 632 l 1,10,-1
 333 566 l 1,11,12
 346 583 346 583 363 596 c 1,13,-1
 394 557 l 1,14,15
 355 527 355 527 355 466 c 0,16,17
 355 378 355 378 461 181 c 0,18,19
 496 119 496 119 563 0 c 1,20,-1
 495 0 l 1,21,22
 445 91 445 91 388 206 c 1,23,-1
 215 206 l 1,24,-1
 215 255 l 1,25,-1
 363 255 l 1,26,27
 351 278 351 278 330 324 c 0,0,1
EndSplineSet
EndChar

StartChar: B
Encoding: 66 66 37
Width: 497
Flags: W
LayerCount: 2
Back
Fore
SplineSet
406 471 m 0,0,1
 406 415 406 415 367 376 c 128,-1,2
 328 337 328 337 273 337 c 256,3,4
 218 337 218 337 178.5 376 c 128,-1,5
 139 415 139 415 139 471 c 0,6,7
 139 526 139 526 178 565 c 128,-1,8
 217 604 217 604 273 604 c 0,9,10
 328 604 328 604 367 565 c 128,-1,11
 406 526 406 526 406 471 c 0,0,1
268 -22 m 0,12,13
 344 -22 344 -22 398 32 c 128,-1,14
 452 86 452 86 452 162 c 0,15,16
 452 260 452 260 370 315 c 1,17,18
 456 369 456 369 456 471 c 0,19,20
 456 547 456 547 402.5 600.5 c 128,-1,21
 349 654 349 654 273 654 c 0,22,23
 191 654 191 654 136 593 c 1,24,-1
 136 633 l 1,25,-1
 36 633 l 1,26,-1
 36 583 l 1,27,-1
 85 583 l 1,28,-1
 85 50 l 1,29,-1
 35 50 l 1,30,-1
 35 0 l 1,31,-1
 136 0 l 1,32,-1
 136 35 l 1,33,34
 190 -22 190 -22 268 -22 c 0,12,13
136 289 m 1,35,-1
 136 348 l 1,36,37
 151 330 151 330 171 317 c 1,38,39
 150 304 150 304 136 289 c 1,40,-1
 136 289 l 1,35,-1
402 162 m 0,41,42
 402 107 402 107 362.5 67.5 c 128,-1,43
 323 28 323 28 268 28 c 0,44,45
 217 28 217 28 179.5 62 c 128,-1,46
 142 96 142 96 136 146 c 1,47,-1
 136 183 l 1,48,49
 142 222 142 222 169 252 c 128,-1,50
 196 282 196 282 235 292 c 1,51,52
 257 287 257 287 273 287 c 0,53,54
 288 287 288 287 305 290 c 1,55,56
 348 278 348 278 375 242.5 c 128,-1,57
 402 207 402 207 402 162 c 0,41,42
EndSplineSet
EndChar

StartChar: C
Encoding: 67 67 38
Width: 451
Flags: W
LayerCount: 2
Back
Fore
SplineSet
221 574 m 0,0,1
 165 574 165 574 122 500 c 0,2,3
 75 421 75 421 75 304 c 256,4,5
 75 187 75 187 122 108 c 0,6,7
 165 33 165 33 221 33 c 0,8,9
 262 33 262 33 300 77.5 c 128,-1,10
 338 122 338 122 356 197 c 1,11,-1
 441 111 l 1,12,-1
 407 76 l 1,13,-1
 377 106 l 1,14,15
 321 -17 321 -17 221 -17 c 0,16,17
 135 -17 135 -17 78 82 c 0,18,19
 25 176 25 176 25 304 c 256,20,21
 25 432 25 432 78 525 c 0,22,23
 135 624 135 624 221 624 c 0,24,25
 308 624 308 624 365 524 c 1,26,-1
 407 566 l 1,27,-1
 442 531 l 1,28,-1
 327 416 l 1,29,-1
 292 451 l 1,30,-1
 329 488 l 1,31,32
 285 574 285 574 221 574 c 0,0,1
EndSplineSet
EndChar

StartChar: D
Encoding: 68 68 39
Width: 482
Flags: W
LayerCount: 2
Back
Fore
SplineSet
245 36 m 0,0,1
 301 36 301 36 345 110 c 0,2,3
 391 190 391 190 391 306 c 0,4,5
 391 423 391 423 345 503 c 0,6,7
 301 577 301 577 245 577 c 256,8,9
 189 577 189 577 143 502 c 0,10,11
 126 474 126 474 119 456 c 1,12,-1
 119 0 l 1,13,-1
 18 0 l 1,14,-1
 18 50 l 1,15,-1
 68 49 l 1,16,-1
 68 583 l 1,17,-1
 19 582 l 1,18,-1
 19 632 l 1,19,-1
 119 632 l 1,20,-1
 119 556 l 1,21,22
 173 627 173 627 245 627 c 0,23,24
 331 627 331 627 388 528 c 0,25,26
 441 434 441 434 441 306 c 256,27,28
 441 178 441 178 388 85 c 0,29,30
 331 -14 331 -14 245 -14 c 0,31,32
 186 -14 186 -14 141 32 c 1,33,-1
 177 69 l 1,34,35
 209 36 209 36 245 36 c 0,0,1
EndSplineSet
EndChar

StartChar: E
Encoding: 69 69 40
Width: 418
Flags: W
LayerCount: 2
Back
Fore
SplineSet
121 267 m 1,0,-1
 121 583 l 1,1,-1
 338 583 l 1,2,-1
 338 530 l 1,3,-1
 389 530 l 1,4,-1
 389 632 l 1,5,-1
 20 633 l 1,6,-1
 20 583 l 1,7,-1
 71 583 l 1,8,-1
 71 50 l 1,9,-1
 20 50 l 1,10,-1
 20 0 l 1,11,-1
 389 0 l 1,12,-1
 389 100 l 1,13,-1
 339 100 l 1,14,-1
 339 51 l 1,15,-1
 121 51 l 1,16,-1
 121 212 l 1,17,18
 218 232 218 232 269 321 c 1,19,-1
 351 321 l 1,20,-1
 351 373 l 1,21,-1
 239 373 l 1,22,23
 226 331 226 331 189.5 300.5 c 128,-1,24
 153 270 153 270 121 267 c 1,0,-1
EndSplineSet
EndChar

StartChar: F
Encoding: 70 70 41
Width: 411
Flags: W
LayerCount: 2
Back
Fore
SplineSet
124 0 m 1,0,-1
 124 212 l 1,1,2
 221 232 221 232 272 321 c 1,3,-1
 354 321 l 1,4,-1
 354 373 l 1,5,-1
 242 373 l 1,6,7
 229 331 229 331 192.5 300.5 c 128,-1,8
 156 270 156 270 124 267 c 1,9,-1
 123 583 l 1,10,-1
 342 583 l 1,11,-1
 342 530 l 1,12,-1
 392 530 l 1,13,-1
 392 632 l 1,14,-1
 24 633 l 1,15,-1
 24 583 l 1,16,-1
 74 583 l 1,17,-1
 74 50 l 1,18,-1
 23 50 l 1,19,-1
 23 0 l 1,20,-1
 124 0 l 1,0,-1
EndSplineSet
EndChar

StartChar: G
Encoding: 71 71 42
Width: 509
Flags: W
LayerCount: 2
Back
Fore
SplineSet
498 272 m 1,0,-1
 263 272 l 1,1,-1
 263 222 l 1,2,-1
 357 222 l 1,3,4
 340 141 340 141 300.5 87 c 128,-1,5
 261 33 261 33 218 33 c 0,6,7
 162 33 162 33 119 108 c 0,8,9
 72 187 72 187 72 304 c 256,10,11
 72 421 72 421 119 500 c 0,12,13
 162 574 162 574 218 574 c 0,14,15
 270 574 270 574 314 510 c 1,16,-1
 233 510 l 1,17,-1
 233 460 l 1,18,-1
 431 460 l 1,19,-1
 431 510 l 1,20,-1
 370 510 l 1,21,22
 323 624 323 624 218 624 c 0,23,24
 132 624 132 624 75 525 c 0,25,26
 22 432 22 432 22 304 c 256,27,28
 22 176 22 176 75 82 c 0,29,30
 132 -17 132 -17 218 -17 c 0,31,32
 284 -17 284 -17 338.5 51.5 c 128,-1,33
 393 120 393 120 411 222 c 1,34,-1
 434 222 l 1,35,36
 416 188 416 188 416 146 c 256,37,38
 416 104 416 104 434 80 c 1,39,-1
 474 111 l 1,40,41
 465 122 465 122 465 145 c 0,42,43
 465 170 465 170 474.5 193.5 c 128,-1,44
 484 217 484 217 498 223 c 1,45,-1
 498 272 l 1,0,-1
EndSplineSet
EndChar

StartChar: H
Encoding: 72 72 43
Width: 465
Flags: W
LayerCount: 2
Back
Fore
SplineSet
128 330 m 1,0,-1
 128 633 l 1,1,-1
 28 633 l 1,2,-1
 28 583 l 1,3,-1
 77 583 l 1,4,-1
 77 50 l 1,5,-1
 27 50 l 1,6,-1
 27 0 l 1,7,-1
 128 0 l 1,8,-1
 128 281 l 1,9,-1
 272 281 l 1,10,11
 243 233 243 233 243 185 c 0,12,13
 243 109 243 109 297 54.5 c 128,-1,14
 351 0 351 0 427 0 c 1,15,-1
 427 52 l 1,16,17
 371 52 371 52 332 91 c 128,-1,18
 293 130 293 130 293 185 c 0,19,20
 293 244 293 244 331 281 c 1,21,-1
 399 281 l 1,22,-1
 399 330 l 1,23,-1
 350 330 l 1,24,-1
 350 583 l 1,25,-1
 399 583 l 1,26,-1
 399 633 l 1,27,-1
 299 633 l 1,28,-1
 299 330 l 1,29,-1
 128 330 l 1,0,-1
EndSplineSet
EndChar

StartChar: I
Encoding: 73 73 44
Width: 271
Flags: W
LayerCount: 2
Back
Fore
SplineSet
28 0 m 1,0,-1
 28 50 l 1,1,-1
 98 50 l 1,2,-1
 98 583 l 1,3,-1
 29 583 l 1,4,-1
 29 633 l 1,5,-1
 219 633 l 1,6,-1
 219 583 l 1,7,-1
 149 583 l 1,8,-1
 149 50 l 1,9,-1
 219 50 l 1,10,-1
 219 0 l 1,11,-1
 28 0 l 1,0,-1
EndSplineSet
EndChar

StartChar: J
Encoding: 74 74 45
Width: 353
Flags: W
LayerCount: 2
Back
Fore
SplineSet
241 50 m 1,0,-1
 240 583 l 1,1,-1
 171 583 l 1,2,-1
 171 633 l 1,3,-1
 361 633 l 1,4,-1
 361 583 l 1,5,-1
 291 583 l 1,6,-1
 291 0 l 1,7,-1
 168 0 l 1,8,9
 103 11 103 11 59.5 62 c 128,-1,10
 16 113 16 113 16 180 c 0,11,12
 16 228 16 228 47 277 c 0,13,14
 76 322 76 322 118 347 c 1,15,-1
 78 411 l 1,16,-1
 123 442 l 1,17,-1
 184 338 l 1,18,-1
 133 301 l 2,19,20
 106 284 106 284 86 248.5 c 128,-1,21
 66 213 66 213 66 180 c 0,22,23
 66 133 66 133 95 97 c 128,-1,24
 124 61 124 61 169 50 c 1,25,-1
 241 50 l 1,0,-1
EndSplineSet
EndChar

StartChar: K
Encoding: 75 75 46
Width: 475
Flags: W
LayerCount: 2
Back
Fore
SplineSet
200 227 m 256,0,1
 200 295 200 295 240.5 343.5 c 128,-1,2
 281 392 281 392 338 392 c 1,3,-1
 338 453 l 1,4,5
 295 453 295 453 257 432 c 1,6,-1
 420 633 l 1,7,-1
 269 633 l 1,8,-1
 269 583 l 1,9,-1
 315 582 l 1,10,-1
 114 330 l 1,11,-1
 114 633 l 1,12,-1
 14 633 l 1,13,-1
 14 583 l 1,14,-1
 63 583 l 1,15,-1
 63 50 l 1,16,-1
 13 50 l 1,17,-1
 13 0 l 1,18,-1
 114 0 l 1,19,-1
 114 255 l 1,20,-1
 164 317 l 1,21,22
 148 274 148 274 148 227 c 0,23,24
 148 134 148 134 203.5 67.5 c 128,-1,25
 259 1 259 1 338 1 c 0,26,27
 365 1 365 1 380 6 c 1,28,-1
 405 -29 l 1,29,-1
 446 -1 l 1,30,-1
 349 141 l 1,31,-1
 307 113 l 1,32,-1
 341 64 l 1,33,34
 281 64 281 64 240.5 111.5 c 128,-1,35
 200 159 200 159 200 227 c 256,0,1
EndSplineSet
EndChar

StartChar: L
Encoding: 76 76 47
Width: 415
Flags: W
LayerCount: 2
Back
Fore
SplineSet
36 0 m 1,0,-1
 36 50 l 1,1,-1
 86 50 l 1,2,-1
 86 583 l 1,3,-1
 36 583 l 1,4,-1
 36 633 l 1,5,-1
 137 633 l 1,6,-1
 137 50 l 1,7,-1
 326 50 l 1,8,9
 318 69 318 69 318 91 c 0,10,11
 318 123 318 123 336.5 145.5 c 128,-1,12
 355 168 355 168 390 168 c 1,13,-1
 390 118 l 1,14,15
 367 118 367 118 367 91 c 0,16,17
 367 76 367 76 375 63 c 128,-1,18
 383 50 383 50 393 50 c 1,19,-1
 393 0 l 1,20,-1
 36 0 l 1,0,-1
EndSplineSet
EndChar

StartChar: M
Encoding: 77 77 48
Width: 635
Flags: W
LayerCount: 2
Back
Fore
SplineSet
402 214 m 1,0,-1
 352 214 l 1,1,-1
 352 269 l 1,2,3
 335 266 335 266 314 266 c 0,4,5
 253 266 253 266 206 301.5 c 128,-1,6
 159 337 159 337 141 393 c 1,7,-1
 141 0 l 1,8,-1
 41 0 l 1,9,-1
 41 50 l 1,10,-1
 91 50 l 1,11,-1
 91 583 l 1,12,-1
 41 583 l 1,13,-1
 41 633 l 1,14,-1
 141 633 l 1,15,-1
 141 521 l 1,16,17
 163 599 163 599 254 632 c 1,18,-1
 284 591 l 1,19,20
 183 547 183 547 183 450 c 0,21,22
 183 394 183 394 222 355 c 128,-1,23
 261 316 261 316 317 316 c 0,24,25
 331 316 331 316 352 320 c 1,26,-1
 352 627 l 1,27,-1
 397 627 l 2,28,29
 484 627 484 627 541 528 c 0,30,31
 595 434 595 434 595 306 c 256,32,33
 595 178 595 178 541 85 c 0,34,35
 484 -14 484 -14 398 -14 c 1,36,-1
 398 33 l 1,37,38
 454 33 454 33 498 109 c 0,39,40
 545 189 545 189 545 306 c 256,41,42
 545 423 545 423 498 503 c 0,43,44
 456 578 456 578 402 578 c 1,45,-1
 402 214 l 1,0,-1
EndSplineSet
EndChar

StartChar: N
Encoding: 78 78 49
Width: 470
Flags: W
LayerCount: 2
Back
Fore
SplineSet
324 125 m 0,0,1
 263 125 263 125 216.5 191 c 128,-1,2
 170 257 170 257 170 347 c 0,3,4
 170 432 170 432 202 488 c 0,5,6
 229 535 229 535 288 573 c 1,7,-1
 258 620 l 1,8,9
 150 546 150 546 129 428 c 1,10,-1
 129 630 l 1,11,-1
 29 630 l 1,12,-1
 29 581 l 1,13,-1
 79 581 l 1,14,-1
 79 50 l 1,15,-1
 29 50 l 1,16,-1
 29 0 l 1,17,-1
 129 0 l 1,18,-1
 129 282 l 1,19,20
 146 192 146 192 206 134 c 0,21,22
 262 80 262 80 330 78 c 0,23,24
 336 78 336 78 346 80 c 128,-1,25
 356 82 356 82 358 83 c 2,26,-1
 358 0 l 1,27,-1
 408 0 l 1,28,-1
 408 583 l 1,29,-1
 458 583 l 1,30,-1
 458 633 l 1,31,-1
 358 633 l 1,32,-1
 358 128 l 1,33,34
 345 125 345 125 324 125 c 0,0,1
EndSplineSet
EndChar

StartChar: O
Encoding: 79 79 50
Width: 459
Flags: W
LayerCount: 2
Back
Fore
SplineSet
223 624 m 256,0,1
 309 624 309 624 366 525 c 0,2,3
 420 432 420 432 420 304 c 256,4,5
 420 176 420 176 366 82 c 0,6,7
 309 -17 309 -17 223 -17 c 256,8,9
 137 -17 137 -17 80 82 c 0,10,11
 26 176 26 176 26 304 c 256,12,13
 26 432 26 432 80 525 c 0,14,15
 137 624 137 624 223 624 c 256,0,1
223 574 m 256,16,17
 167 574 167 574 123 500 c 0,18,19
 76 421 76 421 76 304 c 256,20,21
 76 187 76 187 123 108 c 0,22,23
 167 33 167 33 223 33 c 256,24,25
 279 33 279 33 323 108 c 0,26,27
 370 187 370 187 370 304 c 256,28,29
 370 421 370 421 323 500 c 0,30,31
 279 574 279 574 223 574 c 256,16,17
EndSplineSet
EndChar

StartChar: P
Encoding: 80 80 51
Width: 440
Flags: W
LayerCount: 2
Back
Fore
SplineSet
120 633 m 1,0,-1
 20 633 l 1,1,-1
 20 583 l 1,2,-1
 69 583 l 1,3,-1
 69 50 l 1,4,-1
 19 50 l 1,5,-1
 19 0 l 1,6,-1
 120 0 l 1,7,-1
 120 348 l 1,8,9
 175 287 175 287 257 287 c 0,10,11
 333 287 333 287 386.5 341 c 128,-1,12
 440 395 440 395 440 471 c 256,13,14
 440 547 440 547 386.5 600.5 c 128,-1,15
 333 654 333 654 257 654 c 0,16,17
 175 654 175 654 120 593 c 1,18,-1
 120 633 l 1,0,-1
257 604 m 0,19,20
 312 604 312 604 351 565 c 128,-1,21
 390 526 390 526 390 471 c 0,22,23
 390 415 390 415 351 376 c 128,-1,24
 312 337 312 337 257 337 c 0,25,26
 201 337 201 337 162 376 c 128,-1,27
 123 415 123 415 123 471 c 0,28,29
 123 526 123 526 162 565 c 128,-1,30
 201 604 201 604 257 604 c 0,19,20
EndSplineSet
EndChar

StartChar: Q
Encoding: 81 81 52
Width: 476
Flags: W
LayerCount: 2
Back
Fore
SplineSet
369 304 m 0,0,1
 369 421 369 421 322 500 c 0,2,3
 278 574 278 574 222 574 c 256,4,5
 166 574 166 574 123 500 c 0,6,7
 76 421 76 421 76 304 c 256,8,9
 76 187 76 187 123 108 c 0,10,11
 166 33 166 33 222 33 c 0,12,13
 238 33 238 33 248 39 c 1,14,-1
 294 6 l 1,15,16
 260 -17 260 -17 222 -17 c 0,17,18
 136 -17 136 -17 79 82 c 0,19,20
 26 176 26 176 26 304 c 256,21,22
 26 432 26 432 79 525 c 0,23,24
 136 624 136 624 222 624 c 256,25,26
 308 624 308 624 365 525 c 0,27,28
 419 432 419 432 419 304 c 0,29,30
 419 154 419 154 350 60 c 1,31,-1
 420 6 l 1,32,-1
 390 -34 l 1,33,-1
 182 124 l 1,34,35
 243 151 243 151 257.5 170 c 128,-1,36
 272 189 272 189 280 254 c 1,37,-1
 330 248 l 1,38,39
 318 152 318 152 276 117 c 1,40,-1
 310 90 l 1,41,42
 369 168 369 168 369 304 c 0,0,1
EndSplineSet
EndChar

StartChar: R
Encoding: 82 82 53
Width: 462
Flags: W
LayerCount: 2
Back
Fore
SplineSet
120 348 m 1,0,-1
 120 0 l 1,1,-1
 19 0 l 1,2,-1
 19 50 l 1,3,-1
 69 50 l 1,4,-1
 69 583 l 1,5,-1
 20 583 l 1,6,-1
 20 633 l 1,7,-1
 120 633 l 1,8,-1
 120 593 l 1,9,10
 175 654 175 654 257 654 c 0,11,12
 333 654 333 654 386.5 600.5 c 128,-1,13
 440 547 440 547 440 471 c 0,14,15
 440 404 440 404 399 354 c 128,-1,16
 358 304 358 304 294 292 c 1,17,-1
 294 205 l 1,18,19
 247 166 247 166 247 116 c 0,20,21
 247 77 247 77 276 51 c 0,22,23
 307 22 307 22 360 20 c 1,24,-1
 357 -30 l 1,25,26
 287 -27 287 -27 240.5 18 c 128,-1,27
 194 63 194 63 194 122 c 0,28,29
 194 182 194 182 244 228 c 1,30,-1
 244 287 l 1,31,32
 170 292 170 292 120 348 c 1,0,-1
390 471 m 0,33,34
 390 526 390 526 351 565 c 128,-1,35
 312 604 312 604 257 604 c 0,36,37
 201 604 201 604 162 565 c 128,-1,38
 123 526 123 526 123 471 c 0,39,40
 123 419 123 419 158 381 c 128,-1,41
 193 343 193 343 244 338 c 1,42,-1
 244 396 l 1,43,-1
 294 396 l 1,44,-1
 294 342 l 1,45,46
 336 354 336 354 363 390 c 128,-1,47
 390 426 390 426 390 471 c 0,33,34
EndSplineSet
EndChar

StartChar: S
Encoding: 83 83 54
Width: 431
Flags: W
LayerCount: 2
Back
Fore
SplineSet
65 471 m 0,0,1
 65 526 65 526 104 565 c 128,-1,2
 143 604 143 604 199 604 c 0,3,4
 254 604 254 604 293 565 c 128,-1,5
 332 526 332 526 332 471 c 0,6,7
 332 457 332 457 329 442 c 1,8,-1
 235 493 l 1,9,-1
 211 449 l 1,10,-1
 353 372 l 1,11,12
 382 417 382 417 382 471 c 0,13,14
 382 547 382 547 328.5 600.5 c 128,-1,15
 275 654 275 654 199 654 c 256,16,17
 123 654 123 654 69 600.5 c 128,-1,18
 15 547 15 547 15 471 c 0,19,20
 15 394 15 394 70 342.5 c 128,-1,21
 125 291 125 291 203 296 c 0,22,23
 258 300 258 300 298 259 c 128,-1,24
 338 218 338 218 338 162 c 0,25,26
 338 107 338 107 299 68 c 128,-1,27
 260 29 260 29 204 29 c 0,28,29
 149 29 149 29 110 68 c 128,-1,30
 71 107 71 107 71 162 c 0,31,32
 71 174 71 174 73 186 c 1,33,-1
 162 137 l 1,34,-1
 186 181 l 1,35,-1
 47 257 l 1,36,37
 21 217 21 217 21 162 c 0,38,39
 21 86 21 86 74.5 32.5 c 128,-1,40
 128 -21 128 -21 204 -21 c 256,41,42
 280 -21 280 -21 334 32.5 c 128,-1,43
 388 86 388 86 388 162 c 0,44,45
 388 239 388 239 332.5 291 c 128,-1,46
 277 343 277 343 199 338 c 0,47,48
 145 333 145 333 105 374 c 128,-1,49
 65 415 65 415 65 471 c 0,0,1
EndSplineSet
EndChar

StartChar: T
Encoding: 84 84 55
Width: 476
Flags: W
LayerCount: 2
Back
Fore
SplineSet
255 0 m 1,0,-1
 154 0 l 1,1,-1
 154 50 l 1,2,-1
 204 50 l 1,3,-1
 204 584 l 1,4,-1
 90 584 l 1,5,6
 99 564 99 564 99 542 c 0,7,8
 99 510 99 510 81 488 c 128,-1,9
 63 466 63 466 28 466 c 1,10,-1
 28 516 l 1,11,12
 49 516 49 516 49 541 c 0,13,14
 49 556 49 556 41 570 c 128,-1,15
 33 584 33 584 22 584 c 1,16,-1
 22 634 l 1,17,-1
 437 634 l 1,18,-1
 437 584 l 1,19,20
 427 584 427 584 419.5 571 c 128,-1,21
 412 558 412 558 412 543 c 0,22,23
 412 516 412 516 434 516 c 1,24,-1
 434 466 l 1,25,26
 399 466 399 466 380 490 c 0,27,28
 362 511 362 511 362 543 c 0,29,30
 362 565 362 565 370 584 c 1,31,-1
 255 584 l 1,32,-1
 255 0 l 1,0,-1
EndSplineSet
EndChar

StartChar: U
Encoding: 85 85 56
Width: 453
Flags: W
LayerCount: 2
Back
Fore
SplineSet
225 -10 m 0,0,1
 315 -10 315 -10 356 43.5 c 128,-1,2
 397 97 397 97 397 218 c 0,3,4
 397 430 397 430 342 532 c 1,5,-1
 403 593 l 1,6,-1
 367 628 l 1,7,-1
 212 472 l 1,8,-1
 247 437 l 1,9,-1
 300 489 l 1,10,11
 346 387 346 387 346 217 c 0,12,13
 346 105 346 105 311 67 c 0,14,15
 286 39 286 39 224 39 c 256,16,17
 162 39 162 39 137 66 c 0,18,19
 103 104 103 104 103 216 c 2,20,-1
 103 570 l 1,21,-1
 152 570 l 1,22,-1
 152 621 l 1,23,-1
 45 621 l 1,24,-1
 45 213 l 2,25,26
 45 93 45 93 89 41.5 c 128,-1,27
 133 -10 133 -10 225 -10 c 0,0,1
EndSplineSet
EndChar

StartChar: V
Encoding: 86 86 57
Width: 595
Flags: W
LayerCount: 2
Back
Fore
SplineSet
101 579 m 1,0,-1
 182 579 l 1,1,-1
 182 632 l 1,2,-1
 18 632 l 1,3,-1
 285 0 l 1,4,-1
 351 0 l 1,5,-1
 322 66 l 1,6,7
 335 49 335 49 353 36 c 1,8,-1
 383 75 l 1,9,10
 344 105 344 105 344 166 c 0,11,12
 344 254 344 254 451 451 c 0,13,14
 486 512 486 512 552 632 c 1,15,-1
 484 632 l 1,16,17
 380 440 380 440 319 308 c 0,18,19
 291 248 291 248 291 181 c 0,20,21
 291 153 291 153 296 126 c 1,22,-1
 101 579 l 1,0,-1
EndSplineSet
EndChar

StartChar: W
Encoding: 87 87 58
Width: 848
Flags: W
LayerCount: 2
Back
Fore
SplineSet
318 308 m 0,0,1
 291 247 291 247 291 180 c 0,2,3
 291 152 291 152 296 126 c 1,4,-1
 101 579 l 1,5,-1
 181 579 l 1,6,-1
 181 632 l 1,7,-1
 17 632 l 1,8,-1
 284 0 l 1,9,-1
 350 0 l 1,10,-1
 321 66 l 1,11,12
 335 49 335 49 352 36 c 1,13,-1
 382 75 l 1,14,15
 341 107 341 107 341 170 c 0,16,17
 341 241 341 241 392 342 c 1,18,-1
 536 0 l 1,19,-1
 603 0 l 1,20,-1
 574 67 l 1,21,22
 587 49 587 49 604 36 c 1,23,-1
 635 76 l 1,24,25
 596 105 596 105 596 166 c 0,26,27
 596 255 596 255 702 451 c 0,28,29
 737 513 737 513 804 632 c 1,30,-1
 736 632 l 1,31,32
 632 441 632 441 571 309 c 0,33,34
 543 249 543 249 543 181 c 0,35,36
 543 153 543 153 548 126 c 1,37,-1
 353 580 l 1,38,-1
 434 580 l 1,39,-1
 434 632 l 1,40,-1
 269 632 l 1,41,-1
 368 400 l 1,42,43
 338 353 338 353 318 308 c 0,0,1
EndSplineSet
EndChar

StartChar: X
Encoding: 88 88 59
Width: 553
Flags: W
LayerCount: 2
Back
Fore
SplineSet
79 585 m 1,0,-1
 164 585 l 1,1,-1
 164 635 l 1,2,-1
 25 635 l 1,3,4
 19 524 19 524 64 427 c 0,5,6
 120 309 120 309 228 300 c 1,7,-1
 44 0 l 1,8,-1
 104 0 l 1,9,-1
 278 286 l 1,10,11
 351 291 351 291 405 217 c 0,12,13
 456 146 456 146 457 50 c 1,14,-1
 372 50 l 1,15,-1
 372 0 l 1,16,-1
 511 0 l 1,17,18
 518 112 518 112 472 208 c 0,19,20
 416 327 416 327 308 336 c 1,21,-1
 492 635 l 1,22,-1
 432 635 l 1,23,-1
 259 350 l 1,24,25
 185 345 185 345 133 417 c 128,-1,26
 81 489 81 489 79 585 c 1,0,-1
EndSplineSet
EndChar

StartChar: Y
Encoding: 89 89 60
Width: 506
Flags: W
LayerCount: 2
Back
Fore
SplineSet
256 0 m 1,0,-1
 155 0 l 1,1,-1
 155 52 l 1,2,-1
 206 52 l 1,3,-1
 206 301 l 1,4,5
 98 310 98 310 39 428 c 0,6,7
 -10 525 -10 525 -3 635 c 1,8,-1
 135 635 l 1,9,-1
 135 585 l 1,10,-1
 50 585 l 1,11,12
 52 489 52 489 103 418 c 0,13,14
 157 344 157 344 230 350 c 1,15,-1
 404 635 l 1,16,-1
 463 635 l 1,17,-1
 256 303 l 1,18,-1
 256 0 l 1,0,-1
EndSplineSet
EndChar

StartChar: Z
Encoding: 90 90 61
Width: 578
Flags: W
LayerCount: 2
Back
Fore
SplineSet
117 674 m 1,0,-1
 117 598 l 1,1,-1
 533 598 l 1,2,-1
 558 573 l 1,3,-1
 558 319 l 1,4,-1
 523 296 l 1,5,6
 417 346 417 346 320 346 c 0,7,8
 224 346 224 346 151 296 c 0,9,10
 69 239 69 239 69 146 c 0,11,12
 69 96 69 96 97 50 c 1,13,-1
 559 50 l 1,14,-1
 559 0 l 1,15,-1
 84 0 l 1,16,-1
 63 11 l 1,17,18
 19 74 19 74 19 146 c 0,19,20
 19 260 19 260 115 331 c 0,21,22
 202 396 202 396 320 396 c 0,23,24
 411 396 411 396 508 357 c 1,25,-1
 508 548 l 1,26,-1
 92 548 l 1,27,-1
 67 573 l 1,28,-1
 67 674 l 1,29,-1
 117 674 l 1,0,-1
EndSplineSet
EndChar

StartChar: bracketleft
Encoding: 91 91 62
Width: 178
Flags: W
LayerCount: 2
Back
Fore
SplineSet
126 679 m 1,0,-1
 12 678 l 1,1,-1
 12 -49 l 1,2,-1
 126 -49 l 1,3,-1
 126 1 l 1,4,-1
 62 1 l 1,5,-1
 62 629 l 1,6,-1
 126 629 l 1,7,-1
 126 679 l 1,0,-1
EndSplineSet
EndChar

StartChar: backslash
Encoding: 92 92 63
Width: 358
Flags: W
LayerCount: 2
Back
Fore
SplineSet
51 641 m 1,0,-1
 334 1 l 1,1,-1
 288 1 l 1,2,-1
 5 641 l 1,3,-1
 51 641 l 1,0,-1
EndSplineSet
EndChar

StartChar: bracketright
Encoding: 93 93 64
Width: 197
Flags: W
LayerCount: 2
Back
Fore
SplineSet
22 679 m 1,0,-1
 136 678 l 1,1,-1
 136 -49 l 1,2,-1
 22 -49 l 1,3,-1
 22 1 l 1,4,-1
 86 1 l 1,5,-1
 86 629 l 1,6,-1
 22 629 l 1,7,-1
 22 679 l 1,0,-1
EndSplineSet
EndChar

StartChar: asciicircum
Encoding: 94 94 65
Width: 481
Flags: W
LayerCount: 2
Back
Fore
SplineSet
11 388 m 1,0,-1
 233 610 l 1,1,-1
 455 388 l 1,2,-1
 420 352 l 1,3,-1
 233 539 l 1,4,-1
 46 352 l 1,5,-1
 11 388 l 1,0,-1
EndSplineSet
EndChar

StartChar: underscore
Encoding: 95 95 66
Width: 430
Flags: W
LayerCount: 2
Back
Fore
SplineSet
-1 -1 m 1,0,-1
 368 -1 l 1,1,-1
 368 -51 l 1,2,-1
 -1 -51 l 1,3,-1
 -1 -1 l 1,0,-1
EndSplineSet
EndChar

StartChar: grave
Encoding: 96 96 67
Width: 147
Flags: W
LayerCount: 2
Back
Fore
SplineSet
77 734 m 1,0,-1
 77 706 l 1,1,-1
 158 668 l 1,2,-1
 141 632 l 1,3,-1
 37 681 l 1,4,-1
 37 734 l 1,5,-1
 77 734 l 1,0,-1
EndSplineSet
EndChar

StartChar: a
Encoding: 97 97 68
Width: 480
Flags: W
LayerCount: 2
Back
Fore
SplineSet
427 0 m 1,0,-1
 327 0 l 1,1,-1
 327 36 l 1,2,3
 273 -21 273 -21 195 -21 c 0,4,5
 118 -21 118 -21 64.5 32.5 c 128,-1,6
 11 86 11 86 11 162 c 256,7,8
 11 238 11 238 64.5 292 c 128,-1,9
 118 346 118 346 195 346 c 0,10,11
 273 346 273 346 327 289 c 1,12,-1
 327 361 l 1,13,-1
 427 361 l 1,14,-1
 427 311 l 1,15,-1
 377 311 l 1,16,-1
 377 50 l 1,17,-1
 427 50 l 1,18,-1
 427 0 l 1,0,-1
328 162 m 256,19,20
 328 217 328 217 289 256.5 c 128,-1,21
 250 296 250 296 195 296 c 0,22,23
 139 296 139 296 100 256.5 c 128,-1,24
 61 217 61 217 61 162 c 256,25,26
 61 107 61 107 100 68 c 128,-1,27
 139 29 139 29 195 29 c 0,28,29
 250 29 250 29 289 68 c 128,-1,30
 328 107 328 107 328 162 c 256,19,20
EndSplineSet
EndChar

StartChar: b
Encoding: 98 98 69
Width: 455
Flags: W
LayerCount: 2
Back
Fore
SplineSet
438 162 m 256,0,1
 438 86 438 86 384 32 c 128,-1,2
 330 -22 330 -22 254 -22 c 256,3,4
 178 -22 178 -22 122 36 c 1,5,-1
 122 0 l 1,6,-1
 22 0 l 1,7,-1
 22 50 l 1,8,-1
 72 50 l 1,9,-1
 72 583 l 1,10,-1
 22 583 l 1,11,-1
 22 633 l 1,12,-1
 122 633 l 1,13,-1
 122 289 l 1,14,15
 176 346 176 346 254 346 c 0,16,17
 330 346 330 346 384 292 c 128,-1,18
 438 238 438 238 438 162 c 256,0,1
388 162 m 256,19,20
 388 217 388 217 349 256.5 c 128,-1,21
 310 296 310 296 254 296 c 0,22,23
 199 296 199 296 159.5 256.5 c 128,-1,24
 120 217 120 217 120 162 c 256,25,26
 120 107 120 107 159.5 67.5 c 128,-1,27
 199 28 199 28 254 28 c 0,28,29
 310 28 310 28 349 67.5 c 128,-1,30
 388 107 388 107 388 162 c 256,19,20
EndSplineSet
EndChar

StartChar: c
Encoding: 99 99 70
Width: 434
Flags: W
LayerCount: 2
Back
Fore
SplineSet
219 29 m 0,0,1
 164 29 164 29 125 68 c 128,-1,2
 86 107 86 107 86 162 c 256,3,4
 86 217 86 217 125 256.5 c 128,-1,5
 164 296 164 296 219 296 c 0,6,7
 262 296 262 296 296 272 c 128,-1,8
 330 248 330 248 344 209 c 1,9,-1
 398 209 l 1,10,11
 381 268 381 268 331.5 307 c 128,-1,12
 282 346 282 346 219 346 c 0,13,14
 143 346 143 346 89.5 292 c 128,-1,15
 36 238 36 238 36 162 c 256,16,17
 36 86 36 86 89.5 32.5 c 128,-1,18
 143 -21 143 -21 219 -21 c 0,19,20
 283 -21 283 -21 333.5 17.5 c 128,-1,21
 384 56 384 56 399 117 c 1,22,-1
 343 117 l 1,23,24
 328 78 328 78 294.5 53.5 c 128,-1,25
 261 29 261 29 219 29 c 0,0,1
EndSplineSet
EndChar

StartChar: d
Encoding: 100 100 71
Width: 471
Flags: W
LayerCount: 2
Back
Fore
SplineSet
427 0 m 1,0,-1
 327 0 l 1,1,-1
 327 35 l 1,2,3
 273 -21 273 -21 195 -21 c 0,4,5
 118 -21 118 -21 64.5 32.5 c 128,-1,6
 11 86 11 86 11 162 c 256,7,8
 11 238 11 238 64.5 292 c 128,-1,9
 118 346 118 346 195 346 c 0,10,11
 274 346 274 346 327 290 c 1,12,-1
 327 633 l 1,13,-1
 427 633 l 1,14,-1
 427 583 l 1,15,-1
 377 583 l 1,16,-1
 377 50 l 1,17,-1
 427 50 l 1,18,-1
 427 0 l 1,0,-1
328 162 m 256,19,20
 328 217 328 217 289 256.5 c 128,-1,21
 250 296 250 296 195 296 c 0,22,23
 139 296 139 296 100 256.5 c 128,-1,24
 61 217 61 217 61 162 c 256,25,26
 61 107 61 107 100 68 c 128,-1,27
 139 29 139 29 195 29 c 0,28,29
 250 29 250 29 289 68 c 128,-1,30
 328 107 328 107 328 162 c 256,19,20
EndSplineSet
EndChar

StartChar: e
Encoding: 101 101 72
Width: 430
Flags: W
LayerCount: 2
Back
Fore
SplineSet
205 29 m 0,0,1
 150 29 150 29 110.5 68 c 128,-1,2
 71 107 71 107 71 162 c 256,3,4
 71 217 71 217 110.5 256.5 c 128,-1,5
 150 296 150 296 205 296 c 0,6,7
 253 296 253 296 289.5 266 c 128,-1,8
 326 236 326 236 335 190 c 1,9,-1
 100 189 l 1,10,-1
 97 163 l 2,11,12
 94 139 94 139 110 109 c 0,13,14
 129 76 129 76 161 61 c 1,15,-1
 182 106 l 1,16,17
 164 115 164 115 157 139 c 1,18,-1
 388 139 l 1,19,-1
 389 162 l 2,20,21
 389 238 389 238 335 292 c 128,-1,22
 281 346 281 346 205 346 c 256,23,24
 129 346 129 346 75 292 c 128,-1,25
 21 238 21 238 21 162 c 256,26,27
 21 86 21 86 75 32.5 c 128,-1,28
 129 -21 129 -21 205 -21 c 0,29,30
 262 -21 262 -21 308.5 11 c 128,-1,31
 355 43 355 43 375 94 c 0,32,33
 378 95 378 95 315 95 c 1,34,35
 277 29 277 29 205 29 c 0,0,1
EndSplineSet
EndChar

StartChar: f
Encoding: 102 102 73
Width: 351
Flags: W
LayerCount: 2
Back
Fore
SplineSet
141 332 m 1,0,-1
 253 332 l 1,1,2
 235 300 235 300 235 278 c 0,3,4
 235 247 235 247 263 247 c 0,5,6
 277 247 277 247 284 256 c 1,7,-1
 324 226 l 1,8,9
 302 197 302 197 264 197 c 0,10,11
 230 197 230 197 205.5 220.5 c 128,-1,12
 181 244 181 244 183 282 c 1,13,-1
 141 282 l 1,14,-1
 141 0 l 1,15,-1
 38 0 l 1,16,-1
 38 50 l 1,17,-1
 89 50 l 1,18,-1
 89 282 l 1,19,-1
 38 282 l 1,20,-1
 38 331 l 1,21,-1
 89 332 l 1,22,-1
 89 528 l 2,23,24
 89 573 89 573 122.5 606 c 128,-1,25
 156 639 156 639 202 639 c 0,26,27
 247 639 247 639 279.5 607 c 128,-1,28
 312 575 312 575 312 529 c 1,29,-1
 262 529 l 1,30,31
 262 554 262 554 244.5 571.5 c 128,-1,32
 227 589 227 589 202 589 c 256,33,34
 177 589 177 589 159 571.5 c 128,-1,35
 141 554 141 554 141 529 c 2,36,-1
 141 332 l 1,0,-1
EndSplineSet
EndChar

StartChar: g
Encoding: 103 103 74
Width: 478
Flags: W
LayerCount: 2
Back
Fore
SplineSet
441 367 m 1,0,-1
 441 234 l 1,1,-1
 379 235 l 1,2,3
 394 199 394 199 394 162 c 0,4,5
 394 86 394 86 340.5 32.5 c 128,-1,6
 287 -21 287 -21 211 -21 c 0,7,8
 179 -21 179 -21 148 -10 c 1,9,-1
 148 -49 l 1,10,11
 173 -43 173 -43 207 -43 c 0,12,13
 285 -43 285 -43 343 -80 c 0,14,15
 405 -120 405 -120 405 -181 c 256,16,17
 405 -242 405 -242 343 -281 c 0,18,19
 285 -318 285 -318 207 -318 c 0,20,21
 146 -318 146 -318 98 -297 c 1,22,-1
 98 -239 l 1,23,24
 142 -268 142 -268 207 -268 c 256,25,26
 272 -268 272 -268 316 -239 c 0,27,28
 355 -213 355 -213 355 -181 c 256,29,30
 355 -149 355 -149 316 -122 c 0,31,32
 272 -93 272 -93 207 -93 c 256,33,34
 142 -93 142 -93 98 -121 c 1,35,-1
 98 17 l 1,36,37
 27 72 27 72 27 162 c 0,38,39
 27 238 27 238 81 292 c 128,-1,40
 135 346 135 346 211 346 c 0,41,42
 292 346 292 346 347 285 c 1,43,-1
 391 285 l 1,44,-1
 391 366 l 1,45,-1
 441 367 l 1,0,-1
344 162 m 256,46,47
 344 217 344 217 305 256.5 c 128,-1,48
 266 296 266 296 211 296 c 256,49,50
 156 296 156 296 116.5 256.5 c 128,-1,51
 77 217 77 217 77 162 c 256,52,53
 77 107 77 107 116.5 68 c 128,-1,54
 156 29 156 29 211 29 c 256,55,56
 266 29 266 29 305 68 c 128,-1,57
 344 107 344 107 344 162 c 256,46,47
EndSplineSet
EndChar

StartChar: h
Encoding: 104 104 75
Width: 453
Flags: W
LayerCount: 2
Back
Fore
SplineSet
254 346 m 0,0,1
 330 346 330 346 384 292 c 128,-1,2
 438 238 438 238 438 162 c 0,3,4
 438 114 438 114 408 67 c 128,-1,5
 378 20 378 20 336 -5 c 1,6,-1
 373 -71 l 1,7,-1
 331 -100 l 1,8,-1
 270 4 l 1,9,10
 332 49 332 49 350 68 c 0,11,12
 388 110 388 110 388 162 c 0,13,14
 388 217 388 217 349 256.5 c 128,-1,15
 310 296 310 296 254 296 c 0,16,17
 204 296 204 296 166.5 262.5 c 128,-1,18
 129 229 129 229 122 180 c 1,19,-1
 122 0 l 1,20,-1
 22 0 l 1,21,-1
 22 50 l 1,22,-1
 72 50 l 1,23,-1
 72 583 l 1,24,-1
 22 583 l 1,25,-1
 22 633 l 1,26,-1
 122 633 l 1,27,-1
 122 289 l 1,28,29
 177 346 177 346 254 346 c 0,0,1
EndSplineSet
EndChar

StartChar: i
Encoding: 105 105 76
Width: 255
Flags: W
LayerCount: 2
Back
Fore
SplineSet
98 361 m 1,0,-1
 198 361 l 1,1,-1
 198 311 l 1,2,-1
 148 311 l 1,3,-1
 148 49 l 1,4,-1
 198 49 l 1,5,-1
 198 0 l 1,6,-1
 47 0 l 1,7,-1
 47 49 l 1,8,-1
 98 49 l 1,9,-1
 98 361 l 1,0,-1
72 433 m 256,10,11
 72 458 72 458 90.5 476 c 128,-1,12
 109 494 109 494 135 494 c 256,13,14
 161 494 161 494 179.5 476 c 128,-1,15
 198 458 198 458 198 433 c 256,16,17
 198 408 198 408 179.5 390.5 c 128,-1,18
 161 373 161 373 135 373 c 256,19,20
 109 373 109 373 90.5 390.5 c 128,-1,21
 72 408 72 408 72 433 c 256,10,11
EndSplineSet
EndChar

StartChar: j
Encoding: 106 106 77
Width: 300
Flags: W
LayerCount: 2
Back
Fore
SplineSet
212 -200 m 1,0,-1
 212 311 l 1,1,-1
 262 311 l 1,2,-1
 262 361 l 1,3,-1
 162 361 l 1,4,-1
 162 -145 l 1,5,6
 130 -144 130 -144 110.5 -121.5 c 128,-1,7
 91 -99 91 -99 91 -65 c 0,8,9
 91 -28 91 -28 115 11 c 1,10,-1
 72 37 l 1,11,12
 42 -13 42 -13 42 -72 c 0,13,14
 42 -125 42 -125 68 -159 c 0,15,16
 99 -198 99 -198 157 -200 c 2,17,-1
 212 -200 l 1,0,-1
136 433 m 256,18,19
 136 458 136 458 154.5 476 c 128,-1,20
 173 494 173 494 199 494 c 256,21,22
 225 494 225 494 243.5 476 c 128,-1,23
 262 458 262 458 262 433 c 256,24,25
 262 408 262 408 243.5 390.5 c 128,-1,26
 225 373 225 373 199 373 c 256,27,28
 173 373 173 373 154.5 390.5 c 128,-1,29
 136 408 136 408 136 433 c 256,18,19
EndSplineSet
EndChar

StartChar: k
Encoding: 107 107 78
Width: 367
Flags: W
LayerCount: 2
Back
Fore
SplineSet
269 293 m 2,0,-1
 305 329 l 1,1,-1
 270 364 l 1,2,-1
 137 231 l 1,3,-1
 137 633 l 1,4,-1
 37 633 l 1,5,-1
 37 583 l 1,6,-1
 87 583 l 1,7,-1
 87 49 l 1,8,-1
 37 50 l 1,9,-1
 37 0 l 1,10,-1
 137 0 l 1,11,-1
 137 161 l 1,12,-1
 180 203 l 1,13,14
 175 178 175 178 175 156 c 0,15,16
 175 69 175 69 253 1 c 1,17,-1
 329 1 l 1,18,-1
 329 51 l 1,19,-1
 274 51 l 1,20,21
 217 113 217 113 217 180 c 0,22,23
 217 242 217 242 269 293 c 2,0,-1
EndSplineSet
EndChar

StartChar: l
Encoding: 108 108 79
Width: 204
Flags: W
LayerCount: 2
Back
Fore
SplineSet
127 633 m 1,0,-1
 27 633 l 1,1,-1
 27 583 l 1,2,-1
 77 583 l 1,3,-1
 77 50 l 1,4,-1
 26 50 l 1,5,-1
 26 0 l 1,6,-1
 176 0 l 1,7,-1
 176 50 l 1,8,-1
 127 50 l 1,9,-1
 127 633 l 1,0,-1
EndSplineSet
EndChar

StartChar: m
Encoding: 109 109 80
Width: 751
Flags: W
LayerCount: 2
Back
Fore
SplineSet
442 162 m 0,0,1
 442 114 442 114 411.5 67 c 128,-1,2
 381 20 381 20 339 -5 c 1,3,-1
 377 -71 l 1,4,-1
 334 -100 l 1,5,-1
 273 4 l 1,6,-1
 325 41 l 2,7,8
 352 59 352 59 372 93.5 c 128,-1,9
 392 128 392 128 392 162 c 0,10,11
 392 217 392 217 352.5 256.5 c 128,-1,12
 313 296 313 296 258 296 c 0,13,14
 209 296 209 296 169.5 259.5 c 128,-1,15
 130 223 130 223 126 180 c 1,16,-1
 126 0 l 1,17,-1
 25 0 l 1,18,-1
 25 50 l 1,19,-1
 75 50 l 1,20,-1
 75 314 l 1,21,-1
 26 314 l 1,22,-1
 26 364 l 1,23,-1
 126 364 l 1,24,-1
 126 289 l 1,25,26
 175 346 175 346 258 346 c 0,27,28
 343 346 343 346 398 281 c 1,29,30
 446 348 446 348 537 348 c 0,31,32
 613 348 613 348 666.5 294 c 128,-1,33
 720 240 720 240 720 164 c 0,34,35
 720 116 720 116 690 69 c 128,-1,36
 660 22 660 22 618 -3 c 1,37,-1
 655 -69 l 1,38,-1
 613 -97 l 1,39,-1
 552 6 l 1,40,-1
 603 43 l 2,41,42
 631 61 631 61 650.5 95.5 c 128,-1,43
 670 130 670 130 670 164 c 0,44,45
 670 219 670 219 631 258.5 c 128,-1,46
 592 298 592 298 537 298 c 0,47,48
 466 298 466 298 426 239 c 1,49,50
 442 205 442 205 442 162 c 0,0,1
EndSplineSet
EndChar

StartChar: n
Encoding: 110 110 81
Width: 471
Flags: W
LayerCount: 2
Back
Fore
SplineSet
254 346 m 0,0,1
 330 346 330 346 384 292 c 128,-1,2
 438 238 438 238 438 162 c 0,3,4
 438 114 438 114 408 67 c 128,-1,5
 378 20 378 20 336 -5 c 1,6,-1
 373 -71 l 1,7,-1
 331 -100 l 1,8,-1
 270 4 l 1,9,-1
 321 41 l 2,10,11
 348 59 348 59 368 93.5 c 128,-1,12
 388 128 388 128 388 162 c 0,13,14
 388 217 388 217 349 256.5 c 128,-1,15
 310 296 310 296 254 296 c 0,16,17
 204 296 204 296 166.5 262.5 c 128,-1,18
 129 229 129 229 122 180 c 1,19,-1
 122 0 l 1,20,-1
 22 0 l 1,21,-1
 22 50 l 1,22,-1
 72 50 l 1,23,-1
 71 314 l 1,24,-1
 22 314 l 1,25,-1
 22 364 l 1,26,-1
 122 364 l 1,27,-1
 122 289 l 1,28,29
 177 346 177 346 254 346 c 0,0,1
EndSplineSet
EndChar

StartChar: o
Encoding: 111 111 82
Width: 433
Flags: W
LayerCount: 2
Back
Fore
SplineSet
206 346 m 256,0,1
 282 346 282 346 336 292 c 128,-1,2
 390 238 390 238 390 162 c 256,3,4
 390 86 390 86 336 32.5 c 128,-1,5
 282 -21 282 -21 206 -21 c 256,6,7
 130 -21 130 -21 76 32.5 c 128,-1,8
 22 86 22 86 22 162 c 256,9,10
 22 238 22 238 76 292 c 128,-1,11
 130 346 130 346 206 346 c 256,0,1
206 296 m 256,12,13
 151 296 151 296 111.5 256.5 c 128,-1,14
 72 217 72 217 72 162 c 256,15,16
 72 107 72 107 111.5 68 c 128,-1,17
 151 29 151 29 206 29 c 256,18,19
 261 29 261 29 300.5 68 c 128,-1,20
 340 107 340 107 340 162 c 256,21,22
 340 217 340 217 300.5 256.5 c 128,-1,23
 261 296 261 296 206 296 c 256,12,13
EndSplineSet
EndChar

StartChar: p
Encoding: 112 112 83
Width: 466
Flags: W
LayerCount: 2
Back
Fore
SplineSet
437 162 m 256,0,1
 437 86 437 86 383.5 32 c 128,-1,2
 330 -22 330 -22 254 -22 c 0,3,4
 176 -22 176 -22 123 33 c 1,5,-1
 123 -271 l 1,6,-1
 22 -271 l 1,7,-1
 22 -221 l 1,8,-1
 72 -221 l 1,9,-1
 72 312 l 1,10,-1
 23 312 l 1,11,-1
 23 362 l 1,12,-1
 123 362 l 1,13,-1
 123 291 l 1,14,15
 177 346 177 346 254 346 c 0,16,17
 330 346 330 346 383.5 292 c 128,-1,18
 437 238 437 238 437 162 c 256,0,1
387 162 m 256,19,20
 387 217 387 217 348 256.5 c 128,-1,21
 309 296 309 296 254 296 c 0,22,23
 205 296 205 296 168 264.5 c 128,-1,24
 131 233 131 233 123 186 c 1,25,-1
 123 136 l 1,26,27
 132 90 132 90 169 59 c 128,-1,28
 206 28 206 28 254 28 c 0,29,30
 309 28 309 28 348 67.5 c 128,-1,31
 387 107 387 107 387 162 c 256,19,20
EndSplineSet
EndChar

StartChar: q
Encoding: 113 113 84
Width: 474
Flags: W
LayerCount: 2
Back
Fore
SplineSet
437 -271 m 1,0,-1
 337 -271 l 1,1,-1
 337 33 l 1,2,3
 283 -22 283 -22 206 -22 c 0,4,5
 130 -22 130 -22 76 32 c 128,-1,6
 22 86 22 86 22 162 c 256,7,8
 22 238 22 238 76 292 c 128,-1,9
 130 346 130 346 206 346 c 256,10,11
 282 346 282 346 337 291 c 1,12,-1
 337 362 l 1,13,-1
 437 362 l 1,14,-1
 437 312 l 1,15,-1
 387 312 l 1,16,-1
 387 -221 l 1,17,-1
 437 -221 l 1,18,-1
 437 -271 l 1,0,-1
337 186 m 1,19,20
 328 233 328 233 291 264.5 c 128,-1,21
 254 296 254 296 206 296 c 0,22,23
 150 296 150 296 111 256.5 c 128,-1,24
 72 217 72 217 72 162 c 256,25,26
 72 107 72 107 111 67.5 c 128,-1,27
 150 28 150 28 206 28 c 0,28,29
 254 28 254 28 291 59 c 128,-1,30
 328 90 328 90 337 136 c 1,31,-1
 337 186 l 1,19,20
EndSplineSet
EndChar

StartChar: r
Encoding: 114 114 85
Width: 409
Flags: W
LayerCount: 2
Back
Fore
SplineSet
248 346 m 0,0,1
 171 346 171 346 116 289 c 1,2,-1
 116 364 l 1,3,-1
 16 364 l 1,4,-1
 16 314 l 1,5,-1
 65 314 l 1,6,-1
 66 50 l 1,7,-1
 16 50 l 1,8,-1
 16 0 l 1,9,-1
 116 0 l 1,10,-1
 116 180 l 1,11,12
 123 229 123 229 160.5 262.5 c 128,-1,13
 198 296 198 296 248 296 c 0,14,15
 288 296 288 296 322 274 c 1,16,-1
 311 263 l 1,17,-1
 346 228 l 1,18,-1
 405 286 l 1,19,-1
 369 321 l 1,20,-1
 357 309 l 1,21,22
 307 346 307 346 248 346 c 0,0,1
EndSplineSet
EndChar

StartChar: s
Encoding: 115 115 86
Width: 421
Flags: W
LayerCount: 2
Back
Fore
SplineSet
343 312 m 1,0,-1
 343 412 l 1,1,-1
 292 412 l 1,2,-1
 292 362 l 1,3,-1
 34 362 l 1,4,-1
 34 188 l 1,5,-1
 70 166 l 1,6,7
 137 198 137 198 196 198 c 0,8,9
 254 198 254 198 289 168.5 c 128,-1,10
 324 139 324 139 324 97 c 0,11,12
 324 73 324 73 313 51 c 1,13,-1
 25 51 l 1,14,-1
 25 0 l 1,15,-1
 327 0 l 1,16,-1
 348 12 l 1,17,18
 381 62 381 62 381 107 c 0,19,20
 381 168 381 168 323 206 c 0,21,22
 268 241 268 241 187 241 c 0,23,24
 134 241 134 241 84 225 c 1,25,-1
 84 312 l 1,26,-1
 343 312 l 1,0,-1
EndSplineSet
EndChar

StartChar: t
Encoding: 116 116 87
Width: 317
Flags: W
LayerCount: 2
Back
Fore
SplineSet
168 40 m 1,0,1
 203 42 203 42 233 105 c 1,2,3
 242 95 242 95 276 62 c 1,4,5
 252 -12 252 -12 173 -15 c 2,6,-1
 118 -15 l 1,7,-1
 118 274 l 1,8,-1
 20 274 l 1,9,-1
 20 324 l 1,10,-1
 118 324 l 1,11,-1
 118 362 l 1,12,-1
 68 362 l 1,13,-1
 68 411 l 1,14,-1
 168 412 l 1,15,-1
 168 324 l 1,16,-1
 259 324 l 1,17,-1
 259 274 l 1,18,-1
 168 274 l 1,19,-1
 168 40 l 1,0,1
EndSplineSet
EndChar

StartChar: u
Encoding: 117 117 88
Width: 486
Flags: W
LayerCount: 2
Back
Fore
SplineSet
205 -12 m 0,0,1
 129 -12 129 -12 75 41.5 c 128,-1,2
 21 95 21 95 21 171 c 0,3,4
 21 233 21 233 28 264 c 0,5,6
 38 309 38 309 71 342 c 1,7,-1
 32 406 l 1,8,-1
 75 434 l 1,9,-1
 136 336 l 1,10,11
 107 315 107 315 92 291 c 0,12,13
 69 253 69 253 69 200 c 0,14,15
 69 135 69 135 104 89 c 0,16,17
 142 38 142 38 205 38 c 0,18,19
 253 38 253 38 293 87 c 0,20,21
 331 132 331 132 338 185 c 1,22,-1
 338 365 l 1,23,-1
 438 365 l 1,24,-1
 438 315 l 1,25,-1
 388 315 l 1,26,-1
 388 50 l 1,27,-1
 438 50 l 1,28,-1
 438 0 l 1,29,-1
 338 0 l 1,30,-1
 338 76 l 1,31,32
 320 36 320 36 282.5 12 c 128,-1,33
 245 -12 245 -12 205 -12 c 0,0,1
EndSplineSet
EndChar

StartChar: v
Encoding: 118 118 89
Width: 400
Flags: W
LayerCount: 2
Back
Fore
SplineSet
295 271 m 0,0,1
 300 249 300 249 300 225 c 0,2,3
 300 187 300 187 286 150 c 0,4,5
 269 104 269 104 228.5 76 c 128,-1,6
 188 48 188 48 138 48 c 1,7,-1
 138 359 l 1,8,-1
 39 360 l 1,9,-1
 39 309 l 1,10,-1
 89 309 l 1,11,-1
 88 0 l 1,12,-1
 138 0 l 2,13,14
 206 0 206 0 262.5 37.5 c 128,-1,15
 319 75 319 75 335 138 c 0,16,17
 347 187 347 187 347 235 c 0,18,19
 347 303 347 303 321 347 c 1,20,-1
 357 416 l 1,21,-1
 315 444 l 1,22,-1
 262 349 l 1,23,24
 279 331 279 331 287 305 c 0,25,26
 291 288 291 288 295 271 c 0,0,1
EndSplineSet
EndChar

StartChar: w
Encoding: 119 119 90
Width: 768
Flags: W
LayerCount: 2
Back
Fore
SplineSet
125 159 m 1,0,1
 129 115 129 115 169 79 c 128,-1,2
 209 43 209 43 258 43 c 0,3,4
 313 43 313 43 352 82 c 128,-1,5
 391 121 391 121 391 177 c 0,6,7
 391 211 391 211 371.5 245.5 c 128,-1,8
 352 280 352 280 324 298 c 2,9,-1
 273 334 l 1,10,-1
 334 438 l 1,11,-1
 376 410 l 1,12,-1
 339 344 l 1,13,14
 381 318 381 318 410 273 c 0,15,16
 441 225 441 225 441 177 c 0,17,18
 441 133 441 133 426 100 c 1,19,20
 465 41 465 41 536 41 c 0,21,22
 591 41 591 41 630.5 80 c 128,-1,23
 670 119 670 119 670 175 c 0,24,25
 670 209 670 209 650 243 c 128,-1,26
 630 277 630 277 603 295 c 2,27,-1
 551 332 l 1,28,-1
 612 436 l 1,29,-1
 655 408 l 1,30,-1
 617 342 l 1,31,32
 659 316 659 316 688 271 c 0,33,34
 720 222 720 222 720 175 c 0,35,36
 720 99 720 99 666 45 c 128,-1,37
 612 -9 612 -9 536 -9 c 0,38,39
 445 -9 445 -9 397 57 c 1,40,41
 342 -7 342 -7 258 -7 c 0,42,43
 185 -7 185 -7 125 50 c 0,44,45
 74 100 74 100 74 142 c 2,46,-1
 74 312 l 1,47,-1
 27 312 l 1,48,-1
 27 362 l 1,49,-1
 125 362 l 1,50,-1
 125 159 l 1,0,1
EndSplineSet
EndChar

StartChar: x
Encoding: 120 120 91
Width: 434
Flags: W
LayerCount: 2
Back
Fore
SplineSet
84 308 m 1,0,-1
 134 308 l 1,1,-1
 134 358 l 1,2,-1
 27 358 l 1,3,4
 29 182 29 182 163 161 c 1,5,-1
 36 0 l 1,6,-1
 100 0 l 1,7,-1
 222 157 l 1,8,9
 322 146 322 146 336 50 c 1,10,-1
 288 50 l 1,11,-1
 288 0 l 1,12,-1
 388 0 l 1,13,14
 388 170 388 170 258 202 c 1,15,-1
 381 358 l 1,16,-1
 317 358 l 1,17,-1
 200 209 l 1,18,19
 141 209 141 209 114 235 c 0,20,21
 91 258 91 258 84 308 c 1,0,-1
EndSplineSet
EndChar

StartChar: y
Encoding: 121 121 92
Width: 461
Flags: W
LayerCount: 2
Back
Fore
SplineSet
238 -32 m 0,0,1
 159 -32 159 -32 102 -69 c 0,2,3
 40 -109 40 -109 40 -170 c 256,4,5
 40 -231 40 -231 102 -270 c 0,6,7
 159 -307 159 -307 238 -307 c 0,8,9
 300 -307 300 -307 352 -282 c 1,10,-1
 327 -239 l 1,11,12
 288 -257 288 -257 238 -257 c 0,13,14
 172 -257 172 -257 129 -228 c 0,15,16
 90 -202 90 -202 90 -170 c 0,17,18
 90 -137 90 -137 129 -111 c 0,19,20
 172 -82 172 -82 238 -82 c 0,21,22
 319 -82 319 -82 364 -126 c 1,23,-1
 399 -126 l 1,24,-1
 399 298 l 1,25,-1
 449 298 l 1,26,-1
 449 348 l 1,27,-1
 348 348 l 1,28,-1
 348 185 l 1,29,30
 341 132 341 132 304 87 c 0,31,32
 263 38 263 38 215 38 c 0,33,34
 162 38 162 38 124 78 c 0,35,36
 88 115 88 115 82 171 c 0,37,38
 74 238 74 238 95 274 c 0,39,40
 110 298 110 298 139 319 c 1,41,-1
 78 417 l 1,42,-1
 36 389 l 1,43,-1
 74 325 l 1,44,45
 32 277 32 277 32 171 c 0,46,47
 32 95 32 95 85.5 41.5 c 128,-1,48
 139 -12 139 -12 215 -12 c 0,49,50
 256 -12 256 -12 293 12 c 128,-1,51
 330 36 330 36 348 76 c 1,52,-1
 348 -55 l 1,53,54
 298 -32 298 -32 238 -32 c 0,0,1
EndSplineSet
EndChar

StartChar: z
Encoding: 122 122 93
Width: 409
Flags: W
LayerCount: 2
Back
Fore
SplineSet
54 312 m 1,0,-1
 54 412 l 1,1,-1
 105 412 l 1,2,-1
 105 362 l 1,3,-1
 363 362 l 1,4,-1
 363 188 l 1,5,-1
 327 166 l 1,6,7
 260 198 260 198 201 198 c 0,8,9
 143 198 143 198 108 168.5 c 128,-1,10
 73 139 73 139 73 97 c 0,11,12
 73 73 73 73 84 51 c 1,13,-1
 372 51 l 1,14,-1
 372 0 l 1,15,-1
 70 0 l 1,16,-1
 49 12 l 1,17,18
 16 62 16 62 16 107 c 0,19,20
 16 168 16 168 74 206 c 0,21,22
 129 241 129 241 210 241 c 0,23,24
 263 241 263 241 313 225 c 1,25,-1
 313 312 l 1,26,-1
 54 312 l 1,0,-1
EndSplineSet
EndChar

StartChar: braceleft
Encoding: 123 123 94
Width: 228
Flags: W
LayerCount: 2
Back
Fore
SplineSet
90 323 m 1,0,1
 103 298 103 298 103 212 c 2,2,-1
 103 178 l 2,3,4
 103 90 103 90 114 52 c 0,5,6
 131 -6 131 -6 179 -6 c 1,7,-1
 179 -56 l 1,8,9
 101 -56 101 -56 73 14 c 0,10,11
 55 60 55 60 55 161 c 0,12,13
 55 170 55 170 55 187 c 128,-1,14
 55 204 55 204 55 213 c 0,15,16
 55 278 55 278 45 300 c 1,17,18
 50 300 50 300 48 301 c 0,19,20
 32 314 32 314 19 324 c 1,21,22
 33 335 33 335 44 342 c 0,23,24
 52 347 52 347 52 348 c 2,25,26
 52 348 52 348 47 348 c 1,27,28
 51 357 51 357 51 389 c 0,29,30
 52 411 52 411 50 447 c 0,31,32
 49 487 49 487 49 490 c 0,33,34
 49 682 49 682 176 682 c 1,35,-1
 176 632 l 1,36,37
 126 632 126 632 109 582 c 0,38,39
 99 552 99 552 99 490 c 0,40,41
 99 488 99 488 101 437 c 0,42,43
 103 398 103 398 101 373 c 0,44,45
 99 339 99 339 90 323 c 1,0,1
EndSplineSet
EndChar

StartChar: bar
Encoding: 124 124 95
Width: 161
Flags: W
LayerCount: 2
Back
Fore
SplineSet
50 -27 m 1,0,-1
 50 674 l 1,1,-1
 100 674 l 1,2,-1
 100 -27 l 1,3,-1
 50 -27 l 1,0,-1
EndSplineSet
EndChar

StartChar: braceright
Encoding: 125 125 96
Width: 210
Flags: W
LayerCount: 2
Back
Fore
SplineSet
111 323 m 1,0,1
 98 298 98 298 98 212 c 2,2,-1
 98 178 l 2,3,4
 98 90 98 90 87 52 c 0,5,6
 70 -6 70 -6 22 -6 c 1,7,-1
 22 -56 l 1,8,9
 99 -56 99 -56 127 14 c 0,10,11
 146 60 146 60 146 161 c 0,12,13
 146 170 146 170 146 187 c 128,-1,14
 146 204 146 204 146 213 c 0,15,16
 146 278 146 278 155 300 c 1,17,18
 151 300 151 300 152 301 c 0,19,20
 169 314 169 314 181 324 c 1,21,22
 168 335 168 335 158.5 341 c 128,-1,23
 149 347 149 347 149 348 c 2,24,25
 149 348 149 348 154 348 c 1,26,27
 150 357 150 357 149 389 c 0,28,29
 149 411 149 411 150 447 c 0,30,31
 152 487 152 487 152 490 c 0,32,33
 152 682 152 682 25 682 c 1,34,-1
 25 632 l 1,35,36
 75 632 75 632 92 582 c 0,37,38
 102 552 102 552 102 490 c 0,39,40
 102 488 102 488 100 437 c 0,41,42
 98 398 98 398 100 373 c 0,43,44
 102 339 102 339 111 323 c 1,0,1
EndSplineSet
EndChar

StartChar: asciitilde
Encoding: 126 126 97
Width: 484
Flags: W
LayerCount: 2
Back
Fore
SplineSet
11 287 m 1,0,1
 16 333 16 333 56 364 c 128,-1,2
 96 395 96 395 145 395 c 0,3,4
 237 395 237 395 264 293 c 0,5,6
 272 263 272 263 301 244 c 0,7,8
 327 226 327 226 356 226 c 0,9,10
 416 226 416 226 415 287 c 1,11,-1
 465 287 l 1,12,13
 466 233 466 233 434.5 204.5 c 128,-1,14
 403 176 403 176 356 176 c 0,15,16
 310 176 310 176 271 203 c 0,17,18
 229 232 229 232 216 281 c 0,19,20
 198 347 198 347 138 347 c 0,21,22
 109 347 109 347 86.5 330 c 128,-1,23
 64 313 64 313 61 287 c 1,24,-1
 11 287 l 1,0,1
EndSplineSet
EndChar

StartChar: dagger
Encoding: 8224 8224 98
Width: 305
Flags: W
LayerCount: 2
Back
Fore
SplineSet
128 12 m 1,0,-1
 168 12 l 1,1,-1
 168 331 l 1,2,3
 216 338 216 338 248.5 375 c 128,-1,4
 281 412 281 412 281 462 c 1,5,-1
 241 462 l 1,6,7
 241 429 241 429 220.5 404 c 128,-1,8
 200 379 200 379 168 372 c 1,9,-1
 168 514 l 1,10,-1
 128 514 l 1,11,-1
 128 372 l 1,12,13
 97 378 97 378 76.5 403.5 c 128,-1,14
 56 429 56 429 56 462 c 1,15,-1
 16 462 l 1,16,17
 16 413 16 413 48 375.5 c 128,-1,18
 80 338 80 338 128 331 c 1,19,-1
 128 12 l 1,0,-1
EndSplineSet
EndChar

StartChar: cent
Encoding: 162 162 99
Width: 396
Flags: W
LayerCount: 2
Back
Fore
SplineSet
175 206 m 1,0,1
 107 215 107 215 61 267 c 128,-1,2
 15 319 15 319 15 388 c 0,3,4
 15 458 15 458 61 509.5 c 128,-1,5
 107 561 107 561 175 571 c 1,6,-1
 175 633 l 1,7,-1
 225 633 l 1,8,-1
 225 571 l 1,9,10
 279 563 279 563 321 525.5 c 128,-1,11
 363 488 363 488 377 435 c 1,12,-1
 324 435 l 1,13,14
 298 507 298 507 225 520 c 1,15,-1
 225 257 l 1,16,17
 296 271 296 271 322 343 c 1,18,-1
 379 343 l 1,19,20
 366 289 366 289 323 251.5 c 128,-1,21
 280 214 280 214 225 207 c 1,22,-1
 225 173 l 1,23,-1
 278 173 l 1,24,-1
 278 123 l 1,25,-1
 121 123 l 1,26,-1
 121 173 l 1,27,-1
 175 173 l 1,28,-1
 175 206 l 1,0,1
175 519 m 1,29,30
 128 511 128 511 96.5 474 c 128,-1,31
 65 437 65 437 65 388 c 0,32,33
 65 340 65 340 96.5 303 c 128,-1,34
 128 266 128 266 175 257 c 1,35,-1
 175 519 l 1,29,30
EndSplineSet
EndChar

StartChar: sterling
Encoding: 163 163 100
Width: 433
Flags: W
LayerCount: 2
Back
Fore
SplineSet
285 629 m 0,0,1
 200 629 200 629 167 577 c 0,2,3
 143 540 143 540 140 459 c 0,4,5
 136 345 136 345 133 329 c 0,6,7
 107 187 107 187 66 50 c 1,8,-1
 28 50 l 1,9,-1
 28 0 l 1,10,-1
 384 0 l 1,11,-1
 384 50 l 1,12,13
 374 50 374 50 366.5 63 c 128,-1,14
 359 76 359 76 359 91 c 0,15,16
 359 118 359 118 381 118 c 1,17,-1
 381 168 l 1,18,19
 346 168 346 168 327.5 145.5 c 128,-1,20
 309 123 309 123 309 91 c 0,21,22
 309 69 309 69 317 50 c 1,23,-1
 118 50 l 1,24,25
 160 199 160 199 182 320 c 0,26,27
 188 354 188 354 189 418.5 c 128,-1,28
 190 483 190 483 194 508 c 0,29,30
 200 544 200 544 217 560 c 0,31,32
 238 579 238 579 285 579 c 0,33,34
 301 579 301 579 312 559.5 c 128,-1,35
 323 540 323 540 323 516 c 0,36,37
 323 509 323 509 322 503 c 1,38,-1
 293 532 l 1,39,-1
 258 496 l 1,40,-1
 379 378 l 1,41,-1
 414 414 l 1,42,-1
 359 467 l 1,43,44
 369 494 369 494 369 528 c 0,45,46
 369 629 369 629 285 629 c 0,0,1
EndSplineSet
EndChar

StartChar: section
Encoding: 167 167 101
Width: 452
Flags: W
LayerCount: 2
Back
Fore
SplineSet
353 243 m 0,0,1
 353 299 353 299 313 339.5 c 128,-1,2
 273 380 273 380 219 377 c 0,3,4
 127 370 127 370 70 440 c 1,5,6
 68 430 68 430 68 415 c 0,7,8
 68 359 68 359 108 318.5 c 128,-1,9
 148 278 148 278 202 282 c 0,10,11
 294 289 294 289 352 218 c 1,12,13
 353 228 353 228 353 243 c 0,0,1
391 107 m 0,14,15
 391 60 391 60 331.5 19.5 c 128,-1,16
 272 -21 272 -21 197 -21 c 0,17,18
 121 -21 121 -21 67.5 33 c 128,-1,19
 14 87 14 87 14 163 c 0,20,21
 14 218 14 218 40 257 c 1,22,-1
 178 182 l 1,23,-1
 154 138 l 1,24,-1
 66 187 l 1,25,26
 64 174 64 174 64 163 c 0,27,28
 64 108 64 108 103 68.5 c 128,-1,29
 142 29 142 29 197 29 c 256,30,31
 252 29 252 29 296 53.5 c 128,-1,32
 340 78 340 78 341 107 c 0,33,34
 341 163 341 163 301 203.5 c 128,-1,35
 261 244 261 244 206 240 c 0,36,37
 127 235 127 235 72.5 286.5 c 128,-1,38
 18 338 18 338 18 415 c 0,39,40
 18 459 18 459 39 499 c 1,41,42
 31 526 31 526 31 551 c 0,43,44
 30 607 30 607 83 654 c 128,-1,45
 136 701 136 701 210 701 c 0,46,47
 286 701 286 701 340 647 c 128,-1,48
 394 593 394 593 394 517 c 0,49,50
 394 463 394 463 365 418 c 1,51,-1
 222 495 l 1,52,-1
 246 539 l 1,53,-1
 340 488 l 1,54,55
 344 504 344 504 344 517 c 0,56,57
 344 572 344 572 305 610.5 c 128,-1,58
 266 649 266 649 210 651 c 0,59,60
 163 653 163 653 121.5 619.5 c 128,-1,61
 80 586 80 586 81 551 c 0,62,63
 81 500 81 500 121.5 457 c 128,-1,64
 162 414 162 414 215 418 c 0,65,66
 293 424 293 424 348 372 c 128,-1,67
 403 320 403 320 403 243 c 0,68,69
 403 197 403 197 382 158 c 1,70,71
 390 130 390 130 391 107 c 0,14,15
EndSplineSet
EndChar

StartChar: bullet
Encoding: 8226 8226 102
Width: 249
Flags: W
LayerCount: 2
Back
Fore
SplineSet
18 326 m 0,0,1
 18 368 18 368 47.5 397.5 c 128,-1,2
 77 427 77 427 118 427 c 0,3,4
 160 427 160 427 190 397.5 c 128,-1,5
 220 368 220 368 220 326 c 0,6,7
 220 285 220 285 190.5 255.5 c 128,-1,8
 161 226 161 226 119 226 c 256,9,10
 77 226 77 226 47.5 255.5 c 128,-1,11
 18 285 18 285 18 326 c 0,0,1
EndSplineSet
EndChar

StartChar: paragraph
Encoding: 182 182 103
Width: 561
Flags: W
LayerCount: 2
Back
Fore
SplineSet
405 0 m 1,0,-1
 505 0 l 1,1,-1
 505 51 l 1,2,-1
 455 51 l 1,3,-1
 455 266 l 1,4,-1
 505 266 l 1,5,-1
 505 316 l 1,6,-1
 455 316 l 1,7,-1
 455 584 l 1,8,-1
 505 584 l 1,9,-1
 505 633 l 1,10,-1
 405 633 l 1,11,-1
 405 316 l 1,12,-1
 338 316 l 1,13,-1
 338 633 l 1,14,-1
 212 633 l 2,15,16
 136 633 136 633 82.5 579.5 c 128,-1,17
 29 526 29 526 29 450 c 256,18,19
 29 374 29 374 82.5 320 c 128,-1,20
 136 266 136 266 212 266 c 2,21,-1
 287 266 l 1,22,-1
 287 0 l 1,23,-1
 338 0 l 1,24,-1
 338 266 l 1,25,-1
 405 266 l 1,26,-1
 405 0 l 1,0,-1
212 316 m 2,27,28
 157 316 157 316 118 355.5 c 128,-1,29
 79 395 79 395 79 450 c 256,30,31
 79 505 79 505 118 544.5 c 128,-1,32
 157 584 157 584 212 584 c 2,33,-1
 287 584 l 1,34,-1
 287 316 l 1,35,-1
 212 316 l 2,27,28
EndSplineSet
EndChar

StartChar: germandbls
Encoding: 223 223 104
Width: 513
Flags: W
LayerCount: 2
Back
Fore
SplineSet
278 332 m 2,0,1
 338 350 338 350 373 395 c 0,2,3
 405 436 405 436 405 482 c 0,4,5
 405 540 405 540 358 571 c 0,6,7
 304 605 304 605 210 586 c 0,8,9
 155 575 155 575 152 412 c 0,10,11
 152 303 152 303 153 194 c 1,12,13
 130 19 130 19 53 19 c 0,14,15
 33 19 33 19 10 30 c 1,16,-1
 32 75 l 1,17,18
 43 70 43 70 51 70 c 0,19,20
 71 70 71 70 86 114 c 0,21,22
 102 163 102 163 102 233 c 0,23,24
 102 264 102 264 97.5 328.5 c 128,-1,25
 93 393 93 393 93 425 c 0,26,27
 93 491 93 491 106.5 538 c 128,-1,28
 120 585 120 585 167 619.5 c 128,-1,29
 214 654 214 654 264 652 c 0,30,31
 361 649 361 649 414 596 c 0,32,33
 462 548 462 548 462 478 c 0,34,35
 462 425 462 425 433.5 377 c 128,-1,36
 405 329 405 329 355 304 c 1,37,38
 459 246 459 246 459 142 c 0,39,40
 459 91 459 91 432.5 47 c 128,-1,41
 406 3 406 3 367 -12 c 0,42,43
 324 -29 324 -29 281 -29 c 0,44,45
 199 -29 199 -29 154 36 c 1,46,-1
 195 64 l 1,47,48
 225 21 225 21 282 21 c 0,49,50
 314 21 314 21 349 35 c 0,51,52
 373 44 373 44 391.5 73.5 c 128,-1,53
 410 103 410 103 410 139 c 0,54,55
 410 234 410 234 281 287 c 2,56,-1
 216 313 l 1,57,-1
 278 332 l 2,0,1
EndSplineSet
EndChar

StartChar: acute
Encoding: 180 180 105
Width: 130
Flags: W
LayerCount: 2
Back
Fore
SplineSet
99 734 m 1,0,-1
 99 706 l 1,1,-1
 19 668 l 1,2,-1
 36 632 l 1,3,-1
 139 681 l 1,4,-1
 139 734 l 1,5,-1
 99 734 l 1,0,-1
EndSplineSet
EndChar

StartChar: dieresis
Encoding: 168 168 106
Width: 272
Flags: W
LayerCount: 2
Back
Fore
SplineSet
59 537 m 256,0,1
 40 537 40 537 26.5 551 c 128,-1,2
 13 565 13 565 13 585 c 256,3,4
 13 605 13 605 26.5 619 c 128,-1,5
 40 633 40 633 59 633 c 256,6,7
 78 633 78 633 91.5 619 c 128,-1,8
 105 605 105 605 105 585 c 256,9,10
 105 565 105 565 91.5 551 c 128,-1,11
 78 537 78 537 59 537 c 256,0,1
168 537 m 256,12,13
 149 537 149 537 135.5 551 c 128,-1,14
 122 565 122 565 122 585 c 256,15,16
 122 605 122 605 135.5 619 c 128,-1,17
 149 633 149 633 168 633 c 256,18,19
 187 633 187 633 200.5 619 c 128,-1,20
 214 605 214 605 214 585 c 256,21,22
 214 565 214 565 200.5 551 c 128,-1,23
 187 537 187 537 168 537 c 256,12,13
EndSplineSet
EndChar

StartChar: AE
Encoding: 198 198 107
Width: 730
Flags: W
LayerCount: 2
Back
Fore
SplineSet
377 555 m 1,0,-1
 377 320 l 1,1,2
 340 409 340 409 340 467 c 0,3,4
 340 526 340 526 377 555 c 1,0,-1
576 320 m 1,5,-1
 646 321 l 1,6,-1
 646 373 l 1,7,-1
 546 373 l 1,8,9
 533 331 533 331 496.5 300 c 128,-1,10
 460 269 460 269 428 267 c 1,11,-1
 428 546 l 1,12,-1
 646 546 l 1,13,-1
 646 494 l 1,14,-1
 695 494 l 1,15,-1
 695 596 l 1,16,-1
 349 596 l 1,17,18
 331 582 331 582 318 566 c 1,19,-1
 347 632 l 1,20,-1
 281 632 l 1,21,-1
 14 0 l 1,22,-1
 179 0 l 1,23,-1
 178 51 l 1,24,-1
 98 51 l 1,25,-1
 293 506 l 1,26,27
 288 479 288 479 288 451 c 0,28,29
 288 384 288 384 315 324 c 0,30,31
 318 317 318 317 348 255 c 1,32,-1
 201 255 l 1,33,-1
 201 206 l 1,34,-1
 373 206 l 1,35,36
 433 88 433 88 481 0 c 1,37,-1
 695 0 l 1,38,-1
 695 100 l 1,39,-1
 646 100 l 1,40,-1
 646 51 l 1,41,-1
 520 51 l 1,42,-1
 430 212 l 1,43,44
 527 236 527 236 576 320 c 1,5,-1
EndSplineSet
EndChar

StartChar: Oslash
Encoding: 216 216 108
Width: 468
Flags: W
LayerCount: 2
Back
Fore
SplineSet
416 304 m 0,0,1
 416 176 416 176 362 82 c 0,2,3
 306 -17 306 -17 220 -17 c 0,4,5
 156 -17 156 -17 106 41 c 1,6,-1
 48 -72 l 1,7,-1
 3 -49 l 1,8,-1
 75 87 l 1,9,10
 23 180 23 180 23 304 c 0,11,12
 23 432 23 432 77 525 c 0,13,14
 133 624 133 624 220 624 c 0,15,16
 281 624 281 624 329 572 c 1,17,-1
 345 603 l 1,18,-1
 287 660 l 1,19,-1
 323 696 l 1,20,-1
 406 612 l 1,21,-1
 362 528 l 1,22,23
 416 435 416 435 416 304 c 0,0,1
304 523 m 1,24,25
 264 574 264 574 220 574 c 0,26,27
 164 574 164 574 120 500 c 0,28,29
 73 421 73 421 73 304 c 0,30,31
 73 215 73 215 104 142 c 1,32,-1
 304 523 l 1,24,25
366 304 m 0,33,34
 366 398 366 398 333 472 c 1,35,-1
 132 89 l 1,36,37
 173 33 173 33 220 33 c 0,38,39
 276 33 276 33 319 107 c 0,40,41
 366 187 366 187 366 304 c 0,33,34
EndSplineSet
EndChar

StartChar: yen
Encoding: 165 165 109
Width: 461
Flags: W
LayerCount: 2
Back
Fore
SplineSet
414 212 m 1,0,-1
 414 162 l 1,1,-1
 257 162 l 1,2,-1
 257 0 l 1,3,-1
 157 0 l 1,4,-1
 157 52 l 1,5,-1
 208 52 l 1,6,-1
 208 162 l 1,7,-1
 45 162 l 1,8,-1
 45 212 l 1,9,-1
 208 212 l 1,10,-1
 208 289 l 1,11,-1
 45 289 l 1,12,-1
 45 339 l 1,13,-1
 112 339 l 1,14,15
 52 384 52 384 21 477 c 0,16,17
 -6 557 -6 557 -1 635 c 1,18,-1
 137 635 l 1,19,-1
 137 585 l 1,20,-1
 52 585 l 1,21,22
 54 489 54 489 105 418 c 0,23,24
 159 344 159 344 232 350 c 1,25,-1
 406 635 l 1,26,-1
 465 635 l 1,27,-1
 280 339 l 1,28,-1
 414 339 l 1,29,-1
 414 289 l 1,30,-1
 257 289 l 1,31,-1
 257 212 l 1,32,-1
 414 212 l 1,0,-1
EndSplineSet
EndChar

StartChar: ordfeminine
Encoding: 170 170 110
Width: 304
Flags: W
LayerCount: 2
Back
Fore
SplineSet
246 565 m 1,0,-1
 196 565 l 1,1,-1
 196 583 l 1,2,3
 169 555 169 555 130 555 c 0,4,5
 92 555 92 555 65 581.5 c 128,-1,6
 38 608 38 608 38 646 c 0,7,8
 38 685 38 685 65 711.5 c 128,-1,9
 92 738 92 738 130 738 c 0,10,11
 169 738 169 738 196 710 c 1,12,-1
 196 746 l 1,13,-1
 246 746 l 1,14,-1
 246 721 l 1,15,-1
 221 721 l 1,16,-1
 221 590 l 1,17,-1
 246 590 l 1,18,-1
 246 565 l 1,0,-1
196 646 m 0,19,20
 196 674 196 674 176.5 693.5 c 128,-1,21
 157 713 157 713 130 713 c 0,22,23
 102 713 102 713 82.5 693.5 c 128,-1,24
 63 674 63 674 63 646 c 0,25,26
 63 619 63 619 82.5 599.5 c 128,-1,27
 102 580 102 580 130 580 c 0,28,29
 157 580 157 580 176.5 599.5 c 128,-1,30
 196 619 196 619 196 646 c 0,19,20
EndSplineSet
EndChar

StartChar: ordmasculine
Encoding: 186 186 111
Width: 270
Flags: W
LayerCount: 2
Back
Fore
SplineSet
109 741 m 256,0,1
 147 741 147 741 174 714 c 128,-1,2
 201 687 201 687 201 649 c 256,3,4
 201 611 201 611 174 584 c 128,-1,5
 147 557 147 557 109 557 c 256,6,7
 71 557 71 557 44 584 c 128,-1,8
 17 611 17 611 17 649 c 256,9,10
 17 687 17 687 44 714 c 128,-1,11
 71 741 71 741 109 741 c 256,0,1
109 716 m 0,12,13
 82 716 82 716 62 696.5 c 128,-1,14
 42 677 42 677 42 649 c 256,15,16
 42 621 42 621 62 601.5 c 128,-1,17
 82 582 82 582 109 582 c 0,18,19
 137 582 137 582 156.5 601.5 c 128,-1,20
 176 621 176 621 176 649 c 256,21,22
 176 677 176 677 156.5 696.5 c 128,-1,23
 137 716 137 716 109 716 c 0,12,13
EndSplineSet
EndChar

StartChar: ae
Encoding: 230 230 112
Width: 780
Flags: W
LayerCount: 2
Back
Fore
SplineSet
473 330 m 0,0,1
 517 356 517 356 569 356 c 0,2,3
 645 356 645 356 698.5 302.5 c 128,-1,4
 752 249 752 249 752 173 c 2,5,-1
 752 149 l 1,6,-1
 521 149 l 1,7,8
 527 125 527 125 546 116 c 1,9,-1
 524 71 l 1,10,11
 493 87 493 87 474 120 c 0,12,13
 457 150 457 150 460 174 c 2,14,-1
 463 200 l 1,15,-1
 699 200 l 1,16,17
 690 246 690 246 653.5 276 c 128,-1,18
 617 306 617 306 569 306 c 0,19,20
 513 306 513 306 474 267 c 128,-1,21
 435 228 435 228 435 173 c 256,22,23
 435 118 435 118 474 78.5 c 128,-1,24
 513 39 513 39 569 39 c 0,25,26
 640 39 640 39 679 105 c 1,27,-1
 739 105 l 1,28,29
 718 54 718 54 672 21.5 c 128,-1,30
 626 -11 626 -11 569 -11 c 0,31,32
 538 -11 538 -11 503 0 c 1,33,-1
 334 0 l 1,34,-1
 334 37 l 1,35,36
 279 -21 279 -21 201 -21 c 0,37,38
 125 -21 125 -21 71.5 32.5 c 128,-1,39
 18 86 18 86 18 162 c 256,40,41
 18 238 18 238 71.5 292 c 128,-1,42
 125 346 125 346 201 346 c 0,43,44
 281 346 281 346 334 289 c 1,45,-1
 334 361 l 1,46,-1
 434 361 l 1,47,-1
 434 311 l 1,48,-1
 384 311 l 1,49,-1
 384 174 l 2,50,51
 384 275 384 275 473 330 c 0,0,1
426 50 m 1,52,53
 384 97 384 97 384 162 c 2,54,-1
 384 50 l 1,55,-1
 426 50 l 1,52,53
335 162 m 256,56,57
 335 217 335 217 296 256.5 c 128,-1,58
 257 296 257 296 201 296 c 0,59,60
 146 296 146 296 105 256.5 c 128,-1,61
 64 217 64 217 64 162 c 256,62,63
 64 107 64 107 105 68 c 128,-1,64
 146 29 146 29 201 29 c 0,65,66
 257 29 257 29 296 68 c 128,-1,67
 335 107 335 107 335 162 c 256,56,57
EndSplineSet
EndChar

StartChar: oslash
Encoding: 248 248 113
Width: 430
Flags: W
LayerCount: 2
Back
Fore
SplineSet
378 162 m 0,0,1
 378 86 378 86 324.5 32.5 c 128,-1,2
 271 -21 271 -21 195 -21 c 0,3,4
 154 -21 154 -21 121 -7 c 1,5,-1
 61 -92 l 1,6,-1
 20 -63 l 1,7,-1
 79 20 l 1,8,9
 11 75 11 75 11 162 c 0,10,11
 11 238 11 238 65 292 c 128,-1,12
 119 346 119 346 195 346 c 0,13,14
 247 346 247 346 289 320 c 1,15,-1
 307 343 l 1,16,-1
 271 379 l 1,17,-1
 307 414 l 1,18,-1
 372 349 l 1,19,-1
 328 287 l 1,20,21
 378 234 378 234 378 162 c 0,0,1
328 162 m 0,22,23
 328 209 328 209 299 246 c 1,24,-1
 152 37 l 1,25,26
 174 29 174 29 195 29 c 0,27,28
 250 29 250 29 289 68 c 128,-1,29
 328 107 328 107 328 162 c 0,22,23
261 278 m 1,30,31
 231 296 231 296 195 296 c 0,32,33
 139 296 139 296 100 256.5 c 128,-1,34
 61 217 61 217 61 162 c 0,35,36
 61 101 61 101 108 61 c 1,37,-1
 261 278 l 1,30,31
EndSplineSet
EndChar

StartChar: questiondown
Encoding: 191 191 114
Width: 414
Flags: W
LayerCount: 2
Back
Fore
SplineSet
18 202 m 0,0,1
 18 126 18 126 71.5 72 c 128,-1,2
 125 18 125 18 202 18 c 0,3,4
 278 18 278 18 331.5 72 c 128,-1,5
 385 126 385 126 385 202 c 0,6,7
 385 256 385 256 356 301 c 1,8,-1
 213 224 l 1,9,-1
 238 180 l 1,10,-1
 332 231 l 1,11,12
 335 215 335 215 335 202 c 0,13,14
 335 147 335 147 296 107.5 c 128,-1,15
 257 68 257 68 202 68 c 0,16,17
 146 68 146 68 107 107.5 c 128,-1,18
 68 147 68 147 68 202 c 0,19,20
 68 258 68 258 108 298.5 c 128,-1,21
 148 339 148 339 202 335 c 1,22,-1
 249 335 l 1,23,-1
 249 490 l 1,24,-1
 201 490 l 1,25,-1
 201 377 l 1,26,27
 123 383 123 383 70.5 331 c 128,-1,28
 18 279 18 279 18 202 c 0,0,1
288 594 m 256,29,30
 288 569 288 569 269.5 551 c 128,-1,31
 251 533 251 533 225 533 c 256,32,33
 199 533 199 533 180.5 551 c 128,-1,34
 162 569 162 569 162 594 c 256,35,36
 162 619 162 619 180.5 636.5 c 128,-1,37
 199 654 199 654 225 654 c 256,38,39
 251 654 251 654 269.5 636.5 c 128,-1,40
 288 619 288 619 288 594 c 256,29,30
EndSplineSet
EndChar

StartChar: exclamdown
Encoding: 161 161 115
Width: 222
Flags: W
LayerCount: 2
Back
Fore
SplineSet
126 68 m 1,0,-1
 176 68 l 1,1,-1
 176 18 l 1,2,-1
 26 18 l 1,3,-1
 26 68 l 1,4,-1
 76 68 l 1,5,-1
 76 475 l 1,6,-1
 128 475 l 1,7,-1
 126 68 l 1,0,-1
162 573 m 256,8,9
 162 548 162 548 143 530 c 128,-1,10
 124 512 124 512 98 512 c 256,11,12
 72 512 72 512 54 530 c 128,-1,13
 36 548 36 548 36 573 c 256,14,15
 36 598 36 598 54 615.5 c 128,-1,16
 72 633 72 633 99 633 c 0,17,18
 125 633 125 633 143.5 615.5 c 128,-1,19
 162 598 162 598 162 573 c 256,8,9
EndSplineSet
EndChar

StartChar: florin
Encoding: 402 402 116
Width: 410
Flags: W
LayerCount: 2
Back
Fore
SplineSet
18 -15 m 1,0,1
 128 -15 128 -15 144 89 c 2,2,-1
 179 318 l 1,3,-1
 222 318 l 1,4,5
 220 308 220 308 220 298 c 0,6,7
 220 269 220 269 240.5 251 c 128,-1,8
 261 233 261 233 289 233 c 0,9,10
 327 233 327 233 354 263 c 1,11,-1
 319 293 l 1,12,13
 311 284 311 284 296 284 c 0,14,15
 272 284 272 284 272 308 c 0,16,17
 272 331 272 331 299 368 c 1,18,-1
 187 368 l 1,19,-1
 218 566 l 2,20,21
 222 590 222 590 242.5 608 c 128,-1,22
 263 626 263 626 288 626 c 256,23,24
 313 626 313 626 327.5 608.5 c 128,-1,25
 342 591 342 591 339 566 c 1,26,-1
 389 566 l 1,27,28
 390 574 390 574 390 583 c 0,29,30
 390 622 390 622 363.5 649 c 128,-1,31
 337 676 337 676 296 676 c 0,32,33
 250 676 250 676 211.5 643 c 128,-1,34
 173 610 173 610 166 564 c 2,35,-1
 135 368 l 1,36,-1
 84 368 l 1,37,-1
 76 318 l 1,38,-1
 127 318 l 1,39,-1
 92 89 l 2,40,41
 90 72 90 72 74 53 c 0,42,43
 53 29 53 29 25 34 c 1,44,-1
 18 -15 l 1,0,1
EndSplineSet
EndChar

StartChar: guillemotleft
Encoding: 171 171 117
Width: 355
Flags: W
LayerCount: 2
Back
Fore
SplineSet
146 390 m 1,0,-1
 62 306 l 1,1,-1
 146 222 l 1,2,-1
 118 194 l 1,3,-1
 5 306 l 1,4,-1
 118 418 l 1,5,-1
 146 390 l 1,0,-1
309 387 m 1,6,-1
 226 303 l 1,7,-1
 309 219 l 1,8,-1
 281 191 l 1,9,-1
 169 303 l 1,10,-1
 281 415 l 1,11,-1
 309 387 l 1,6,-1
EndSplineSet
EndChar

StartChar: guillemotright
Encoding: 187 187 118
Width: 320
Flags: W
LayerCount: 2
Back
Fore
SplineSet
169 390 m 1,0,-1
 253 306 l 1,1,-1
 169 222 l 1,2,-1
 197 194 l 1,3,-1
 309 306 l 1,4,-1
 197 418 l 1,5,-1
 169 390 l 1,0,-1
5 387 m 1,6,-1
 89 303 l 1,7,-1
 5 219 l 1,8,-1
 34 191 l 1,9,-1
 146 303 l 1,10,-1
 34 415 l 1,11,-1
 5 387 l 1,6,-1
EndSplineSet
EndChar

StartChar: ellipsis
Encoding: 8230 8230 119
Width: 529
Flags: W
LayerCount: 2
Back
Fore
SplineSet
15 57 m 0,0,1
 15 81 15 81 32.5 98.5 c 128,-1,2
 50 116 50 116 74 116 c 0,3,4
 99 116 99 116 116.5 98.5 c 128,-1,5
 134 81 134 81 134 57 c 0,6,7
 134 32 134 32 116.5 15 c 128,-1,8
 99 -2 99 -2 74 -2 c 0,9,10
 50 -2 50 -2 32.5 15 c 128,-1,11
 15 32 15 32 15 57 c 0,0,1
186 57 m 0,12,13
 186 81 186 81 203 98.5 c 128,-1,14
 220 116 220 116 245 116 c 0,15,16
 269 116 269 116 286.5 98.5 c 128,-1,17
 304 81 304 81 304 57 c 0,18,19
 304 32 304 32 286.5 15 c 128,-1,20
 269 -2 269 -2 245 -2 c 0,21,22
 220 -2 220 -2 203 15 c 128,-1,23
 186 32 186 32 186 57 c 0,12,13
353 57 m 0,24,25
 353 81 353 81 370 98.5 c 128,-1,26
 387 116 387 116 412 116 c 0,27,28
 436 116 436 116 453.5 98.5 c 128,-1,29
 471 81 471 81 471 57 c 0,30,31
 471 32 471 32 453.5 15 c 128,-1,32
 436 -2 436 -2 412 -2 c 0,33,34
 387 -2 387 -2 370 15 c 128,-1,35
 353 32 353 32 353 57 c 0,24,25
EndSplineSet
EndChar

StartChar: OE
Encoding: 338 338 120
Width: 611
Flags: W
LayerCount: 2
Back
Fore
SplineSet
67 313 m 0,0,1
 67 429 67 429 114 509 c 0,2,3
 157 583 157 583 213 583 c 2,4,-1
 264 583 l 1,5,-1
 264 50 l 1,6,-1
 213 50 l 2,7,8
 157 50 157 50 114 120 c 0,9,10
 67 196 67 196 67 313 c 0,0,1
582 0 m 1,11,-1
 582 100 l 1,12,-1
 532 100 l 1,13,-1
 532 51 l 1,14,-1
 314 51 l 1,15,-1
 314 212 l 1,16,17
 411 232 411 232 462 321 c 1,18,-1
 532 321 l 1,19,-1
 532 373 l 1,20,-1
 433 373 l 1,21,22
 419 331 419 331 382.5 300.5 c 128,-1,23
 346 270 346 270 314 267 c 1,24,-1
 314 583 l 1,25,-1
 532 583 l 1,26,-1
 532 530 l 1,27,-1
 582 531 l 1,28,-1
 582 632 l 1,29,-1
 213 633 l 2,30,31
 127 633 127 633 70 534 c 0,32,33
 17 440 17 440 17 312 c 0,34,35
 17 185 17 185 70 95 c 0,36,37
 127 0 127 0 213 0 c 2,38,-1
 582 0 l 1,11,-1
EndSplineSet
EndChar

StartChar: oe
Encoding: 339 339 121
Width: 732
Flags: W
LayerCount: 2
Back
Fore
SplineSet
695 168 m 2,0,-1
 695 145 l 1,1,-1
 464 145 l 1,2,3
 470 121 470 121 489 112 c 1,4,-1
 467 67 l 1,5,6
 435 82 435 82 417 115 c 0,7,8
 400 145 400 145 403 170 c 2,9,-1
 406 196 l 1,10,-1
 642 196 l 1,11,12
 632 242 632 242 595.5 272 c 128,-1,13
 559 302 559 302 511 302 c 0,14,15
 456 302 456 302 417 263 c 128,-1,16
 378 224 378 224 378 168 c 0,17,18
 378 113 378 113 417 74 c 128,-1,19
 456 35 456 35 511 35 c 0,20,21
 583 35 583 35 622 101 c 1,22,-1
 681 101 l 1,23,24
 661 49 661 49 615 17 c 128,-1,25
 569 -15 569 -15 511 -15 c 0,26,27
 406 -15 406 -15 353 75 c 1,28,29
 330 31 330 31 286.5 5 c 128,-1,30
 243 -21 243 -21 192 -21 c 0,31,32
 116 -21 116 -21 62 32.5 c 128,-1,33
 8 86 8 86 8 162 c 256,34,35
 8 238 8 238 62 292 c 128,-1,36
 116 346 116 346 192 346 c 0,37,38
 296 346 296 346 349 254 c 1,39,40
 373 299 373 299 416 325.5 c 128,-1,41
 459 352 459 352 511 352 c 0,42,43
 587 352 587 352 641 298 c 128,-1,44
 695 244 695 244 695 168 c 2,0,-1
325 162 m 256,45,46
 325 217 325 217 286 256.5 c 128,-1,47
 247 296 247 296 192 296 c 0,48,49
 136 296 136 296 97 256.5 c 128,-1,50
 58 217 58 217 58 162 c 256,51,52
 58 107 58 107 97 68 c 128,-1,53
 136 29 136 29 192 29 c 0,54,55
 247 29 247 29 286 68 c 128,-1,56
 325 107 325 107 325 162 c 256,45,46
EndSplineSet
EndChar

StartChar: endash
Encoding: 8211 8211 122
Width: 263
Flags: W
LayerCount: 2
Back
Fore
SplineSet
16 210 m 1,0,-1
 244 210 l 1,1,-1
 244 160 l 1,2,-1
 16 160 l 1,3,-1
 16 210 l 1,0,-1
EndSplineSet
EndChar

StartChar: emdash
Encoding: 8212 8212 123
Width: 480
Flags: W
LayerCount: 2
Back
Fore
SplineSet
8 210 m 1,0,-1
 461 210 l 1,1,-1
 461 160 l 1,2,-1
 8 160 l 1,3,-1
 8 210 l 1,0,-1
EndSplineSet
EndChar

StartChar: quotedblleft
Encoding: 8220 8220 124
Width: 353
Flags: W
LayerCount: 2
Back
Fore
SplineSet
234 638 m 0,0,1
 256 638 256 638 272 622.5 c 128,-1,2
 288 607 288 607 288 584 c 256,3,4
 288 561 288 561 272 545 c 128,-1,5
 256 529 256 529 234 529 c 0,6,7
 211 529 211 529 195 545 c 128,-1,8
 179 561 179 561 179 584 c 2,9,-1
 179 694 l 1,10,-1
 219 694 l 1,11,-1
 219 638 l 1,12,13
 219 638 219 638 234 638 c 0,0,1
85 638 m 0,14,15
 108 638 108 638 124 622.5 c 128,-1,16
 140 607 140 607 140 584 c 256,17,18
 140 561 140 561 124 545 c 128,-1,19
 108 529 108 529 85 529 c 0,20,21
 63 529 63 529 47 545 c 128,-1,22
 31 561 31 561 31 584 c 2,23,-1
 31 694 l 1,24,-1
 71 694 l 1,25,-1
 71 638 l 1,26,27
 71 638 71 638 85 638 c 0,14,15
EndSplineSet
EndChar

StartChar: quotedblright
Encoding: 8221 8221 125
Width: 358
Flags: W
LayerCount: 2
Back
Fore
SplineSet
85 584 m 0,0,1
 63 584 63 584 47 599.5 c 128,-1,2
 31 615 31 615 31 638 c 256,3,4
 31 661 31 661 47 677.5 c 128,-1,5
 63 694 63 694 85 694 c 0,6,7
 108 694 108 694 124 677.5 c 128,-1,8
 140 661 140 661 140 638 c 2,9,-1
 140 529 l 1,10,-1
 100 529 l 1,11,-1
 100 584 l 1,12,13
 100 584 100 584 85 584 c 0,0,1
234 584 m 0,14,15
 211 584 211 584 195 599.5 c 128,-1,16
 179 615 179 615 179 638 c 256,17,18
 179 661 179 661 195 677.5 c 128,-1,19
 211 694 211 694 234 694 c 0,20,21
 256 694 256 694 272 677.5 c 128,-1,22
 288 661 288 661 288 638 c 2,23,-1
 288 529 l 1,24,-1
 248 529 l 1,25,-1
 248 584 l 1,26,27
 248 584 248 584 234 584 c 0,14,15
EndSplineSet
EndChar

StartChar: quoteleft
Encoding: 8216 8216 126
Width: 200
Flags: W
LayerCount: 2
Back
Fore
SplineSet
81 638 m 0,0,1
 104 638 104 638 120 622 c 128,-1,2
 136 606 136 606 136 583 c 0,3,4
 136 561 136 561 120 545 c 128,-1,5
 104 529 104 529 81 529 c 256,6,7
 58 529 58 529 42 545 c 128,-1,8
 26 561 26 561 26 584 c 2,9,-1
 26 692 l 1,10,-1
 66 692 l 1,11,-1
 66 636 l 1,12,13
 73 638 73 638 81 638 c 0,0,1
EndSplineSet
EndChar

StartChar: quoteright
Encoding: 8217 8217 127
Width: 206
Flags: W
LayerCount: 2
Back
Fore
SplineSet
81 584 m 0,0,1
 58 584 58 584 42 600 c 128,-1,2
 26 616 26 616 26 639 c 256,3,4
 26 662 26 662 42 678 c 128,-1,5
 58 694 58 694 81 694 c 0,6,7
 103 694 103 694 119.5 677.5 c 128,-1,8
 136 661 136 661 136 638 c 2,9,-1
 136 529 l 1,10,-1
 96 529 l 1,11,-1
 96 586 l 1,12,13
 89 584 89 584 81 584 c 0,0,1
EndSplineSet
EndChar

StartChar: fraction
Encoding: 8725 8725 128
Width: 484
Flags: W
LayerCount: 2
Back
Fore
SplineSet
-324 36 m 1,0,-1
 486 728 l 1,1,-1
 519 690 l 1,2,-1
 -291 -2 l 1,3,-1
 -324 36 l 1,0,-1
EndSplineSet
EndChar

StartChar: currency
Encoding: 164 164 129
Width: 603
Flags: W
LayerCount: 2
Back
Fore
SplineSet
87 372 m 0,0,1
 87 440 87 440 125 493 c 1,2,-1
 39 580 l 1,3,-1
 74 615 l 1,4,-1
 160 528 l 1,5,6
 221 579 221 579 294 579 c 0,7,8
 368 579 368 579 429 529 c 1,9,-1
 514 615 l 1,10,-1
 550 580 l 1,11,-1
 462 492 l 1,12,13
 501 435 501 435 501 372 c 0,14,15
 501 298 501 298 452 239 c 1,16,-1
 550 142 l 1,17,-1
 514 107 l 1,18,-1
 417 205 l 1,19,20
 362 166 362 166 294 166 c 0,21,22
 229 166 229 166 172 205 c 1,23,-1
 74 107 l 1,24,-1
 39 142 l 1,25,-1
 136 239 l 1,26,27
 87 297 87 297 87 372 c 0,0,1
294 529 m 256,28,29
 229 529 229 529 183 483 c 128,-1,30
 137 437 137 437 137 372 c 0,31,32
 137 308 137 308 183 262 c 128,-1,33
 229 216 229 216 294 216 c 256,34,35
 359 216 359 216 405 262 c 128,-1,36
 451 308 451 308 451 372 c 0,37,38
 451 437 451 437 405 483 c 128,-1,39
 359 529 359 529 294 529 c 256,28,29
EndSplineSet
EndChar

StartChar: guilsinglleft
Encoding: 8249 8249 130
Width: 208
Flags: W
LayerCount: 2
Back
Fore
SplineSet
166 390 m 1,0,-1
 82 306 l 1,1,-1
 166 222 l 1,2,-1
 138 194 l 1,3,-1
 26 306 l 1,4,-1
 138 418 l 1,5,-1
 166 390 l 1,0,-1
EndSplineSet
EndChar

StartChar: guilsinglright
Encoding: 8250 8250 131
Width: 177
Flags: W
LayerCount: 2
Back
Fore
SplineSet
26 390 m 1,0,-1
 110 306 l 1,1,-1
 26 222 l 1,2,-1
 54 194 l 1,3,-1
 166 306 l 1,4,-1
 54 418 l 1,5,-1
 26 390 l 1,0,-1
EndSplineSet
EndChar

StartChar: fi
Encoding: 64257 64257 132
Width: 417
Flags: W
LayerCount: 2
Back
Fore
SplineSet
165 282 m 1,0,-1
 123 282 l 1,1,-1
 123 0 l 1,2,-1
 20 0 l 1,3,-1
 20 50 l 1,4,-1
 71 50 l 1,5,-1
 71 282 l 1,6,-1
 20 282 l 1,7,-1
 20 331 l 1,8,-1
 71 331 l 1,9,-1
 71 528 l 2,10,11
 71 573 71 573 104.5 606 c 128,-1,12
 138 639 138 639 183 639 c 0,13,14
 229 639 229 639 261 607 c 128,-1,15
 293 575 293 575 293 529 c 1,16,-1
 243 529 l 1,17,18
 243 554 243 554 225.5 571.5 c 128,-1,19
 208 589 208 589 183 589 c 0,20,21
 159 589 159 589 141 571.5 c 128,-1,22
 123 554 123 554 123 529 c 2,23,-1
 123 331 l 1,24,-1
 235 331 l 1,25,26
 217 300 217 300 217 279 c 0,27,28
 217 248 217 248 245 248 c 0,29,30
 256 248 256 248 264 254 c 1,31,-1
 264 361 l 1,32,-1
 364 361 l 1,33,-1
 364 311 l 1,34,-1
 314 311 l 1,35,-1
 314 50 l 1,36,-1
 364 50 l 1,37,-1
 364 0 l 1,38,-1
 214 0 l 1,39,-1
 213 50 l 1,40,-1
 264 50 l 1,41,-1
 264 200 l 1,42,43
 256 198 256 198 247 198 c 0,44,45
 213 198 213 198 189 220 c 0,46,47
 162 244 162 244 165 282 c 1,0,-1
239 433 m 256,48,49
 239 458 239 458 257 476 c 128,-1,50
 275 494 275 494 302 494 c 0,51,52
 328 494 328 494 346.5 476 c 128,-1,53
 365 458 365 458 365 433 c 256,54,55
 365 408 365 408 346.5 390.5 c 128,-1,56
 328 373 328 373 302 373 c 0,57,58
 275 373 275 373 257 390.5 c 128,-1,59
 239 408 239 408 239 433 c 256,48,49
EndSplineSet
EndChar

StartChar: fl
Encoding: 64258 64258 133
Width: 459
Flags: W
LayerCount: 2
Back
Fore
SplineSet
181 589 m 0,0,1
 157 589 157 589 139 571 c 128,-1,2
 121 553 121 553 121 528 c 2,3,-1
 120 331 l 1,4,-1
 232 331 l 1,5,6
 214 300 214 300 214 278 c 0,7,8
 214 247 214 247 243 247 c 0,9,10
 257 247 257 247 264 256 c 1,11,-1
 304 226 l 1,12,13
 282 197 282 197 243 197 c 0,14,15
 210 197 210 197 185 220.5 c 128,-1,16
 160 244 160 244 163 282 c 1,17,-1
 120 282 l 1,18,-1
 120 0 l 1,19,-1
 17 0 l 1,20,-1
 17 49 l 1,21,-1
 68 49 l 1,22,-1
 68 282 l 1,23,-1
 17 282 l 1,24,-1
 18 331 l 1,25,-1
 68 331 l 1,26,-1
 68 528 l 2,27,28
 68 573 68 573 102 606 c 128,-1,29
 136 639 136 639 181 639 c 0,30,31
 227 639 227 639 259.5 606.5 c 128,-1,32
 292 574 292 574 292 528 c 1,33,-1
 368 528 l 1,34,-1
 368 49 l 1,35,-1
 417 49 l 1,36,-1
 417 0 l 1,37,-1
 267 0 l 1,38,-1
 267 49 l 1,39,-1
 317 49 l 1,40,-1
 317 479 l 1,41,-1
 240 479 l 1,42,-1
 241 528 l 2,43,44
 241 553 241 553 223.5 571 c 128,-1,45
 206 589 206 589 181 589 c 0,0,1
EndSplineSet
EndChar

StartChar: daggerdbl
Encoding: 8225 8225 134
Width: 318
Flags: W
LayerCount: 2
Back
Fore
SplineSet
281 298 m 1,0,-1
 241 298 l 1,1,2
 241 266 241 266 220.5 240.5 c 128,-1,3
 200 215 200 215 168 209 c 1,4,-1
 168 331 l 1,5,6
 216 338 216 338 248.5 375 c 128,-1,7
 281 412 281 412 281 462 c 1,8,-1
 241 462 l 1,9,10
 241 429 241 429 220.5 404 c 128,-1,11
 200 379 200 379 168 372 c 1,12,-1
 168 514 l 1,13,-1
 128 514 l 1,14,-1
 128 372 l 1,15,16
 97 378 97 378 76.5 403.5 c 128,-1,17
 56 429 56 429 56 462 c 1,18,-1
 16 462 l 1,19,20
 16 413 16 413 48 375.5 c 128,-1,21
 80 338 80 338 128 331 c 1,22,-1
 128 208 l 1,23,24
 97 215 97 215 76.5 240.5 c 128,-1,25
 56 266 56 266 56 298 c 1,26,-1
 16 298 l 1,27,28
 16 249 16 249 48 212 c 128,-1,29
 80 175 80 175 128 168 c 1,30,-1
 128 12 l 1,31,-1
 168 12 l 1,32,-1
 168 167 l 1,33,34
 216 174 216 174 248.5 211.5 c 128,-1,35
 281 249 281 249 281 298 c 1,0,-1
EndSplineSet
EndChar

StartChar: periodcentered
Encoding: 183 183 135
AltUni2: 002219.ffffffff.0
Width: 154
Flags: W
LayerCount: 2
Back
Fore
SplineSet
18 344 m 0,0,1
 18 368 18 368 35.5 385.5 c 128,-1,2
 53 403 53 403 77 403 c 0,3,4
 102 403 102 403 119 385.5 c 128,-1,5
 136 368 136 368 136 344 c 0,6,7
 136 319 136 319 119 302 c 128,-1,8
 102 285 102 285 77 285 c 0,9,10
 53 285 53 285 35.5 302 c 128,-1,11
 18 319 18 319 18 344 c 0,0,1
EndSplineSet
EndChar

StartChar: quotesinglbase
Encoding: 8218 8218 136
Width: 197
Flags: W
LayerCount: 2
Back
Fore
SplineSet
81 56 m 0,0,1
 58 56 58 56 42 72 c 128,-1,2
 26 88 26 88 26 111 c 256,3,4
 26 134 26 134 42 150 c 128,-1,5
 58 166 58 166 81 166 c 0,6,7
 103 166 103 166 119.5 149.5 c 128,-1,8
 136 133 136 133 136 110 c 2,9,-1
 136 1 l 1,10,-1
 96 1 l 1,11,-1
 96 58 l 1,12,13
 89 56 89 56 81 56 c 0,0,1
EndSplineSet
EndChar

StartChar: quotedblbase
Encoding: 8222 8222 137
Width: 350
Flags: W
LayerCount: 2
Back
Fore
SplineSet
85 56 m 0,0,1
 63 56 63 56 47 72 c 128,-1,2
 31 88 31 88 31 110 c 0,3,4
 31 133 31 133 47 149.5 c 128,-1,5
 63 166 63 166 85 166 c 0,6,7
 108 166 108 166 124 149.5 c 128,-1,8
 140 133 140 133 140 110 c 2,9,-1
 140 1 l 1,10,-1
 100 1 l 1,11,-1
 100 56 l 1,12,13
 100 56 100 56 85 56 c 0,0,1
234 56 m 0,14,15
 211 56 211 56 195 72 c 128,-1,16
 179 88 179 88 179 110 c 0,17,18
 179 133 179 133 195 149.5 c 128,-1,19
 211 166 211 166 234 166 c 0,20,21
 256 166 256 166 272 149.5 c 128,-1,22
 288 133 288 133 288 110 c 2,23,-1
 288 1 l 1,24,-1
 248 1 l 1,25,-1
 248 56 l 1,26,27
 248 56 248 56 234 56 c 0,14,15
EndSplineSet
EndChar

StartChar: perthousand
Encoding: 8240 8240 138
Width: 721
Flags: W
LayerCount: 2
Back
Fore
SplineSet
329 641 m 1,0,-1
 47 1 l 1,1,-1
 92 1 l 1,2,-1
 375 641 l 1,3,-1
 329 641 l 1,0,-1
139 709 m 256,4,5
 193 709 193 709 229 659 c 0,6,7
 262 612 262 612 262 548 c 256,8,9
 262 484 262 484 229 438 c 0,10,11
 193 388 193 388 139 388 c 256,12,13
 85 388 85 388 49 438 c 0,14,15
 16 484 16 484 16 548 c 256,16,17
 16 612 16 612 50.5 660.5 c 128,-1,18
 85 709 85 709 139 709 c 256,4,5
139 684 m 256,19,20
 104 684 104 684 77 647 c 0,21,22
 47 607 47 607 47 548 c 0,23,24
 47 490 47 490 77 450 c 0,25,26
 104 413 104 413 139 413 c 256,27,28
 174 413 174 413 202.5 451.5 c 128,-1,29
 231 490 231 490 231 548 c 0,30,31
 231 607 231 607 202 647 c 0,32,33
 174 684 174 684 139 684 c 256,19,20
332 320 m 256,34,35
 386 320 386 320 421 270 c 0,36,37
 455 224 455 224 455 160 c 256,38,39
 455 96 455 96 421 49 c 0,40,41
 386 -1 386 -1 332 -1 c 256,42,43
 278 -1 278 -1 242 49 c 0,44,45
 209 96 209 96 209 160 c 256,46,47
 209 224 209 224 242 270 c 0,48,49
 278 320 278 320 332 320 c 256,34,35
332 295 m 256,50,51
 297 295 297 295 269 258 c 0,52,53
 240 218 240 218 240 160 c 0,54,55
 240 101 240 101 268.5 62.5 c 128,-1,56
 297 24 297 24 332 24 c 256,57,58
 367 24 367 24 395.5 62.5 c 128,-1,59
 424 101 424 101 424 160 c 0,60,61
 424 218 424 218 394 258 c 0,62,63
 367 295 367 295 332 295 c 256,50,51
594 320 m 256,64,65
 648 320 648 320 684 271 c 0,66,67
 717 224 717 224 717 160 c 256,68,69
 717 96 717 96 684 49 c 0,70,71
 648 0 648 0 594 0 c 256,72,73
 540 0 540 0 505.5 48 c 128,-1,74
 471 96 471 96 471 160 c 256,75,76
 471 224 471 224 505.5 272 c 128,-1,77
 540 320 540 320 594 320 c 256,64,65
594 295 m 256,78,79
 559 295 559 295 532 258 c 0,80,81
 502 218 502 218 502 160 c 256,82,83
 502 102 502 102 532 62 c 0,84,85
 559 25 559 25 594 25 c 256,86,87
 629 25 629 25 657.5 63.5 c 128,-1,88
 686 102 686 102 686 160 c 256,89,90
 686 218 686 218 656 258 c 0,91,92
 629 295 629 295 594 295 c 256,78,79
EndSplineSet
EndChar

StartChar: dotlessi
Encoding: 305 305 139
Width: 253
Flags: W
LayerCount: 2
Back
Fore
SplineSet
98 361 m 1,0,-1
 197 361 l 1,1,-1
 197 311 l 1,2,-1
 148 311 l 1,3,-1
 148 50 l 1,4,-1
 198 49 l 1,5,-1
 198 0 l 1,6,-1
 47 0 l 1,7,-1
 47 49 l 1,8,-1
 97 49 l 1,9,-1
 98 361 l 1,0,-1
EndSplineSet
EndChar

StartChar: circumflex
Encoding: 710 710 140
Width: 164
Flags: W
LayerCount: 2
Back
Fore
SplineSet
19 667 m 1,0,-1
 97 745 l 1,1,-1
 176 667 l 1,2,-1
 140 632 l 1,3,-1
 97 675 l 1,4,-1
 54 632 l 1,5,-1
 19 667 l 1,0,-1
EndSplineSet
EndChar

StartChar: tilde
Encoding: 732 732 141
Width: 260
Flags: W
LayerCount: 2
Back
Fore
SplineSet
20 638 m 1,0,1
 30 700 30 700 76 700 c 0,2,3
 108 700 108 700 124 667 c 0,4,5
 129 657 129 657 138 657 c 0,6,7
 153 657 153 657 157 681 c 1,8,-1
 195 675 l 1,9,10
 185 617 185 617 145 617 c 0,11,12
 128 617 128 617 111.5 627.5 c 128,-1,13
 95 638 95 638 90 649 c 128,-1,14
 85 660 85 660 75 660 c 0,15,16
 62 660 62 660 57 631 c 1,17,-1
 20 638 l 1,0,1
EndSplineSet
EndChar

StartChar: macron
Encoding: 175 175 142
AltUni2: 0002c9.ffffffff.0
Width: 251
Flags: W
LayerCount: 2
Back
Fore
SplineSet
47 465 m 1,0,-1
 220 465 l 1,1,-1
 220 430 l 1,2,-1
 47 430 l 1,3,-1
 47 465 l 1,0,-1
EndSplineSet
EndChar

StartChar: breve
Encoding: 728 728 143
Width: 254
Flags: W
LayerCount: 2
Back
Fore
SplineSet
201 707 m 1,0,1
 201 669 201 669 174 642 c 128,-1,2
 147 615 147 615 109 615 c 256,3,4
 71 615 71 615 44 642 c 128,-1,5
 17 669 17 669 17 707 c 1,6,-1
 57 707 l 1,7,8
 57 685 57 685 72 670 c 128,-1,9
 87 655 87 655 109 655 c 256,10,11
 131 655 131 655 146 670 c 128,-1,12
 161 685 161 685 161 707 c 1,13,-1
 201 707 l 1,0,1
EndSplineSet
EndChar

StartChar: dotaccent
Encoding: 729 729 144
Width: 101
Flags: W
LayerCount: 2
Back
Fore
SplineSet
33 569 m 1,0,-1
 33 642 l 1,1,-1
 108 642 l 1,2,-1
 108 569 l 1,3,-1
 33 569 l 1,0,-1
EndSplineSet
EndChar

StartChar: ring
Encoding: 730 730 145
Width: 220
Flags: W
LayerCount: 2
Back
Fore
SplineSet
81 710 m 256,0,1
 109 710 109 710 128.5 689 c 128,-1,2
 148 668 148 668 148 639 c 0,3,4
 148 611 148 611 128.5 590 c 128,-1,5
 109 569 109 569 81 569 c 256,6,7
 53 569 53 569 34 590 c 128,-1,8
 15 611 15 611 15 639 c 0,9,10
 15 668 15 668 34 689 c 128,-1,11
 53 710 53 710 81 710 c 256,0,1
81 675 m 0,12,13
 69 675 69 675 59.5 665 c 128,-1,14
 50 655 50 655 50 639 c 0,15,16
 50 624 50 624 59.5 614 c 128,-1,17
 69 604 69 604 81 604 c 0,18,19
 94 604 94 604 103.5 614 c 128,-1,20
 113 624 113 624 113 639 c 0,21,22
 113 655 113 655 103.5 665 c 128,-1,23
 94 675 94 675 81 675 c 0,12,13
EndSplineSet
EndChar

StartChar: cedilla
Encoding: 184 184 146
Width: 196
Flags: W
LayerCount: 2
Back
Fore
SplineSet
134 5 m 1,0,-1
 114 -38 l 1,1,2
 170 -61 170 -61 170 -113 c 0,3,4
 170 -146 170 -146 146 -168 c 0,5,6
 121 -193 121 -193 81 -191 c 1,7,-1
 83 -142 l 1,8,9
 120 -143 120 -143 120 -114 c 256,10,11
 120 -85 120 -85 76 -79 c 2,12,-1
 43 -74 l 1,13,-1
 88 26 l 1,14,-1
 134 5 l 1,0,-1
EndSplineSet
EndChar

StartChar: hungarumlaut
Encoding: 733 733 147
Width: 405
Flags: W
LayerCount: 2
Back
Fore
SplineSet
112 583 m 1,0,-1
 62 583 l 1,1,-1
 107 633 l 1,2,-1
 207 633 l 1,3,-1
 89 502 l 1,4,-1
 39 502 l 1,5,-1
 112 583 l 1,0,-1
250 633 m 1,6,-1
 350 633 l 1,7,-1
 305 583 l 1,8,-1
 265 583 l 1,9,-1
 193 502 l 1,10,-1
 134 502 l 1,11,-1
 250 633 l 1,6,-1
EndSplineSet
EndChar

StartChar: ogonek
Encoding: 731 731 148
Width: 129
Flags: W
LayerCount: 2
Back
Fore
SplineSet
64 -3 m 1,0,1
 47 -39 47 -39 57 -71 c 0,2,3
 61 -84 61 -84 72 -84 c 0,4,5
 82 -84 82 -84 100 -73 c 1,6,-1
 116 -98 l 1,7,8
 90 -115 90 -115 70 -115 c 0,9,10
 25 -115 25 -115 25 -47 c 0,11,12
 25 -16 25 -16 37 10 c 1,13,-1
 64 -3 l 1,0,1
EndSplineSet
EndChar

StartChar: caron
Encoding: 711 711 149
Width: 164
Flags: W
LayerCount: 2
Back
Fore
SplineSet
19 710 m 1,0,-1
 97 632 l 1,1,-1
 175 710 l 1,2,-1
 140 745 l 1,3,-1
 97 702 l 1,4,-1
 54 745 l 1,5,-1
 19 710 l 1,0,-1
EndSplineSet
EndChar

StartChar: Lslash
Encoding: 321 321 150
Width: 444
Flags: W
LayerCount: 2
Back
Fore
SplineSet
110 583 m 1,0,-1
 60 583 l 1,1,-1
 60 630 l 1,2,-1
 160 630 l 1,3,-1
 160 375 l 1,4,-1
 230 429 l 1,5,-1
 260 390 l 1,6,-1
 160 312 l 1,7,-1
 160 50 l 1,8,-1
 349 50 l 1,9,10
 341 69 341 69 341 91 c 0,11,12
 341 123 341 123 359.5 145.5 c 128,-1,13
 378 168 378 168 413 168 c 1,14,-1
 413 118 l 1,15,16
 390 118 390 118 390 91 c 0,17,18
 390 76 390 76 397.5 63 c 128,-1,19
 405 50 405 50 416 50 c 1,20,-1
 416 0 l 1,21,-1
 59 0 l 1,22,-1
 59 50 l 1,23,-1
 109 50 l 1,24,-1
 109 272 l 1,25,-1
 46 223 l 1,26,-1
 16 262 l 1,27,-1
 110 336 l 1,28,-1
 110 583 l 1,0,-1
EndSplineSet
EndChar

StartChar: lslash
Encoding: 322 322 151
Width: 273
Flags: W
LayerCount: 2
Back
Fore
SplineSet
155 50 m 1,0,-1
 205 50 l 1,1,-1
 205 0 l 1,2,-1
 55 0 l 1,3,-1
 55 50 l 1,4,-1
 105 50 l 1,5,-1
 105 269 l 1,6,-1
 43 220 l 1,7,-1
 12 259 l 1,8,-1
 105 332 l 1,9,-1
 105 583 l 1,10,-1
 55 583 l 1,11,-1
 55 633 l 1,12,-1
 155 633 l 1,13,-1
 155 372 l 1,14,-1
 227 427 l 1,15,-1
 257 387 l 1,16,-1
 155 308 l 1,17,-1
 155 50 l 1,0,-1
EndSplineSet
EndChar

StartChar: Eth
Encoding: 208 208 152
Width: 517
Flags: W
LayerCount: 2
Back
Fore
SplineSet
221 402 m 1,0,-1
 252 362 l 1,1,-1
 154 287 l 1,2,-1
 154 0 l 1,3,-1
 53 0 l 1,4,-1
 54 50 l 1,5,-1
 104 49 l 1,6,-1
 103 247 l 1,7,-1
 38 195 l 1,8,-1
 7 235 l 1,9,-1
 103 311 l 1,10,-1
 104 583 l 1,11,-1
 54 582 l 1,12,-1
 54 632 l 1,13,-1
 154 632 l 1,14,-1
 154 556 l 1,15,16
 208 627 208 627 280 627 c 0,17,18
 366 627 366 627 423 528 c 0,19,20
 477 434 477 434 477 306 c 256,21,22
 477 178 477 178 423 85 c 0,23,24
 366 -14 366 -14 280 -14 c 0,25,26
 222 -14 222 -14 176 32 c 1,27,-1
 213 69 l 1,28,29
 245 36 245 36 280 36 c 0,30,31
 336 36 336 36 380 110 c 0,32,33
 427 190 427 190 427 306 c 0,34,35
 427 423 427 423 380 503 c 0,36,37
 336 577 336 577 280 577 c 0,38,39
 225 577 225 577 178 502 c 0,40,41
 162 474 162 474 154 456 c 1,42,-1
 154 350 l 1,43,-1
 221 402 l 1,0,-1
EndSplineSet
EndChar

StartChar: eth
Encoding: 240 240 153
Width: 500
Flags: W
LayerCount: 2
Back
Fore
SplineSet
466 233 m 0,0,1
 479 201 479 201 479 167 c 0,2,3
 479 111 479 111 447 63.5 c 128,-1,4
 415 16 415 16 361 -4 c 0,5,6
 329 -17 329 -17 295 -17 c 0,7,8
 239 -17 239 -17 191.5 15 c 128,-1,9
 144 47 144 47 124 101 c 0,10,11
 111 133 111 133 111 167 c 0,12,13
 111 223 111 223 143 270.5 c 128,-1,14
 175 318 175 318 229 338 c 0,15,16
 263 351 263 351 282 350 c 1,17,-1
 242 385 l 1,18,19
 232 384 232 384 223 384 c 0,20,21
 170 384 170 384 132 415 c 1,22,-1
 54 352 l 1,23,-1
 23 391 l 1,24,-1
 100 452 l 1,25,26
 81 486 81 486 81 527 c 0,27,28
 81 589 81 589 121 640 c 1,29,-1
 161 609 l 1,30,31
 130 570 130 570 130 529 c 0,32,33
 130 504 130 504 141 483 c 1,34,-1
 237 558 l 1,35,-1
 268 519 l 1,36,-1
 175 448 l 1,37,38
 202 432 202 432 237 432 c 0,39,40
 249 432 249 432 262 434 c 1,41,-1
 410 310 l 1,42,43
 445 287 445 287 466 233 c 0,0,1
379 271 m 0,44,45
 352 292 352 292 320 298 c 0,46,47
 283 305 283 305 247 292 c 0,48,49
 208 277 208 277 184.5 242.5 c 128,-1,50
 161 208 161 208 161 167 c 0,51,52
 161 142 161 142 170 119 c 0,53,54
 185 80 185 80 219.5 56.5 c 128,-1,55
 254 33 254 33 295 33 c 0,56,57
 320 33 320 33 343 42 c 0,58,59
 382 57 382 57 405 91.5 c 128,-1,60
 428 126 428 126 428 167 c 0,61,62
 428 231 428 231 379 271 c 0,44,45
EndSplineSet
EndChar

StartChar: Thorn
Encoding: 222 222 158
Width: 462
Flags: W
LayerCount: 2
Back
Fore
SplineSet
125 234 m 1,0,1
 171 172 171 172 249 172 c 0,2,3
 314 172 314 172 360 218 c 128,-1,4
 406 264 406 264 406 329 c 256,5,6
 406 394 406 394 361 441 c 128,-1,7
 316 488 316 488 252 488 c 2,8,-1
 125 488 l 1,9,-1
 125 234 l 1,0,1
252 538 m 2,10,11
 337 538 337 538 396.5 476 c 128,-1,12
 456 414 456 414 456 329 c 0,13,14
 456 243 456 243 395.5 182.5 c 128,-1,15
 335 122 335 122 249 122 c 0,16,17
 180 122 180 122 125 163 c 1,18,-1
 125 0 l 1,19,-1
 24 0 l 1,20,-1
 24 49 l 1,21,-1
 74 49 l 1,22,-1
 74 582 l 1,23,-1
 25 582 l 1,24,-1
 25 632 l 1,25,-1
 125 632 l 1,26,-1
 125 538 l 1,27,-1
 252 538 l 2,10,11
EndSplineSet
EndChar

StartChar: thorn
Encoding: 254 254 159
Width: 360
Flags: W
LayerCount: 2
Back
Fore
SplineSet
226 233 m 2,0,1
 254 233 254 233 275 254.5 c 128,-1,2
 296 276 296 276 296 306 c 0,3,4
 296 335 296 335 275.5 355.5 c 128,-1,5
 255 376 255 376 226 376 c 2,6,-1
 115 376 l 1,7,-1
 115 233 l 1,8,-1
 226 233 l 2,0,1
115 0 m 1,9,-1
 15 0 l 1,10,-1
 15 49 l 1,11,-1
 65 49 l 1,12,-1
 65 582 l 1,13,-1
 16 582 l 1,14,-1
 16 632 l 1,15,-1
 115 632 l 1,16,-1
 115 426 l 1,17,-1
 226 426 l 2,18,19
 275 426 275 426 310.5 390.5 c 128,-1,20
 346 355 346 355 346 306 c 0,21,22
 346 256 346 256 311 219.5 c 128,-1,23
 276 183 276 183 226 183 c 2,24,-1
 115 183 l 1,25,-1
 115 0 l 1,9,-1
EndSplineSet
EndChar

StartChar: onehalf
Encoding: 189 189 162
Width: 273
Flags: W
LayerCount: 2
Back
Fore
SplineSet
69 646 m 0,0,1
 118 663 118 663 114 714 c 1,2,-1
 114 761 l 1,3,-1
 164 761 l 1,4,-1
 164 736 l 1,5,-1
 139 736 l 1,6,-1
 139 469 l 1,7,-1
 164 470 l 1,8,-1
 164 445 l 1,9,-1
 89 445 l 1,10,-1
 89 470 l 1,11,-1
 114 470 l 1,12,-1
 114 645 l 1,13,14
 99 630 99 630 78.5 623 c 128,-1,15
 58 616 58 616 39 618 c 1,16,-1
 39 684 l 1,17,-1
 64 684 l 1,18,-1
 64 645 l 2,19,20
 66 645 66 645 69 646 c 0,0,1
193 64 m 1,21,-1
 193 96 l 1,22,-1
 218 96 l 1,23,-1
 218 39 l 1,24,-1
 26 39 l 1,25,-1
 26 64 l 1,26,-1
 54 64 l 1,27,28
 28 89 28 89 28 120 c 0,29,30
 28 159 28 159 56 185 c 128,-1,31
 84 211 84 211 123 208 c 0,32,33
 150 206 150 206 170 226.5 c 128,-1,34
 190 247 190 247 190 275 c 0,35,36
 190 302 190 302 170.5 321.5 c 128,-1,37
 151 341 151 341 123 341 c 256,38,39
 95 341 95 341 75.5 321.5 c 128,-1,40
 56 302 56 302 56 275 c 0,41,42
 56 268 56 268 58 260 c 1,43,-1
 105 286 l 1,44,-1
 117 264 l 1,45,-1
 46 225 l 1,46,47
 31 248 31 248 31 275 c 0,48,49
 31 313 31 313 58 339.5 c 128,-1,50
 85 366 85 366 123 366 c 256,51,52
 161 366 161 366 188 339.5 c 128,-1,53
 215 313 215 313 215 275 c 0,54,55
 215 236 215 236 187.5 210.5 c 128,-1,56
 160 185 160 185 121 187 c 0,57,58
 93 189 93 189 73 168.5 c 128,-1,59
 53 148 53 148 53 120 c 0,60,61
 53 64 53 64 119 64 c 2,62,-1
 193 64 l 1,21,-1
11 430 m 1,63,-1
 227 430 l 1,64,-1
 227 381 l 1,65,-1
 11 381 l 1,66,-1
 11 430 l 1,63,-1
EndSplineSet
EndChar

StartChar: onequarter
Encoding: 188 188 163
Width: 261
Flags: W
LayerCount: 2
Back
Fore
SplineSet
69 646 m 0,0,1
 118 663 118 663 114 714 c 1,2,-1
 114 761 l 1,3,-1
 164 761 l 1,4,-1
 164 736 l 1,5,-1
 139 736 l 1,6,-1
 139 469 l 1,7,-1
 164 470 l 1,8,-1
 164 445 l 1,9,-1
 89 445 l 1,10,-1
 89 470 l 1,11,-1
 114 470 l 1,12,-1
 114 645 l 1,13,14
 99 630 99 630 78.5 623 c 128,-1,15
 58 616 58 616 39 618 c 1,16,-1
 39 684 l 1,17,-1
 64 684 l 1,18,-1
 64 645 l 2,19,20
 66 645 66 645 69 646 c 0,0,1
11 430 m 1,21,-1
 227 430 l 1,22,-1
 227 381 l 1,23,-1
 11 381 l 1,24,-1
 11 430 l 1,21,-1
82 184 m 1,25,26
 127 198 127 198 141 242 c 1,27,-1
 141 184 l 1,28,-1
 82 184 l 1,25,26
191 159 m 1,29,-1
 191 184 l 1,30,-1
 166 184 l 1,31,-1
 166 338 l 1,32,-1
 191 338 l 1,33,-1
 191 363 l 1,34,-1
 141 363 l 1,35,-1
 141 308 l 1,36,37
 130 346 130 346 85 362 c 1,38,-1
 70 342 l 1,39,40
 120 320 120 320 120 271 c 0,41,42
 120 244 120 244 100.5 224.5 c 128,-1,43
 81 205 81 205 53 205 c 0,44,45
 33 205 33 205 23 210 c 1,46,-1
 16 190 l 1,47,48
 22 182 22 182 38 180 c 1,49,-1
 38 159 l 1,50,-1
 141 159 l 1,51,-1
 141 46 l 1,52,-1
 191 46 l 1,53,-1
 191 71 l 1,54,-1
 166 71 l 1,55,-1
 166 159 l 1,56,-1
 191 159 l 1,29,-1
EndSplineSet
EndChar

StartChar: onesuperior
Encoding: 185 185 164
Width: 216
Flags: W
LayerCount: 2
Back
Fore
SplineSet
74 646 m 0,0,1
 123 663 123 663 119 714 c 1,2,-1
 119 761 l 1,3,-1
 169 761 l 1,4,-1
 169 736 l 1,5,-1
 144 736 l 1,6,-1
 144 469 l 1,7,-1
 170 470 l 1,8,-1
 170 445 l 1,9,-1
 95 445 l 1,10,-1
 95 470 l 1,11,-1
 119 470 l 1,12,-1
 119 645 l 1,13,14
 105 630 105 630 84.5 623 c 128,-1,15
 64 616 64 616 45 618 c 1,16,-1
 45 684 l 1,17,-1
 70 684 l 1,18,-1
 70 645 l 2,19,20
 72 645 72 645 74 646 c 0,0,1
EndSplineSet
EndChar

StartChar: threequarters
Encoding: 190 190 165
Width: 281
Flags: W
LayerCount: 2
Back
Fore
SplineSet
236 533 m 0,0,1
 236 495 236 495 209 468 c 128,-1,2
 182 441 182 441 144 441 c 0,3,4
 81 441 81 441 59 499 c 1,5,-1
 39 480 l 1,6,-1
 22 497 l 1,7,-1
 67 543 l 1,8,-1
 85 525 l 1,9,-1
 79 519 l 1,10,11
 84 496 84 496 102 481 c 128,-1,12
 120 466 120 466 144 466 c 0,13,14
 172 466 172 466 191.5 485.5 c 128,-1,15
 211 505 211 505 211 533 c 0,16,17
 211 584 211 584 161 597 c 1,18,-1
 161 545 l 1,19,-1
 136 545 l 1,20,-1
 136 651 l 1,21,-1
 161 651 l 1,22,-1
 161 622 l 1,23,24
 184 627 184 627 198.5 645.5 c 128,-1,25
 213 664 213 664 213 687 c 0,26,27
 213 715 213 715 193.5 734.5 c 128,-1,28
 174 754 174 754 146 754 c 0,29,30
 116 754 116 754 96 731 c 1,31,-1
 130 697 l 1,32,-1
 112 679 l 1,33,-1
 64 728 l 1,34,35
 89 779 89 779 146 779 c 0,36,37
 184 779 184 779 211 752 c 128,-1,38
 238 725 238 725 238 687 c 0,39,40
 238 636 238 636 195 609 c 1,41,42
 236 582 236 582 236 533 c 0,0,1
21 430 m 1,43,-1
 237 430 l 1,44,-1
 237 381 l 1,45,-1
 21 381 l 1,46,-1
 21 430 l 1,43,-1
92 184 m 1,47,48
 137 198 137 198 151 242 c 1,49,-1
 151 184 l 1,50,-1
 92 184 l 1,47,48
201 159 m 1,51,-1
 201 184 l 1,52,-1
 176 184 l 1,53,-1
 176 338 l 1,54,-1
 201 338 l 1,55,-1
 201 363 l 1,56,-1
 151 363 l 1,57,-1
 151 308 l 1,58,59
 140 346 140 346 95 362 c 1,60,-1
 80 342 l 1,61,62
 130 320 130 320 130 271 c 0,63,64
 130 244 130 244 110.5 224.5 c 128,-1,65
 91 205 91 205 64 205 c 0,66,67
 44 205 44 205 33 210 c 1,68,-1
 26 190 l 1,69,70
 32 182 32 182 48 180 c 1,71,-1
 48 159 l 1,72,-1
 151 159 l 1,73,-1
 151 46 l 1,74,-1
 201 46 l 1,75,-1
 201 71 l 1,76,-1
 176 71 l 1,77,-1
 176 159 l 1,78,-1
 201 159 l 1,51,-1
EndSplineSet
EndChar

StartChar: threesuperior
Encoding: 179 179 166
Width: 293
Flags: W
LayerCount: 2
Back
Fore
SplineSet
236 533 m 0,0,1
 236 495 236 495 209 468 c 128,-1,2
 182 441 182 441 144 441 c 0,3,4
 81 441 81 441 58 499 c 1,5,-1
 39 480 l 1,6,-1
 21 497 l 1,7,-1
 67 543 l 1,8,-1
 85 525 l 1,9,-1
 79 519 l 1,10,11
 83 496 83 496 101.5 481 c 128,-1,12
 120 466 120 466 144 466 c 0,13,14
 172 466 172 466 191.5 485.5 c 128,-1,15
 211 505 211 505 211 533 c 0,16,17
 211 584 211 584 161 597 c 1,18,-1
 161 545 l 1,19,-1
 136 545 l 1,20,-1
 136 651 l 1,21,-1
 161 651 l 1,22,-1
 161 622 l 1,23,24
 184 627 184 627 198.5 645.5 c 128,-1,25
 213 664 213 664 213 687 c 0,26,27
 213 715 213 715 193.5 734.5 c 128,-1,28
 174 754 174 754 146 754 c 0,29,30
 116 754 116 754 96 731 c 1,31,-1
 129 697 l 1,32,-1
 112 679 l 1,33,-1
 64 728 l 1,34,35
 89 779 89 779 146 779 c 0,36,37
 184 779 184 779 211 752 c 128,-1,38
 238 725 238 725 238 687 c 0,39,40
 238 636 238 636 195 609 c 1,41,42
 236 582 236 582 236 533 c 0,0,1
EndSplineSet
EndChar

StartChar: twosuperior
Encoding: 178 178 167
Width: 260
Flags: W
LayerCount: 2
Back
Fore
SplineSet
190 476 m 1,0,-1
 190 508 l 1,1,-1
 215 508 l 1,2,-1
 215 451 l 1,3,-1
 23 451 l 1,4,-1
 23 476 l 1,5,-1
 51 476 l 1,6,7
 26 501 26 501 26 532 c 0,8,9
 26 570 26 570 53.5 596.5 c 128,-1,10
 81 623 81 623 120 620 c 0,11,12
 147 618 147 618 167 638 c 128,-1,13
 187 658 187 658 187 686 c 256,14,15
 187 714 187 714 167.5 733.5 c 128,-1,16
 148 753 148 753 120 753 c 0,17,18
 93 753 93 753 73.5 733.5 c 128,-1,19
 54 714 54 714 54 686 c 0,20,21
 54 680 54 680 55 672 c 1,22,-1
 102 697 l 1,23,-1
 114 675 l 1,24,-1
 43 637 l 1,25,26
 29 659 29 659 29 686 c 0,27,28
 29 724 29 724 55.5 751 c 128,-1,29
 82 778 82 778 120 778 c 256,30,31
 158 778 158 778 185 751 c 128,-1,32
 212 724 212 724 212 686 c 256,33,34
 212 648 212 648 184.5 622 c 128,-1,35
 157 596 157 596 118 599 c 0,36,37
 91 601 91 601 71 580.5 c 128,-1,38
 51 560 51 560 51 532 c 0,39,40
 51 476 51 476 116 476 c 2,41,-1
 190 476 l 1,0,-1
EndSplineSet
EndChar

StartChar: brokenbar
Encoding: 166 166 168
Width: 132
Flags: W
LayerCount: 2
Back
Fore
SplineSet
72 269 m 1,0,-1
 72 -24 l 1,1,-1
 23 -24 l 1,2,-1
 23 269 l 1,3,-1
 72 269 l 1,0,-1
72 626 m 1,4,-1
 72 334 l 1,5,-1
 23 334 l 1,6,-1
 23 626 l 1,7,-1
 72 626 l 1,4,-1
EndSplineSet
EndChar

StartChar: minus
Encoding: 8722 8722 169
Width: 354
Flags: W
LayerCount: 2
Back
Fore
SplineSet
24 328 m 1,0,-1
 333 328 l 1,1,-1
 333 278 l 1,2,-1
 24 278 l 1,3,-1
 24 328 l 1,0,-1
EndSplineSet
EndChar

StartChar: multiply
Encoding: 215 215 170
Width: 363
Flags: W
LayerCount: 2
Back
Fore
SplineSet
351 211 m 1,0,-1
 317 177 l 1,1,-1
 185 311 l 1,2,-1
 51 177 l 1,3,-1
 17 211 l 1,4,-1
 150 344 l 1,5,-1
 23 471 l 1,6,-1
 57 505 l 1,7,-1
 184 378 l 1,8,-1
 311 505 l 1,9,-1
 346 471 l 1,10,-1
 219 344 l 1,11,-1
 351 211 l 1,0,-1
EndSplineSet
EndChar

StartChar: Ccedilla
Encoding: 199 199 173
Width: 438
Flags: W
LayerCount: 2
Back
Fore
SplineSet
362 106 m 1,0,-1
 392 76 l 1,1,-1
 426 111 l 1,2,-1
 341 197 l 1,3,4
 323 122 323 122 285 77.5 c 128,-1,5
 247 33 247 33 206 33 c 0,6,7
 150 33 150 33 106 108 c 0,8,9
 60 187 60 187 60 304 c 256,10,11
 60 421 60 421 106 500 c 0,12,13
 150 574 150 574 206 574 c 0,14,15
 270 574 270 574 314 488 c 1,16,-1
 277 451 l 1,17,-1
 312 416 l 1,18,-1
 427 531 l 1,19,-1
 392 566 l 1,20,-1
 350 524 l 1,21,22
 293 624 293 624 206 624 c 0,23,24
 120 624 120 624 63 525 c 0,25,26
 10 432 10 432 10 304 c 0,27,28
 10 188 10 188 55 98 c 0,29,30
 102 3 102 3 176 -14 c 1,31,-1
 149 -74 l 1,32,-1
 182 -79 l 2,33,34
 226 -85 226 -85 226 -114 c 256,35,36
 226 -143 226 -143 190 -142 c 1,37,-1
 188 -191 l 1,38,39
 227 -193 227 -193 253 -168 c 0,40,41
 276 -146 276 -146 276 -113 c 0,42,43
 276 -61 276 -61 221 -38 c 1,44,-1
 231 -15 l 1,45,46
 312 -1 312 -1 362 106 c 1,0,-1
EndSplineSet
EndChar

StartChar: ccedilla
Encoding: 231 231 184
Width: 412
Flags: W
LayerCount: 2
Back
Fore
SplineSet
13 162 m 0,0,1
 13 238 13 238 66.5 292 c 128,-1,2
 120 346 120 346 196 346 c 0,3,4
 259 346 259 346 309 307 c 128,-1,5
 359 268 359 268 375 209 c 1,6,-1
 321 209 l 1,7,8
 307 248 307 248 273 272 c 128,-1,9
 239 296 239 296 196 296 c 0,10,11
 141 296 141 296 102 256.5 c 128,-1,12
 63 217 63 217 63 162 c 256,13,14
 63 107 63 107 102 68 c 128,-1,15
 141 29 141 29 196 29 c 0,16,17
 239 29 239 29 272.5 53.5 c 128,-1,18
 306 78 306 78 320 117 c 1,19,-1
 376 117 l 1,20,21
 362 58 362 58 313 19 c 128,-1,22
 264 -20 264 -20 202 -22 c 1,23,-1
 195 -38 l 1,24,25
 250 -61 250 -61 250 -113 c 0,26,27
 250 -146 250 -146 227 -168 c 0,28,29
 201 -193 201 -193 162 -191 c 1,30,-1
 164 -142 l 1,31,32
 200 -143 200 -143 200 -114 c 256,33,34
 200 -85 200 -85 156 -79 c 2,35,-1
 123 -74 l 1,36,-1
 150 -16 l 1,37,38
 91 0 91 0 52 49.5 c 128,-1,39
 13 99 13 99 13 162 c 0,0,1
EndSplineSet
EndChar

StartChar: degree
Encoding: 176 176 203
Width: 256
Flags: W
LayerCount: 2
Back
Fore
SplineSet
111 671 m 256,0,1
 147 671 147 671 172.5 645.5 c 128,-1,2
 198 620 198 620 198 584 c 256,3,4
 198 548 198 548 172.5 522.5 c 128,-1,5
 147 497 147 497 111 497 c 256,6,7
 75 497 75 497 49.5 522.5 c 128,-1,8
 24 548 24 548 24 584 c 256,9,10
 24 620 24 620 49.5 645.5 c 128,-1,11
 75 671 75 671 111 671 c 256,0,1
111 641 m 0,12,13
 87 641 87 641 70.5 624 c 128,-1,14
 54 607 54 607 54 584 c 0,15,16
 54 560 54 560 70.5 543.5 c 128,-1,17
 87 527 87 527 111 527 c 0,18,19
 134 527 134 527 151 543.5 c 128,-1,20
 168 560 168 560 168 584 c 0,21,22
 168 607 168 607 151 624 c 128,-1,23
 134 641 134 641 111 641 c 0,12,13
EndSplineSet
EndChar

StartChar: registered
Encoding: 174 174 204
Width: 720
Flags: W
LayerCount: 2
Back
Fore
SplineSet
681 355 m 256,0,1
 681 217 681 217 583.5 119.5 c 128,-1,2
 486 22 486 22 349 22 c 0,3,4
 211 22 211 22 113.5 119.5 c 128,-1,5
 16 217 16 217 16 355 c 256,6,7
 16 493 16 493 113.5 590.5 c 128,-1,8
 211 688 211 688 349 688 c 0,9,10
 486 688 486 688 583.5 590.5 c 128,-1,11
 681 493 681 493 681 355 c 256,0,1
631 355 m 256,12,13
 631 472 631 472 548.5 555 c 128,-1,14
 466 638 466 638 349 638 c 0,15,16
 231 638 231 638 148.5 555 c 128,-1,17
 66 472 66 472 66 355 c 256,18,19
 66 238 66 238 148.5 155 c 128,-1,20
 231 72 231 72 349 72 c 0,21,22
 466 72 466 72 548.5 155 c 128,-1,23
 631 238 631 238 631 355 c 256,12,13
409 511 m 0,24,25
 331 511 331 511 277 454 c 1,26,-1
 277 529 l 1,27,-1
 177 529 l 1,28,-1
 177 479 l 1,29,-1
 226 480 l 1,30,-1
 226 215 l 1,31,-1
 176 215 l 1,32,-1
 176 165 l 1,33,-1
 277 165 l 1,34,-1
 277 345 l 1,35,36
 283 394 283 394 321 427.5 c 128,-1,37
 359 461 359 461 409 461 c 0,38,39
 448 461 448 461 482 439 c 1,40,-1
 471 428 l 1,41,-1
 507 393 l 1,42,-1
 565 451 l 1,43,-1
 530 486 l 1,44,-1
 517 474 l 1,45,46
 468 511 468 511 409 511 c 0,24,25
EndSplineSet
EndChar

StartChar: copyright
Encoding: 169 169 205
Width: 720
Flags: W
LayerCount: 2
Back
Fore
SplineSet
681 355 m 256,0,1
 681 217 681 217 583.5 119.5 c 128,-1,2
 486 22 486 22 349 22 c 0,3,4
 211 22 211 22 113.5 119.5 c 128,-1,5
 16 217 16 217 16 355 c 256,6,7
 16 493 16 493 113.5 590.5 c 128,-1,8
 211 688 211 688 349 688 c 0,9,10
 486 688 486 688 583.5 590.5 c 128,-1,11
 681 493 681 493 681 355 c 256,0,1
631 355 m 256,12,13
 631 472 631 472 548.5 555 c 128,-1,14
 466 638 466 638 349 638 c 0,15,16
 231 638 231 638 148.5 555 c 128,-1,17
 66 472 66 472 66 355 c 256,18,19
 66 238 66 238 148.5 155 c 128,-1,20
 231 72 231 72 349 72 c 0,21,22
 466 72 466 72 548.5 155 c 128,-1,23
 631 238 631 238 631 355 c 256,12,13
349 221 m 0,24,25
 293 221 293 221 254 260 c 128,-1,26
 215 299 215 299 215 355 c 0,27,28
 215 410 215 410 254 449 c 128,-1,29
 293 488 293 488 349 488 c 0,30,31
 391 488 391 488 425 464 c 128,-1,32
 459 440 459 440 474 401 c 1,33,-1
 527 401 l 1,34,35
 511 461 511 461 461 499.5 c 128,-1,36
 411 538 411 538 349 538 c 0,37,38
 272 538 272 538 218.5 484.5 c 128,-1,39
 165 431 165 431 165 355 c 256,40,41
 165 279 165 279 218.5 225 c 128,-1,42
 272 171 272 171 349 171 c 0,43,44
 413 171 413 171 463.5 210 c 128,-1,45
 514 249 514 249 529 309 c 1,46,-1
 472 309 l 1,47,48
 458 270 458 270 424.5 245.5 c 128,-1,49
 391 221 391 221 349 221 c 0,24,25
EndSplineSet
EndChar

StartChar: trademark
Encoding: 8482 8482 206
Width: 559
Flags: W
LayerCount: 2
Back
Fore
SplineSet
87 508 m 1,0,1
 104 509 104 509 120 542 c 1,2,3
 124 537 124 537 141 519 c 1,4,5
 129 481 129 481 87 480 c 2,6,-1
 63 480 l 1,7,-1
 63 629 l 1,8,-1
 14 629 l 1,9,-1
 14 655 l 1,10,-1
 63 655 l 1,11,-1
 63 675 l 1,12,-1
 38 675 l 1,13,-1
 38 701 l 1,14,-1
 87 701 l 1,15,-1
 87 655 l 1,16,-1
 133 655 l 1,17,-1
 133 629 l 1,18,-1
 87 629 l 1,19,-1
 87 508 l 1,0,1
366 572 m 0,20,21
 366 517 366 517 316 485 c 1,22,-1
 334 451 l 1,23,-1
 313 436 l 1,24,-1
 283 490 l 1,25,-1
 308 509 l 2,26,27
 342 532 342 532 342 572 c 0,28,29
 342 601 342 601 322.5 621 c 128,-1,30
 303 641 303 641 275 641 c 0,31,32
 252 641 252 641 232 618 c 128,-1,33
 212 595 212 595 210 572 c 2,34,-1
 210 488 l 1,35,-1
 160 488 l 1,36,-1
 160 514 l 1,37,-1
 185 513 l 1,38,-1
 185 651 l 1,39,-1
 160 651 l 1,40,-1
 160 677 l 1,41,-1
 210 677 l 1,42,-1
 210 637 l 1,43,44
 234 667 234 667 275 667 c 0,45,46
 317 667 317 667 344 634 c 1,47,48
 368 668 368 668 413 668 c 0,49,50
 451 668 451 668 477.5 639.5 c 128,-1,51
 504 611 504 611 504 572 c 0,52,53
 504 518 504 518 454 486 c 1,54,-1
 472 452 l 1,55,-1
 451 437 l 1,56,-1
 421 491 l 1,57,-1
 446 510 l 2,58,59
 479 533 479 533 479 572 c 0,60,61
 479 601 479 601 460 621.5 c 128,-1,62
 441 642 441 642 413 642 c 0,63,64
 378 642 378 642 359 612 c 1,65,66
 366 594 366 594 366 572 c 0,20,21
EndSplineSet
EndChar

StartChar: notequal
Encoding: 8800 8800 207
Width: 437
Flags: W
LayerCount: 2
Back
Fore
SplineSet
102 107 m 1,0,-1
 146 84 l 1,1,-1
 187 162 l 1,2,-1
 392 162 l 1,3,-1
 392 212 l 1,4,-1
 213 212 l 1,5,-1
 252 289 l 1,6,-1
 392 289 l 1,7,-1
 392 339 l 1,8,-1
 278 339 l 1,9,-1
 305 390 l 1,10,-1
 260 413 l 1,11,-1
 222 339 l 1,12,-1
 23 339 l 1,13,-1
 23 289 l 1,14,-1
 196 289 l 1,15,-1
 157 212 l 1,16,-1
 23 212 l 1,17,-1
 23 162 l 1,18,-1
 131 162 l 1,19,-1
 102 107 l 1,0,-1
EndSplineSet
EndChar

StartChar: infinity
Encoding: 8734 8734 208
Width: 532
Flags: W
LayerCount: 2
Back
Fore
SplineSet
165 253 m 0,0,1
 110 253 110 253 70 284 c 0,2,3
 27 316 27 316 27 364 c 0,4,5
 27 413 27 413 70 445 c 0,6,7
 110 476 110 476 165 476 c 0,8,9
 236 476 236 476 277 429 c 1,10,11
 318 470 318 470 384 470 c 0,12,13
 438 470 438 470 478 440 c 0,14,15
 521 407 521 407 521 359 c 0,16,17
 521 310 521 310 479.5 278.5 c 128,-1,18
 438 247 438 247 384 247 c 0,19,20
 313 247 313 247 271 294 c 1,21,22
 230 253 230 253 165 253 c 0,0,1
165 426 m 0,23,24
 126 426 126 426 101.5 407 c 128,-1,25
 77 388 77 388 77 364 c 0,26,27
 77 341 77 341 101.5 322 c 128,-1,28
 126 303 126 303 165 303 c 0,29,30
 203 303 203 303 229 323 c 0,31,32
 252 341 252 341 252 364 c 0,33,34
 252 388 252 388 229 406 c 0,35,36
 203 426 203 426 165 426 c 0,23,24
384 420 m 0,37,38
 345 420 345 420 320.5 401 c 128,-1,39
 296 382 296 382 296 359 c 256,40,41
 296 336 296 336 320.5 316.5 c 128,-1,42
 345 297 345 297 384 297 c 0,43,44
 422 297 422 297 448 317 c 0,45,46
 471 336 471 336 471 359 c 256,47,48
 471 382 471 382 448 400 c 0,49,50
 422 420 422 420 384 420 c 0,37,38
EndSplineSet
EndChar

StartChar: plusminus
Encoding: 177 177 209
Width: 432
Flags: W
LayerCount: 2
Back
Fore
SplineSet
238 114 m 1,0,-1
 188 114 l 1,1,-1
 188 240 l 1,2,-1
 77 240 l 1,3,-1
 77 290 l 1,4,-1
 188 290 l 1,5,-1
 188 402 l 1,6,-1
 238 403 l 1,7,-1
 238 290 l 1,8,-1
 348 290 l 1,9,-1
 348 240 l 1,10,-1
 238 240 l 1,11,-1
 238 114 l 1,0,-1
28 80 m 1,12,-1
 397 80 l 1,13,-1
 397 30 l 1,14,-1
 28 30 l 1,15,-1
 28 80 l 1,12,-1
EndSplineSet
EndChar

StartChar: lessequal
Encoding: 8804 8804 210
Width: 415
Flags: W
LayerCount: 2
Back
Fore
SplineSet
291 484 m 1,0,-1
 118 312 l 1,1,-1
 291 139 l 1,2,-1
 255 104 l 1,3,-1
 47 312 l 1,4,-1
 255 520 l 1,5,-1
 291 484 l 1,0,-1
19 80 m 1,6,-1
 389 80 l 1,7,-1
 389 30 l 1,8,-1
 19 30 l 1,9,-1
 19 80 l 1,6,-1
EndSplineSet
EndChar

StartChar: greaterequal
Encoding: 8805 8805 211
Width: 425
Flags: W
LayerCount: 2
Back
Fore
SplineSet
117 484 m 1,0,-1
 290 312 l 1,1,-1
 117 139 l 1,2,-1
 153 104 l 1,3,-1
 361 312 l 1,4,-1
 153 520 l 1,5,-1
 117 484 l 1,0,-1
389 80 m 1,6,-1
 19 80 l 1,7,-1
 19 30 l 1,8,-1
 389 30 l 1,9,-1
 389 80 l 1,6,-1
EndSplineSet
EndChar

StartChar: mu
Encoding: 181 181 212
AltUni2: 0003bc.ffffffff.0
Width: 644
Flags: W
LayerCount: 2
Back
Fore
SplineSet
237 205 m 1,0,1
 236 183 236 183 238 171 c 0,2,3
 245 115 245 115 280 78 c 0,4,5
 318 38 318 38 371 38 c 0,6,7
 418 38 418 38 458 87 c 0,8,9
 492 129 492 129 507 185 c 1,10,-1
 531 365 l 1,11,-1
 628 365 l 1,12,-1
 628 315 l 1,13,-1
 576 315 l 1,14,-1
 542 50 l 1,15,-1
 586 50 l 1,16,-1
 586 0 l 1,17,-1
 483 0 l 1,18,-1
 493 76 l 1,19,20
 443 -12 443 -12 371 -12 c 0,21,22
 305 -12 305 -12 254 30 c 128,-1,23
 203 72 203 72 191 136 c 1,24,25
 140 66 140 66 36 -35 c 1,26,-1
 1 1 l 1,27,28
 92 89 92 89 136 146 c 0,29,30
 199 226 199 226 244 330 c 1,31,-1
 199 406 l 1,32,-1
 242 434 l 1,33,-1
 301 338 l 1,34,35
 276 270 276 270 237 205 c 1,0,1
EndSplineSet
EndChar

StartChar: partialdiff
Encoding: 8706 8706 213
Width: 442
Flags: W
LayerCount: 2
Back
Fore
SplineSet
69 101 m 0,0,1
 89 47 89 47 136.5 15 c 128,-1,2
 184 -17 184 -17 240 -17 c 0,3,4
 274 -17 274 -17 306 -4 c 0,5,6
 360 16 360 16 392 63.5 c 128,-1,7
 424 111 424 111 424 167 c 0,8,9
 424 201 424 201 411 233 c 0,10,11
 390 287 390 287 355 310 c 1,12,-1
 207 434 l 1,13,14
 194 432 194 432 182 432 c 0,15,16
 135 432 135 432 105 460 c 128,-1,17
 75 488 75 488 75 529 c 256,18,19
 75 570 75 570 106 609 c 1,20,-1
 67 640 l 1,21,22
 26 589 26 589 26 528 c 0,23,24
 26 468 26 468 65 426 c 128,-1,25
 104 384 104 384 168 384 c 0,26,27
 177 384 177 384 187 385 c 1,28,-1
 227 350 l 1,29,30
 208 351 208 351 174 338 c 0,31,32
 120 318 120 318 88 270.5 c 128,-1,33
 56 223 56 223 56 167 c 0,34,35
 56 133 56 133 69 101 c 0,0,1
115 119 m 0,36,37
 106 142 106 142 106 167 c 0,38,39
 106 208 106 208 129.5 242.5 c 128,-1,40
 153 277 153 277 192 292 c 0,41,42
 228 305 228 305 265 298 c 0,43,44
 338 284 338 284 365 215 c 0,45,46
 374 192 374 192 374 167 c 0,47,48
 374 126 374 126 350.5 91.5 c 128,-1,49
 327 57 327 57 288 42 c 0,50,51
 265 33 265 33 240 33 c 0,52,53
 199 33 199 33 164.5 56.5 c 128,-1,54
 130 80 130 80 115 119 c 0,36,37
EndSplineSet
EndChar

StartChar: summation
Encoding: 8721 8721 214
Width: 450
Flags: W
LayerCount: 2
Back
Fore
SplineSet
109 455 m 0,0,1
 109 400 109 400 148 361 c 128,-1,2
 187 322 187 322 242 322 c 1,3,-1
 291 288 l 1,4,-1
 108 49 l 1,5,-1
 381 49 l 1,6,-1
 381 84 l 1,7,-1
 431 84 l 1,8,-1
 431 -1 l 1,9,-1
 7 -1 l 1,10,-1
 217 274 l 1,11,12
 149 282 149 282 104 334 c 128,-1,13
 59 386 59 386 59 455 c 0,14,15
 59 531 59 531 112.5 585 c 128,-1,16
 166 639 166 639 242 639 c 2,17,-1
 408 639 l 1,18,-1
 408 589 l 1,19,-1
 241 589 l 2,20,21
 186 589 186 589 147.5 550 c 128,-1,22
 109 511 109 511 109 455 c 0,0,1
EndSplineSet
EndChar

StartChar: product
Encoding: 8719 8719 215
Width: 523
Flags: W
LayerCount: 2
Back
Fore
SplineSet
482 583 m 1,0,-1
 482 633 l 1,1,-1
 32 633 l 1,2,-1
 32 583 l 1,3,-1
 139 583 l 1,4,-1
 139 50 l 1,5,-1
 89 50 l 1,6,-1
 89 0 l 1,7,-1
 189 1 l 1,8,-1
 189 583 l 1,9,-1
 358 583 l 1,10,-1
 358 1 l 1,11,-1
 458 0 l 1,12,-1
 458 50 l 1,13,-1
 408 50 l 1,14,-1
 408 583 l 1,15,-1
 482 583 l 1,0,-1
EndSplineSet
EndChar

StartChar: pi
Encoding: 960 960 216
Width: 463
Flags: W
LayerCount: 2
Back
Fore
SplineSet
432 423 m 1,0,-1
 432 473 l 1,1,-1
 32 473 l 1,2,-1
 32 423 l 1,3,-1
 139 423 l 1,4,-1
 139 50 l 1,5,-1
 89 50 l 1,6,-1
 89 0 l 1,7,-1
 189 1 l 1,8,-1
 189 423 l 1,9,-1
 308 423 l 1,10,-1
 308 1 l 1,11,-1
 407 0 l 1,12,-1
 407 50 l 1,13,-1
 358 50 l 1,14,-1
 358 423 l 1,15,-1
 432 423 l 1,0,-1
EndSplineSet
EndChar

StartChar: integral
Encoding: 8747 8747 217
Width: 331
Flags: W
LayerCount: 2
Back
Fore
SplineSet
131 109 m 2,0,-1
 131 529 l 2,1,2
 131 554 131 554 148.5 571.5 c 128,-1,3
 166 589 166 589 191 589 c 256,4,5
 216 589 216 589 233.5 571.5 c 128,-1,6
 251 554 251 554 251 529 c 1,7,-1
 301 529 l 1,8,9
 301 575 301 575 268.5 607 c 128,-1,10
 236 639 236 639 191 639 c 0,11,12
 145 639 145 639 111.5 606 c 128,-1,13
 78 573 78 573 78 528 c 2,14,-1
 78 107 l 2,15,16
 78 82 78 82 61.5 65 c 128,-1,17
 45 48 45 48 20 48 c 1,18,-1
 20 1 l 1,19,20
 66 1 66 1 98.5 32.5 c 128,-1,21
 131 64 131 64 131 109 c 2,0,-1
EndSplineSet
EndChar

StartChar: Omega
Encoding: 937 937 218
AltUni2: 002126.ffffffff.0
Width: 762
Flags: W
LayerCount: 2
Back
Fore
SplineSet
683 317 m 0,0,1
 683 187 683 187 608 103 c 1,2,-1
 608 50 l 1,3,-1
 719 50 l 1,4,-1
 719 0 l 1,5,-1
 558 0 l 1,6,-1
 558 133 l 1,7,8
 633 197 633 197 633 317 c 0,9,10
 633 427 633 427 555 505.5 c 128,-1,11
 477 584 477 584 367 584 c 0,12,13
 258 584 258 584 184.5 506 c 128,-1,14
 111 428 111 428 111 317 c 0,15,16
 111 197 111 197 186 133 c 1,17,-1
 186 0 l 1,18,-1
 25 0 l 1,19,-1
 25 50 l 1,20,-1
 136 50 l 1,21,-1
 136 103 l 1,22,23
 61 187 61 187 61 317 c 0,24,25
 61 448 61 448 153.5 540.5 c 128,-1,26
 246 633 246 633 377 633 c 0,27,28
 507 633 507 633 595 541 c 128,-1,29
 683 449 683 449 683 317 c 0,0,1
EndSplineSet
EndChar

StartChar: logicalnot
Encoding: 172 172 219
Width: 437
Flags: W
LayerCount: 2
Back
Fore
SplineSet
306 217 m 1,0,1
 298 198 298 198 298 176 c 0,2,3
 298 144 298 144 315 123 c 0,4,5
 335 99 335 99 370 99 c 1,6,-1
 370 149 l 1,7,8
 347 149 347 149 347 176 c 0,9,10
 347 191 347 191 355 204 c 128,-1,11
 363 217 363 217 373 217 c 1,12,-1
 373 267 l 1,13,-1
 16 267 l 1,14,-1
 17 217 l 1,15,-1
 306 217 l 1,0,1
EndSplineSet
EndChar

StartChar: radical
Encoding: 8730 8730 220
Width: 688
Flags: W
LayerCount: 2
Back
Fore
SplineSet
91 210 m 1,0,-1
 34 160 l 1,1,-1
 4 200 l 1,2,-1
 99 283 l 1,3,-1
 262 67 l 1,4,5
 253 93 253 93 253 122 c 0,6,7
 253 241 253 241 406 413 c 0,8,9
 453 465 453 465 641 640 c 1,10,-1
 672 600 l 1,11,12
 503 443 503 443 456 391 c 0,13,14
 308 227 308 227 308 125 c 0,15,16
 308 86 308 86 329 57 c 1,17,-1
 251 -2 l 1,18,-1
 91 210 l 1,0,-1
EndSplineSet
EndChar

StartChar: approxequal
Encoding: 8776 8776 221
AltUni2: 0022f2.ffffffff.0
Width: 515
Flags: W
LayerCount: 2
Back
Fore
SplineSet
13 197 m 1,0,1
 18 243 18 243 57.5 274 c 128,-1,2
 97 305 97 305 146 305 c 0,3,4
 239 305 239 305 266 204 c 0,5,6
 274 173 274 173 301 154.5 c 128,-1,7
 328 136 328 136 358 136 c 0,8,9
 417 136 417 136 416 197 c 1,10,-1
 466 197 l 1,11,12
 467 143 467 143 435.5 114.5 c 128,-1,13
 404 86 404 86 358 86 c 0,14,15
 311 86 311 86 272 113 c 0,16,17
 230 142 230 142 217 191 c 0,18,19
 200 257 200 257 139 257 c 0,20,21
 110 257 110 257 87.5 240 c 128,-1,22
 65 223 65 223 62 197 c 1,23,-1
 13 197 l 1,0,1
32 359 m 1,24,25
 37 406 37 406 76.5 437 c 128,-1,26
 116 468 116 468 165 468 c 0,27,28
 258 468 258 468 285 366 c 0,29,30
 293 336 293 336 320 317 c 128,-1,31
 347 298 347 298 377 298 c 0,32,33
 436 298 436 298 435 359 c 1,34,-1
 485 359 l 1,35,36
 486 306 486 306 454.5 277.5 c 128,-1,37
 423 249 423 249 377 249 c 0,38,39
 330 249 330 249 291 276 c 0,40,41
 249 305 249 305 236 354 c 0,42,43
 219 420 219 420 158 420 c 0,44,45
 129 420 129 420 106.5 403 c 128,-1,46
 84 386 84 386 81 359 c 1,47,-1
 32 359 l 1,24,25
EndSplineSet
EndChar

StartChar: Delta
Encoding: 916 916 222
AltUni2: 002206.ffffffff.0
Width: 454
Flags: W
LayerCount: 2
Back
Fore
SplineSet
213 425 m 1,0,-1
 100 181 l 1,1,-1
 341 180 l 1,2,3
 239 261 239 261 213 425 c 1,0,-1
403 131 m 1,4,-1
 21 131 l 1,5,-1
 254 632 l 1,6,7
 256 460 256 460 280 371 c 0,8,9
 322 214 322 214 438 189 c 1,10,-1
 427 140 l 1,11,12
 415 142 415 142 403 146 c 1,13,-1
 403 131 l 1,4,-1
EndSplineSet
EndChar

StartChar: divide
Encoding: 247 247 226
Width: 426
Flags: W
LayerCount: 2
Back
Fore
SplineSet
23 240 m 1,0,-1
 392 240 l 1,1,-1
 392 190 l 1,2,-1
 23 190 l 1,3,-1
 23 240 l 1,0,-1
148 344 m 0,4,5
 148 368 148 368 165.5 385.5 c 128,-1,6
 183 403 183 403 207 403 c 0,7,8
 232 403 232 403 249 385.5 c 128,-1,9
 266 368 266 368 266 344 c 0,10,11
 266 319 266 319 249 302 c 128,-1,12
 232 285 232 285 207 285 c 0,13,14
 183 285 183 285 165.5 302 c 128,-1,15
 148 319 148 319 148 344 c 0,4,5
148 99 m 0,16,17
 148 123 148 123 165.5 140.5 c 128,-1,18
 183 158 183 158 207 158 c 0,19,20
 232 158 232 158 249 140.5 c 128,-1,21
 266 123 266 123 266 99 c 0,22,23
 266 74 266 74 249 57 c 128,-1,24
 232 40 232 40 207 40 c 0,25,26
 183 40 183 40 165.5 57 c 128,-1,27
 148 74 148 74 148 99 c 0,16,17
EndSplineSet
EndChar

StartChar: lozenge
Encoding: 9674 9674 227
Width: 422
Flags: W
LayerCount: 2
Back
Fore
SplineSet
217 509 m 1,0,-1
 89 335 l 1,1,-1
 230 144 l 1,2,-1
 371 343 l 1,3,4
 266 379 266 379 217 509 c 1,0,-1
231 59 m 1,5,-1
 27 335 l 1,6,-1
 235 619 l 1,7,8
 263 520 263 520 290 475 c 0,9,10
 335 402 335 402 410 383 c 1,11,-1
 410 309 l 1,12,-1
 231 59 l 1,5,-1
EndSplineSet
EndChar

